<svg xmlns="http://www.w3.org/2000/svg"><defs><font horiz-adv-x="1194"><font-face underline-position="-123" font-weight="700" descent="-410" panose-1="2 11 8 0 0 0 0 0 0 0" units-per-em="2048" unicode-range="U+0020-0178" bbox="-521 -1055 2950 1761" x-height="679" underline-thickness="20" font-family="DanielBold" ascent="1638" cap-height="1516"/><glyph glyph-name=".notdef" horiz-adv-x="2048"/><glyph glyph-name="glyph1" horiz-adv-x="0"/><glyph glyph-name="glyph2" horiz-adv-x="2048"/><glyph glyph-name="space.0" horiz-adv-x="1021"/><glyph glyph-name="exclam" horiz-adv-x="655" unicode="!" d="M246 81q0-111-78-111-27 0-72 55-44 53-44 81 0 64 93 64 23 0 62-34t39-55zm237 1524q-16-74-40-176-41-177-59-269-10-47-33-185-8-66-34-258-4-21-42-218 0-49-5-144-3-13-28-30t-40-17q-101 0-101 161 23 140 23 180 0 34 5 101 20 94 49 321 60 201 85 316 14 75 56 296 12 56 59 56 15 0 34-10 14-31 60-64 0-3 6-30t5-30z"/><glyph glyph-name="quotedbl" horiz-adv-x="668" unicode=""" d="M180 1742q83-47 84-126-3 0-55-324l-18-21q0-12-3-37-5-8-5-15-40 0-65-5-1 2-40 51-32 42-32 48 0 43 23 103 0 4-12 37 0 39 12 74 8 45 78 215h33zm398-134q0-64-33-271-6-37-28-118h-77q-21 31-45 85-12 45-12 114 0 74 22 187 26 138 66 155 107-41 107-152z"/><glyph glyph-name="numbersign" horiz-adv-x="1624" unicode="#" d="M941 560q0 30-27 30-123 0-172-30-20-13-48-58t-28-65v-54q2 0 16-3t19-3q2 0 28 4 25 2 27 2 51 0 139 28 2 11 46 149zm599-195q-30-18-91-45-154-41-286-41-3 0-7 3t-6 3q-32 0-125-52-14-8-40-80-8-10-25-81-3-5-13-15-23 19-29 21-6 0-34-14-1 4-29 12-28 9-28 10 0 69 25 111-1 12 0 24-4 21-13 21-21 0-107-15-105-18-135-33-18-8-32-75-14-73-28-85-48 2-136 31-15 11-15 29l13 46q6 25 6 41 0 10-2 16-4 3-10 3-7 0-97-14-65-10-82-10-5 0-6 1-69 41-69 93 0 31 39 50 31 14 62 14 1 0 91 18 89 16 93 16 18 0 52 48t34 66v38q-8 1-19 1-42 0-130-9l-134-13q-59 0-118 22-8 23-40 57 9 14 32 49 13 20 35 20 4 1 14-3l10-4q3 0 23 10 21 11 25 11 3 0 16-7 11-7 13-7 40 0 269 29 10 0 44 18 7-1 14-1 31 0 56 37 22 39 43 78 44 78 68 116 44 98 73 98 23 0 38-18 54-58 64-66 0-83-9-109-12-35-65-84 14-20 69-20 97 0 111 9 8 4 101 125 99 130 126 130 23 0 56-38 31-38 31-63 0-36-90-153 8-24 61-24 7 0 15 1 40 2 61 2 22 0 26-2 25-24 56-63-58-51-96-63-29-9-122-9-4 0-18 3t-18 3q-34 0-50-14-50-53-50-98l-10-56q3 9 41 11 31 2 202 2 3 0 27-6t27-6q4 0 44 6t41 6q35 0 67-63z"/><glyph glyph-name="dollar" horiz-adv-x="1285" unicode="$" d="M729 506q0 13-36 44-38 37-63 37-14 0-34-18 0-3-12-29t-12-29v-48h93q64 0 64 43zm-121 487v38q-22 6-30 6-158 0-216-41 89-101 169-134 77 65 77 131zm570-1q0-27-34-71h-5q-27 0-79 9-43 20-92 47-75 40-109 40-33 0-55-24-9-9-35-56-75-138-75-171 0-12 4-22 45-35 54-56 7-4 31-9 33-27 77-83 62-121 62-138-3-6-13-18-29-82-157-111-87-20-213-48-22-11-39-80-25-100-25-131v-3q-24-45-32-80-2 1-20 9t-20 8-15-6q-12-7-14-7-50 0-50 62 2 0 20 33 11 49 11 124v18q0 18-18 59-28 1-107 7-47 4-98 30-15 8-38 41-23 34-23 47 4 2 24 38 161-26 204-26 1 0 26 3t30 3q34 0 44 49 5 22 10 60 10 8 25 31 25 57 25 116 0 8-80 76-94 80-126 115-93 101-93 179 0 62 20 78 62 34 260 62h62q84 0 214 10 54 70 99 129 98 127 118 127 27 0 53-27 27-28 27-56 0-23-43-100-52-94-55-101 45-28 153-72 72-29 80-65 14-15 27-19 3-5 3-30z"/><glyph glyph-name="percent" horiz-adv-x="1756" unicode="%" d="M1558 329q-155 59-225 59-217 0-331-38-24-24-24-51 0-43 100-74 78-23 128-23 100 0 208 39 109 39 144 88zm-943 708q0 28-21 55-39 6-160 24-16 2-108 28l-92 26h-28q4-7 20-61-7-9-7-27 0-53 36-95 37-42 85-42h73q25 0 142 41 60 21 60 51zm746 39q0 2-1 2-5 0-39-80-8-18-66-77-162-164-700-559-62-46-162-150l-80-160q-81-19-86-19-31 0-57 60-23 52-23 72 0 55 79 134l101 102v5q0 9 10 19 157 114 395 286 218 160 343 320l45 58q0 14-18 22-98 10-119 10-158 0-209-38 0-9 14-30-10-55-18-105-59-50-77-89-166-100-312-100-125 0-228 60-42 23-59 54-51 87-51 209 0 27 51 96h112q5 13 5 26 0 14-5 28-3 9-11 35 0 75 51 90 19 7 132 7 3 0 138-32 136-34 139-34 12 1 69 3 60 1 180 2l247 3h1q25 0 83-25 60-27 67-43 59-130 59-162zm384-785q0-45-38-87-26-28-96-79-67-31-200-68-117-33-136-33h-138q-102 0-222 59-60 49-165 129-14 16-14 39 0 119 87 208t204 89q2 0 12-3 11-4 13-4 10 0 44 18 11 6 34 19 32 12 196 12 123 0 293-52 81-84 104-129 22-44 22-118z"/><glyph glyph-name="ampersand" horiz-adv-x="1444" unicode="&" d="M663 386q-10 34-47 84t-55 50q-9-4-52-32-66-30-158-69-19-9-69-59-53-53-53-70v-29q6 1 36-3t33-4q60 0 178 43t187 89zm404 750q0 35-27 90-35 74-83 74-46 0-149-83-89-70-105-99-27-47-59-144-28-83-28-97 0-85 35-93 55 27 153 93 151 102 233 211 30 40 30 48zm260-595q-6-5-46-59-197-60-304-153v-32q29-10 44-19 33-41 99-102 16-11 40-33 25-39 25-62 0-71-63-71-43 0-70 21-31 26-161 143-95 87-105 87-2 0-91-39t-91-39q-3 0-10 5-6 3-8 3t-58-31-63-33q-153-46-230-46-193 0-193 221 0 51 3 60 4 8 59 78 31 40 89 71 57 32 95 55l201 120q10 5 10 25 0 1-16 116l-15 115q0 64 86 182 103 142 126 225 131 126 290 126 35 0 112-70 62-58 78-84 62-104 62-212 0-110-65-182-11-13-205-168-51-29-133-84-29-11-57-23-54-25-54-48 0-14 53-76t64-62q146 60 378 132 23 15 23 18 32 0 66-26t35-49z"/><glyph glyph-name="quotesingle" horiz-adv-x="361" unicode="'" d="M225 1381v-3 3zm0 0q0 1-1 1-3 0-33-196 4-19 11-57v-92q-3-8-19-8-1 0-23 10t-27 10q-1 0-9-4-7-4-12-4-15 0-29 15-40 106-40 179 0 109 26 197 14 21 38 60h33q81-83 85-111z"/><glyph glyph-name="parenleft" horiz-adv-x="683" unicode="(" d="M819 1555q-15-21-57-54-10 0-27-4-298-247-426-555-13-25-48-119-7-10-15-28-4-30-13-77-10-50-10-66 0-169 117-323 63-83 248-247 18-59 18-66-1 0-10-44h-84q-54 0-199 137-116 109-150 160-18 26-69 153-31 114-31 233 0 140 135 482 11 9 24 30 30 121 223 342 202 233 296 233 41 0 63-77 15-49 15-95v-15z"/><glyph glyph-name="parenright" horiz-adv-x="683" unicode=")" d="M617 786q-1-6-6-30-2-9-2-19 0-15 4-33-27-133-71-264-30-87-118-192-25-31-102-123-11-13-123-109-116-99-142-99-22 0-29 1-47 55-47 79 0 48 44 94 343 355 394 531 24 84 24 238 0 158-121 390-92 174-177 275-23 29-31 62 0 44-10 127 45 38 52 38 67 0 184-192 91-149 187-317 90-157 90-457z"/><glyph glyph-name="asterisk" horiz-adv-x="1008" unicode="*" d="M915 1491q0-36-121-88-48-31-147-88 0-16 50-106 63-114 63-138 0-19-33-60-9-1-61-1-7 0-57 62-49 61-61 61h-1q-6 0-10-5-20-75-62-233h-10q-28 0-53-7-13 18-47 51-1 29-1 53 0 86 12 132 2 12 2 20 0 16-11 16h-21q-35 0-237-168h-57q-20 62-24 65-3-2-3-5 0 29 56 102 36 47 110 87 51 27 120 68 46 26 46 45 0 5-44 51-58 60-67 78-17 33-17 111-1 12 15 30t26 18q24 0 187-135 3 1 79 114t99 124q76-42 76-128 0-38-20-57v-17q-1 0-2-1 2-3 14-3 3 1 57 17t59 16q28 0 62-30 34-29 34-51z"/><glyph glyph-name="plus" horiz-adv-x="970" unicode="+" d="M929 362q-15-18-49-47-28-15-98-15-158 0-260-21-28-10-34-34-18-84-62-202h-38q-77 0-77 71 0 8 4 50t4 46q0 59-55 59-3 0-17-3t-18-3q-5 0-46 6l-61 9q-22 15-29 39-2 5-2 12 0 15 6 34-14 20-14 25 0 22 44 42t91 20q2 0 48-4t51-3q48 0 57 23l63 174q11 17 20 33 18 21 57 21 85 0 85-122-24-85-24-97 103-16 304-48 21-12 50-65z"/><glyph glyph-name="comma" horiz-adv-x="555" unicode="," d="M378 49q0-7-43-191-37-49-117-161-9-14-78-57-80-49-100-49-38 0-67 25-28 24-28 55 0 12 74 105 38 47 104 134 61 81 71 142 8 51 22 116 13 18 36 53h33q93 0 93-172z"/><glyph glyph-name="hyphen" horiz-adv-x="706" unicode="-" d="M631 440q0-23-40-42-10-12-31-33-18-16-62-16-11 0-23 1-34-9-94-17-35 1-135 1-9 0-135 16-10 4-48 28-10 39-10 64 0 94 96 94 164 0 174-3 59-9 158-9l28 6q39 0 88-16 34-42 34-74z"/><glyph glyph-name="period" horiz-adv-x="386" unicode="." d="M326 94q-48-72-122-72-131 0-131 87 0 59 76 164h80q79-90 79-118 0-54 18-61z"/><glyph glyph-name="slash" horiz-adv-x="1569" unicode="/" d="M1510 1608q0-53-43-96l-62-63q-16-28-58-77-277-215-446-416-610-725-674-1067h-105q0 7-27 60-21 42-21 58 0 55 59 203 51 130 75 166 40 64 147 229 72 113 344 447 97 118 251 294 33 37 294 260 167 142 207 142 19 0 42-65 17-54 17-75z"/><glyph glyph-name="zero" horiz-adv-x="2012" unicode="0" d="M1823 974q0 87-15 111-66 114-196 191-129 77-272 86-37 13-103 29-107 10-153 10-47 0-259-26-27-11-86-29-42-9-128-60-8-27-35-72l-152-147q-64-62-105-168-31-80-31-124 0-1 20-103t19-106q1-2-19-57t-20-59q0-13 25-54 42-74 157-128 113-53 227-53 6 0 56 4l54 5q67 0 264 61 306 94 460 199 112 77 202 227t90 263zm158 40q0-141-59-278-38-52-107-156-3-11-7-38-31-43-94-114-6-4-315-185-23-8-70-25-41-15-41-40 0-5 1-10l-430-98q-4 0-25-3-20-3-23-3-13-8-15-10-7-5-33-7l-24 7q-23 6-29 6-2 0-26-3t-25-3q-42 0-350 109-8 14-145 166-78 88-101 173-17 58-17 161 0 196 134 396 47 69 261 289 68 69 286 120 192 46 337 46 75 0 201-22 27 4 68 4 328-80 393-109 189-86 220-271 35-90 35-102z"/><glyph glyph-name="one" horiz-adv-x="534" unicode="1" d="M445 1270l-128-731q5-69 14-189 16-160 16-193v-7q1-8 15-23v-84l-32-27q-29 15-59 18-108 104-121 263-5 45-20 278l93 606q4 37 17 141 14 104 89 104 29 0 57-21 23-38 59-135z"/><glyph glyph-name="two" horiz-adv-x="1511" unicode="2" d="M1454 249q0-52-86-68l-111-23q11-5 31-5-280-15-391-60-34-5-183-28-198-28-364-28-14 0-92-7l-78-6q-33 0-66 21 0 18-38 49 1 3 1 7 0 10-6 31l-8 31q0 11 2 19 253 180 392 299l216 192 92 101q21 10 53 31 107 99 252 296 94 176 94 254 0 37-36 63t-88 25q-108 0-559-133-23-7-175-78-38-16-140-60-2-4-13-4-27 0-67 38-41 36-41 59 0 38 49 60 17 7 84 32 61 36 187 90l334 98q193 57 330 57 71 0 79-3 206-76 222-196-8-10-14-28 18-11 18-44 0-78-55-191t-122-174q-10-24-35-63-77-97-221-230-22-21-436-386 0-11-7-36-11-6-39-27 32-25 80-25 25 4 84 20 80 22 120 27 296 39 627 39l45-7q46-8 59-8 20-15 20-21z"/><glyph glyph-name="three" horiz-adv-x="1483" unicode="3" d="M1427 517q0-91-228-206-109-53-128-66-114-18-467-113-109-10-257-36-33-6-136-51-87-38-97-38-15 1-47 29-30 27-32 40 2 0 12 56 149 100 412 129 425 48 681 206 100 62 100 95 0 32-83 82-64 37-101 47-284 77-345 77-7-3-25-15-16-2-100-2-69 0-174 18-16 8-41 23 0 5 12 60 7 35 13 57 62 33 146 64 263 92 392 174 116 74 241 207 9 9 28 60-28 30-125 30-7 0-144-20l-141-21q-24 0-44 16-3-5-8-21-35-9-224-62-49-14-168-54-117-39-122-39-41 0-68 46-35 62-48 71 16 18 40 48 215 77 300 98 99 25 349 75 209 42 229 42 4 0 22-9 17-8 20-8 6 0 30 4 25 4 26 4 55 0 130-29 32-22 100-61 0-1 18-44 16-43 16-48 0-34-22-89-14-6-32-25v-3q0-43-92-122-86-73-147-98-43-39-141-108-48-19-145-71 13-33 201-64 114-30 183-59 231-96 231-276z"/><glyph glyph-name="four" horiz-adv-x="1521" unicode="4" d="M1586 1644q-75-143-183-391-65-212-107-409 16-12 44-12 4 0 20 4 14 3 16 3 52 0 52-52 0-43-42-58-95-33-101-38-25-16-31-34-25-67-48-202-2-100-8-287 14-18 18-33 0-24-7-68-24-16-52-49-84 13-110 58-50 84-50 175 0 112 32 278 6 12 18 41l17 95q0 37-35 37h-6l-637-47q0 1-282 24-59 66-59 128 0 64 35 159l53 145q7 5 20 17 18 39 69 169 10 29 41 114 36 98 67 98 32 0 74-34 43-35 43-59 0-5-16-25-5-46-47-138-11-24-62-168-61-171-61-212 0-50 44-50h613q170 0 190 37 43 114 106 348 10 40 40 153 8 14 132 233 47 81 84 109 76-33 116-59z"/><glyph glyph-name="five" horiz-adv-x="1617" unicode="5" d="M1544 676q15-36 15-77-5 0-51-112-120-75-192-128-2-13-2-18 0-4 1-5-23 0-194-84-97-48-209-94-404-164-490-164-34 0-64 26-32 25-32 53 0 46 70 77 159 51 467 179l182 78 21 10q50 21 222 133 76 64 76 90 0 43-179 149-46 27-135 48-158 36-170 36h-520q-23 0-155 22t-146 29q-23 39-23 77 0 108 117 311 11 4 20 18 4 13 60 145 10 23 49 55 81 28 234 28 428 0 534-12 114-13 134-13 5 0 32 8t28 8q42 0 76-33 33-32 33-72 0-89-102-89-4 0-47 5l-43 6q-357 21-621 21-82 0-114-28-22-19-86-139-17-19-41-55-11-34-39-110 153-21 173-21 1 0 35 3 35 4 41 4 0-2 64-15 332-22 473-52 267-56 433-191 31-25 65-107z"/><glyph glyph-name="six" horiz-adv-x="1767" unicode="6" d="M1728 532q0-16-92-182-46-82-49-82 1-8 9-16-34-3-151-52-32-21-86-50l9-12q-129-21-129-61v-1q-88-7-245-30l-26-11q-27-11-39-11-5 0-15 4t-13 5-75-19-77-20l-26 1q-32 2-66 3l-92 3q-24 0-90 20-76 22-118 48-12 7-232 185 2 3 2 7 0 15-17 42-31 52-34 62-21 59-21 167 0 139 59 281 26 62 93 143 71 108 297 291 67 56 189 122 362 195 433 195 37 0 76-27 39-29 39-57 0-41-42-66-23-13-138-57-26-2-66-13-225-112-353-200-50-55-115-115-193-180-243-348-49-165-52-165 1-164 243-321 16-11 91-27t109-15q79-1 233 33t208 62q46 9 138 28 15 11 38 27 23 3 73 23 26 10 96 68 88 74 88 106 0 15-20 33-59 32-161 89l-18-16q-195 55-252 55l-38-6q-29-3-42-3h-35q-108 0-213-49-73-33-187-155-28-23-69-73-2-10-2-66-44-10-52-10-14 0-38 24t-23 40q4 5 23 54 0 23 11 58 14 26 46 82 27 44 66 69 224 142 553 142 148 0 311-26 211-34 244-90 16-4 42-25 33-55 33-95z"/><glyph glyph-name="seven" horiz-adv-x="1399" unicode="7" d="M1361 1295q0-77-69-148-30-28-114-112-134-138-222-281-20-13-52-43-55-95-172-274-34-68-76-143-48-87-48-149 0-18 3-34-56-75-84-111-118 54-118 114 0 36 52 126-1 5-1 11 0 19 6 52 27 59 145 259l100 168q34 60 180 223 132 148 197 238 0 20 13 55-16 10-72 10-4 0-142-23l-142-22q-3 0-16 3t-18 3q-3 0-23-8-19-8-21-8-3 0-33-8t-35-8q-3 0-17 8t-17 8q-12 0-55-16l-59-22q-125-34-239-34-54 0-102 34-47 34-47 74 0 23 38 51 39 27 69 27 3 0 19-9 16-8 19-8t24 11q19 10 22 10h3q40 0 162 18 145 22 161 23 581 43 659 43 122 0 122-108z"/><glyph glyph-name="eight" horiz-adv-x="1653" unicode="8" d="M1365 565q0 70-198 126-154 44-220 44-310 0-469-65-100-40-172-123-73-82-73-156 0-37 1-41 24-36 75-99 73-57 218-57h101q148 0 414 106 323 128 323 265zm101 641q0 53-97 113-40 25-187 97-26 5-56 10-82 11-97 11l-86 5-67 2h-13q-93 0-236-51-48-18-85-42-145-94-187-341 21-9 58-27 75-47 167-62 62-9 227-9 91 0 367 81 47 29 121 62 171 75 171 151zm149 16q-22-85-22-89-13-14-31-33-25-86-151-147l-198-96q3-19 137-62 43-14 102-81 59-69 59-105-2-11-13-55-13-44-16-66-9-66-69-120-61-44-120-90-50-20-66-29-45-26-64-70-13 1-24 1-22 0-31-4-121-54-243-100-26-4-128-30-86-22-100-22-16 0-83 4l-83 5q-104 6-173 43-115 61-165 110 0 18-14 48-63 56-63 181 0 72 41 162t92 129q31 25 204 105v23q-99 36-187 132t-87 168q0 113 126 185 31 3 82 23 49 45 144 123 33 21 138 45l28 20q3 0 47 9t47 9 23-3 25-3q3 0 87 16t86 15q4 0 44-8t44-8q2 0 36 3 35 4 40 4 70 0 229-63 159-62 192-103 20-24 49-90t29-86z"/><glyph glyph-name="nine" horiz-adv-x="1127" unicode="9" d="M901 977q0 117-94 156-88 35-106 35-184 0-250-13-57-13-129-63t-72-82q0-51 113-124 103-66 151-73 104-2 196-12 63-7 115-54 20 27 44 69 32 122 32 161zm179-121q0-4-19-41t-19-41q0-38-31-122-109-169-186-251-50-54-124-126-55-53-208-172-25-20-105-52t-107-32q-23 0-48 17t-25 31q0 11 27 34l43 37q36 32 297 273 26 23 107 100 42 52 87 120-9 21-44 21-11 0-101-18-31 0-112 24-129 39-183 64-105 46-180 124-25 26-55 112t-31 133q0 53 55 105 158 150 526 150 180 0 336-124 34-27 41-73 11-12 32-31 25-61 27-66v-196z"/><glyph glyph-name="colon" horiz-adv-x="542" unicode=":" d="M370 49q-100-49-162-49-7 0-38 24-33 26-37 27-22 52-22 94 0 21 22 62 27 51 58 51 109-16 131-16 54-51 54-143 0-23-6-50zm77 575q0-125-107-125-41 0-85 52-43 52-43 98 0 3 6 31 5 26 5 29 10 2 35 13 30 11 48 11 54 0 98-34t43-75z"/><glyph glyph-name="semicolon" horiz-adv-x="611" unicode=";" d="M547 168q0-37-65-108-202-218-326-293-91-82-135-82-40 0-101 48 26 45 84 124 41 39 131 128 22 21 71 97 16 8 40 27 32 41 117 140 30 35 77 35 1 0 43-24t48-24q0-6 16-68zm-3 347q0-16-14-82-64-35-72-35-49 0-80 9l-59 120q0 78 98 120h40q24-38 63-67 24-17 24-65z"/><glyph glyph-name="less" horiz-adv-x="1004" unicode="<" d="M1085 1017q0-25-3-34-66-52-399-233-287-155-287-180 0-9 170-148 228-187 272-228 80-72 80-112 0-109-72-109l-36 15q-36 16-44 16-5 0-13-4l-8-3q-13 0-52 48-46 55-69 74-141 122-304 240l-115 61q-85 52-117 104-22 36-22 128v5q102 46 170 84 143 81 367 201 85 45 205 125 126 83 137 83 48 0 94-44t46-89z"/><glyph glyph-name="equal" horiz-adv-x="1116" unicode="=" d="M1070 315q0-73-201-111-53-8-232-39-40-21-114-27-11-1-25-1-38 0-99 5l-73 5q-248 16-248 137 0 73 41 84 186 11 186 13 10-1 49-8 48-8 51-8l382 39 70-5q44-2 88-3 51-6 84-28 41-27 41-53zm36 291q0-145-770-145-156 0-156 117 0 64 18 82 18 19 83 19 74 0 187-3l191-5q3 1 25 9t26 8q3 0 22-9 20-8 24-8 4 1 40 9t40 8q21 0 152-13 33-10 106-30 12-8 12-39z"/><glyph glyph-name="greater" horiz-adv-x="991" unicode=">" d="M959 560q0-39-222-171-21-6-54-21-215-111-375-241-10-24-41-63-114-98-131-98-22 0-62 9-11 5-30 45t-19 61q0 17 38 73t59 74q84 69 210 163 24 18 195 106 97 50 166 116-79 83-243 242-30 15-68 46-19 21-148 142-56 52-56 132 0 92 51 92 44 0 249-193 134-127 322-311 42-28 118-90 41-42 41-113z"/><glyph glyph-name="question" horiz-adv-x="1234" unicode="?" d="M457 143q-19-16-40-91-17-58-57-58-2 3-41 21l-56 4q-51 38-51 63 0 79 35 133l108 12q11 0 44-33 41-39 58-51zm748 1292q0-165-228-320l-425-237q-226-125-226-223 0-30 14-60 4-7 4-59-12-10-45-10-80 0-121 82-29 56-29 110 0 81 21 128 26 58 132 119 80 45 315 177l30 5q88 54 195 124 174 114 174 161 0 51-90 60h-122q-6 0-33-6t-29-7q-151-9-223-37-46-19-179-81-110-52-122-52-36 0-71 30-36 31-36 57l11 95q51 23 254 111 31 14 223 53 192 40 226 40 132 0 170-12 210-67 210-248z"/><glyph glyph-name="at" horiz-adv-x="1660" unicode="@" d="M936 705l-22 6q-22 6-30 6-46 0-149-59-3-13-13-35 9-1 19-1 37 0 105 35zm496 100q0 89-75 141t-200 53q-180 0-304-85 243-21 314-139 34-56 38-94-23-21-23-54 0-55 51-55 91 0 145 64t54 169zm151-85q-1-33-18-80v-10q0-24-5-64-30-81-103-134-74-55-161-55-90 0-197 53-78 38-86 49-20-8-144-45-164-49-199-49-62 0-84 12-45 24-72 103-25 71-25 108 0 65 84 163v28q-21-6-59-21-35-19-90-60-115-128-130-149-48-70-48-155 0-70 26-104t129-100q67-42 236-42 5 0 153 28t152 29l18-4q18-4 25-4 3 0 72 16t72 16q60 0 60-52 0-42-50-72-32-19-135-55-87-31-103-31-3-1-37-5t-39-4q-1 0-120-8l-119-8q-23-1-46-1-202 0-343 114-138 112-138 315 0 13 24 94 1 30 15 83 75 127 225 272 34 32 232 126 25 17 77 42 67 21 176 57 144 62 433 62 69-19 107-38 104-51 155-135 1-7 7-40 11-14 31-33 39-212 42-212z"/><glyph glyph-name="A" horiz-adv-x="1674" unicode="A" d="M1251 601q0 5-24 55l-26 53q-31 140-75 367-4 7-13 15 0 37-5 97-5 27-20 98-13 55-59 93-42-54-103-199-7-28-38-62l-52-56q-45-89-127-225-16-12-39-38-7-19-62-129 6-5 170-30 118-6 338-36 62-27 89-27h36q10 18 10 24zm339-254q0-80-97-80h-80q-8 0-61 36-61 40-73 44-119 51-242 75-282 56-451 56-18 0-36-15l-19 15q-84-5-153-149-28-30-73-89-4-21-14-54-10-22-37-65-43-35-121-102-36 23-70 44-38 30-38 72 0 66 12 84 36 39 72 79 51 60 80 120 2 3 2 7 0-2-1-2-3 0-15 68-2 9-2 16 0 29 22 46l76 34q72 33 91 62 5 4 83 135 24 21 65 68 100 168 294 473 4 19 15 53l133 224q0 15 5 45l70 96q28 10 28 12h-1 1q87-1 138-153 0-1 51-158 34-105 65-218 32-208 69-369 30-130 128-360 12-17 49-75 35-55 35-75z"/><glyph glyph-name="B" horiz-adv-x="2075" unicode="B" d="M1146 114l-10 39q-16-6-35-18 7-10 10-21h35zm618 533q0 152-566 152-4 1-72-19t-70-20q-8 0-214-38-117-23-197-23-2 0-31-6-28-7-31-7-20 3-73 15-45 9-79 9-10 0-19-1-7-41-23-114v-350q20-75 66-75 13 0 106 25 112 30 143 36 402 78 833 239 19 15 47 36 180 77 180 141zm-261-374h-37q-1-1-1-2 0-7 24-29 0 19 14 31zm167 1187q0 28-95 54-74 19-120 19-460 0-1056-236 9-37 27-101 19-67 19-75-11-60-11-67v-1q0-6-7-78v-12q0-33 20-51h31q9 0 93 26 64 20 122 33 21 12 49 27 21 0 56 6 266 92 340 122 200 80 360 185 172 112 172 149zm336-874q0-38-31-84-26-17-69-56-14-24-41-57-272-164-330-164-10 0-29 17l-24-24q-24-24-31-24t-15 4-8 5q-12 0-31-32h-81l18 18q-13 14-46 14-26 0-57-15 3-2 27-23-103-59-135-59-2 0-14 4-14 4-18 4-3 0-41-17-39-16-42-16-37 0-48 25-33-25-38-25-2 1-15 5t-17 4q-37 0-37-30 0-6 4-17l-476-106q-90 22-100 26-52 19-69 61 2 12 2 28 0 32-5 80-32 117-32 308 1 2-5 44t-6 45q0 87 21 234 0 12-7 32 11 43 32 198 20 146 20 164 0 29-18 54-33-9-78-9-111 0-111 108 0 65 34 83 151 87 493 200 24 3 64 7 489 135 845 135 1 1 35-7t39-8q114 0 290-103 69-105 69-146 0-127-134-245-60-53-305-206 0-18 46-25 78-12 83-14 32-16 35-21 5 0 12 5 8 3 11 3 13 0 36-13 84-13 192-107t125-173q11-51 11-89z"/><glyph glyph-name="C" horiz-adv-x="2142" unicode="C" d="M2110 199q-15-13-50-34-362-105-505-105-3 0-31 6-28 7-31 7-2 0-38-14t-41-14q-69-2-278-14-37-13-48-13-4 0-20 8t-18 8q-6 0-36-11t-31-11q-12-2-88-2-88 0-206 26-62 14-201 42-54 9-54 44v3q-92 35-133 66-146 110-244 272 0 30-5 82-12 48-15 51-1-1-1-6 0 65 59 200 26 60 151 175 168 155 306 218 447 205 703 257 20 9 75 25l316 47q2 0 51 15t53 15q54 0 99-36t45-80q0-28-23-66-19-16-55-33-80-2-241-23-55-19-113-34-83-19-277-66-201-49-599-272-63-34-122-70-112-69-176-213-10-24-10-110 0-97 117-179 103-73 226-96 11-2 79-19t73-17l57 4q56 4 81 4 10 0 66-9l58-8 90 13q84 13 112 14l821 54h4q36 0 44-33 1-5 4-68z"/><glyph glyph-name="D" horiz-adv-x="2171" unicode="D" d="M907 125q-3 0-26 7-23 5-26 5-33 0-33-23 59 11 81 11h4zm1175 864q-12 102-12 103-7 3-10 11-22 95-175 207-97 70-207 98-162 41-534 65-33 12-38 12-14 0-39-15-189 0-402-28 0-26 18-52 20-15 42-39 21-68 21-119v-6q-1-20-21-183-24-195-28-272l-15-323q0-8 28-173 25-8 32-8 53 0 418 137 313 116 434 173 209 98 400 270 88 80 88 142zm-797-764v-2q0-6-32-20 0 22 32 22zm132 57q0-7-52-24v32zm273 109q-1 0-44-19-38-17-45-17-46 0-53-5 9-6 30-6-33-21-134-53 16 49 100 74l122 39q14-13 24-13zm562 736q24-70 27-93-2 0-14-143-7-8-22-24 4-5 4-11 0-73-86-145l-27-14q-18-11-18-19 0 8-20 24-25-16-60-44 10-6 27-14 0-7-43-46 0-2-1-2-7 5-26 35h-26q-30-25-89-78 12-12 28-12 17 0 23 7-35-61-73-64-4 6-17 21 10 3 28 16v23q-4 6-18 6l-350-185q-3 0-10 3-6 4-9 4-7-2-25-15l-236-79q-130-43-173-96 15-12 32-12 6 0 63 18 57 16 64 16 17 0 35-5-80-34-235-100-19 0-57-5-103-39-206-67-323-90-472-90-25 0-77 26-54 27-73 51-19 25-19 67 0 44 90 80 3 0 12-3 8-5 11-5 15 0 40 15 96 10 147 20 78 15 122 34-48 403-48 464v2q1 10 20 185 24 221 26 292 2 13 16 33-5 12-5 26 0 10 2 22 0 6 39 154 13 3 34 16-27 19-48 19-5 0-217-48l-216-48q-27 0-67 44-34 38-34 52 0 51 79 95 31 17 197 63 223 61 323 61h707q1 0 61-15t70-16q88-7 170-21 161-29 343-145 192-123 241-243 14-27 36-87zm-476-690q-6 0-24-15 0-5 8-7h-42q45 20 53 28 3-3 5-6zm-5 6l2 2h-4z"/><glyph glyph-name="E" horiz-adv-x="2012" unicode="E" d="M2016 1452q-59-28-96-28 6 0 6-1-9-5-59-15-12 3-79 3-1 0-26-9t-29-9q-83-5-223-26l-283-42q-1 0-17 4-14 4-20 4 0-4-577-99-80-98-111-348 36-21 90-21 3 0 29 8 25 9 28 9 1 0 44-14 151 0 491 10l309 10h6q40 0 45-20 8-36 16-75-54-38-220-79-142-35-398-35-167 0-480-42-36-5-45-47l-12-52q-69-175-69-232v-46q14-4 31-8l769 105q23 0 136 6l16 2 115 8q10 0 32-14 20-2 148-2 4 0 57 8t55 8q58 0 131-28 18-62 22-65 1 1 1 4-1-32-41-65t-75-33q-2 0-25 5-22 4-28 4-2-1-47-15t-49-15l-421-36q-137-12-497-69l-316-50q-20 0-146 30-118 27-144 27h-3q-12 35-12 39 0 5 44 135 48 144 64 201l53 185q-1-1-2-1-5 0-44 65-1 23-21 72 52 32 128 99 14 20 73 233-3 9-3 49l14 16q12 13 12 23 0 19-41 41-38 20-65 20h-5q-20 72-20 100 0 52 59 74 120 44 301 44 4 0 13-5 8-4 9-4 4 0 61 22 244 11 642 35l401 24h1q27 0 165-55 10-3 73-3 38-3 59-24z"/><glyph glyph-name="F" horiz-adv-x="1348" unicode="F" d="M1815 1330q-7-54-7-57-142 12-418 12-2 0-23-8-20-9-25-9-2 0-30 5-27 4-32 4 3 0 3-1t-62-14q-48-10-251-28-4 0-40-10t-40-10-22 3-22 3q-28-6-242-68-19-6-49-76-7-27-21-78-34-82-69-185v-54q34-2 75-2 133 0 334 26 99 13 418 27l18-17q30 17 53 17 0-3 42-26v-28q0-14-20-65-43-5-155-21-148-23-157-29-5 1-13 2-15 4-18 4-5 0-30-18-24-19-25-20-17-5-300-49-19-3-67-14-44-10-51-10-37 0-143-6-20-7-42-33-19-147-37-290 1-11 1-26 0-31-2-80-4-91-62-91-7 2-30 12-88 14-133 54l56 453-149 80q13 33 35 82 29 68 72 68 1 0 23-3 23-3 29-3 53 0 73 60 7 42 11 80 31 115 65 193-7 10-92 50-67 30-67 88 0 55 58 80 64 11 178 39 16 9 47 27 45 26 54 26 20 0 43-14 1 0 26 3 23 3 28 3l516 59q123 0 127-3-3-1-5-2 7 1 15 3 42 8 46 8 2 0 29-3t32-3q4-1 28 7t27 8q111 0 114 3 80-7 225-41 50-46 50-94zm-275 135h-2 2zm-467-824q-1 0-1-1h8q-2 0-7 1z"/><glyph glyph-name="G" horiz-adv-x="2228" unicode="G" d="M2224 446q0-9-17-29 0-34-17-88-110-133-308-184-30-8-334-83-24 0-76-6-50-21-58-21-3 0-25 8-17 6-22 8-10-6-64-21-122-35-211-35-420 0-716 181-71 55-205 153-145 219-145 259 0 128 43 237 30 75 129 246 106 131 178 185 133 102 327 220 55 16 167 54 44 22 141 60 358 83 403 83 5 0 28-8t24-8q2 0 20 4t22 4q134 0 134-114 0-104-59-104-3-1-81 11t-84 12q-53 0-187-38-53-6-161-29-23-16-75-42-191-64-392-204-248-173-318-352-62-94-62-181 0-66 74-150t167-127q31-27 101-60 24-5 172-41 105-25 170-25h139q106 0 365 46 229 41 263 53l175 63q108 38 146 78 21 22 21 75 0 34-30 82t-66 66q-53 36-161 84-69 16-241 21-4 16-31 34l-203 11q0-2-148-18-28-3-58-30-32 27-32 64 0 25 32 45 58 35 92 42 203 37 348 37 33 0 62-2 3 0 39 8t40 7q103-31 111-31h4q148 0 270-100 180-147 180-410z"/><glyph glyph-name="H" horiz-adv-x="1642" unicode="H" d="M1790 1369q0-48-59-132-147-211-190-626-9-76-35-300-13-120-19-233-4 0-12-9-3-36-5-70-8-36-29-59-30-10-38-10-33 0-86 74-14 20-14 63v19l39 605q-5 2-19 2-7 0-52-20l-55-25q-205-51-408-51-1 0-61 4-59 5-64 5t-113-11l-112-12-41 3q-42 4-47 4-92 0-100-13-48-80-48-180 0-9 1-19 1-21 1-41 0-134-44-173-137 17-137 273 0 162 21 280 13 73 55 218 34 46 90 145 33 87 49 118 28 60 51 79 18-18 79-18l29-159q0-4-52-116t-52-114v-54q26-9 82-14 7-1 19-1 20 0 55 3 63 4 65 4 11 0 29-6l27-9q26-1 238-1 129 13 155 13 17 0 84-1l115-2 132-1q68 0 83 116 4 33 11 97 11 75 39 154 49 133 132 251 19 27 67 67t61 41q9-3 42-21 41-88 41-137z"/><glyph glyph-name="I" horiz-adv-x="450" unicode="I" d="M437 1355q0-19-45-236-49-233-80-332-1-13-27-161-40-233-108-557-13-9-49-35-19 15-48 44-21 36-21 225 0 790 159 1066 86 147 140 147 79 0 79-161z"/><glyph glyph-name="J" horiz-adv-x="1607" unicode="J" d="M1511 850q0-55-18-78 13-49 13-102 0-59-64-334-28-116-112-204-126-129-416-129-285 0-532 124-136 68-278 209-61 60-61 125 0 30 58 81h34q31-60 76-87 41-18 129-61 70-44 215-109 133-40 219-40h19q6 0 38 2 32 0 95 2l134 3q42 1 103 56 20 18 71 111l23 24q49 140 55 194 5 38 21 152v185q0 124-40 426-2 3-31 62-23 44-23 72 0 49 15 59l84 63q68-44 113-222 16-66 40-313 20-228 20-271z"/><glyph glyph-name="K" horiz-adv-x="1541" unicode="K" d="M537 1250q0-50-39-149-99-251-121-413-14-9-34-39-49-206-131-604-35-23-111-60l-59 105q0 3 6 27 7 24 7 26v144q44 265 214 816 2 6 32 49 5 5 5 13 0 10-7 23 25 85 34 104 36 75 108 122 10-9 19-9 11 0 19 9 58-93 58-164zm1122 105q0-80-24-94-134-80-585-345-43-23-167-94-214-126-214-191 0-40 96-95 77-44 115-55 255-72 587-178 43-14 43-52 0-88-177-88-78 0-182 29-35 3-95 12-445 125-585 323-38 54-47 99-18 46-23 51 7 10 32 41 3 17 17 48 46 59 267 203 20 20 58 53 47 30 289 169 51 16 141 53 73 45 175 104 167 96 220 96 27 0 46-43 13-31 13-46zm-1258-678l-1 1q-1 0-1-3z"/><glyph glyph-name="L" horiz-adv-x="1888" unicode="L" d="M1856 221q-38-20-99-71-91-28-129-28-107 0-397-32-301-35-397-43-72-19-131-26-146-18-290-18-81 0-207 42-64 21-104 56-67 60-67 91 31 117 31 140 4 30 12 95 36 100 100 297 14 20 41 66 44 118 118 292 27 63 232 434 17 9 42 33l72 102q51 70 94 70 23 0 47-28l23-114q0-15-4-43-31-38-86-104-14-39-101-192-20-23-48-65-73-150-202-445-10-39-28-104-30-45-69-129-41-140-41-177 0-74 210-74 18 0 320 31l321 32q2 0 34-5 32-4 35-4 4 0 57 13t55 13q19-2 160-6 187-6 233-6l163-48v-45z"/><glyph glyph-name="M" horiz-adv-x="1954" unicode="M" d="M2110 1581q0-29-39-190-40-60-72-123-27-115-63-225-19-55-75-217-17-119-38-210-57-245-57-314 0-2 18-114t18-115q-1-8-11-45-19-12-41-12-16 0-59 31-42 30-55 52-47 81-47 259 0 23 1 49-7 27-10 28 2 9 8 40 8 37 12 63 30 231 139 532-8 25-10 25l48 148q-56-36-179-202-19-43-52-103-99-175-410-581-15-19-96-93-95-87-126-87-158 0-158 457v407q-32-16-140-174-10-24-211-413l-196-378q-19-36-56-36-117 0-117 142 0 45 180 362 170 299 303 503 2 18 15 50 93 128 280 386 6 1 12 1 54 0 106-40 56-45 56-100v-195q-3-2-15-16-3-14-20-290-9-159-11-159l10-154q5-6 19-6 22 0 61 50 20 25 43 58 41 59 187 261 63 84 244 331 187 257 344 399 30 36 87 102 41-9 113-35 16-28 31-55 29-50 29-54z"/><glyph glyph-name="N" horiz-adv-x="1749" unicode="N" d="M1912 1572q0-24-70-187v-10q0-28-8-72l-38-114q-34-70-86-191-17-39-55-178-6-46-25-129l-109-240q-64-139-78-236-35-88-35-104 0-15 9-26-17-6-79-34-53-24-60-24-20 0-60 24t-51 43q-63 102-228 507-11 56-48 170-15 24-39 81-3 54-16 104-23 88-125 296-46-18-87-118-30-72-107-259-60-98-171-306-29-78-99-235-31-25-62-71-15-3-28-3-37 0-79 46t-42 83l327 663q2 2 164 310 13 34 53 130 39 90 106 90 43 0 83-40 54-54 76-102 80-174 149-376 7-20 62-235 8-10 22-30 41-129 58-176 41-113 101-209 29 33 90 155 86 170 162 350 32 122 118 367 18 23 48 60 2 21 8 54 15 26 48 83 25 18 60 57 14 39 47 89 7 2 26 2 68 0 68-59z"/><glyph glyph-name="O" horiz-adv-x="2180" unicode="O" d="M2083 950q0 85-80 192-45 60-219 133t-273 73q-3 0-39-4t-38-5q-7 1-69 13t-63 12q-4 0-39-12-34-13-35-13t-101-7l-100-7h-2q-5 0-25 7-22 7-26 7-13-5-76-38-54-13-198-48t-212-93q0-3 11-39 0-21-86-78-73-30-146-137t-73-186l14-9q-3-20-3-41 0-231 232-368 208-123 482-123t685 217q461 242 461 489 0 3 9 33t9 32zm159-166l-64-103q0-5 9-15-6-5-43-97-13-13-31-33-105-171-546-394-98-50-316-111-248-70-360-70-63 0-244 61-385 130-514 320-108 158-108 393 0 3 14 45 13 43 13 48 7 68 13 114 37 52 80 122 36 58 210 239 7 8 58 24 13 10 45 34 10 5 207 71 47 15 104 33 396 60 599 60 415 0 682-189 176-125 176-402 0-57-8-123 24-10 24-27zm-55-118l1-1v1h-1z"/><glyph glyph-name="P" horiz-adv-x="1434" unicode="P" d="M1426 1259q0 67-145 123-121 47-187 47-92 0-262-20-55-15-141-34-84-3-285-72 113-41 113-105 0-38-92-281-5-58-28-175h58q28 0 490 172l40 23q83 44 398 236 41 79 41 86zm188-16q0-89-34-134-204-274-820-457-4-8-19-20-54-17-308-87-73-21-89-72 0-39-1-82-4-151-34-277-7-59-25-108h-34q-23 12-53 54t-36 69l-1 198q-12 138-66 182-4 2-4 48 0 47 22 51 39 7 68 60 14 68 43 200 12 20 31 64 51 236 145 348v3q0 15-31 15-35-12-177-82-8-4-23-28-39-18-47-18-37 0-79 100 0 11 28 58t42 55q39 18 111 57 12 2 38 7 50 38 186 71 193 47 328 65 187 23 243 23 121 0 358-76 42-13 56-45 19-2 55-15 31-28 75-88 52-102 52-139z"/><glyph glyph-name="Q" horiz-adv-x="2161" unicode="Q" d="M2041 977q-1 157-63 241t-221 139q-142 51-154 51h-238q-3 0-25 10-21 8-24 8-9-2-47-18-43-3-244-3-1 0-22-12-21-11-25-11-1 0-8 4-8 5-11 5-18 0-107-37-93-39-153-83-139-103-242-273 0-6-20-66-8-25-8-46 0-16 4-29-17-33-27-58v-6q0-17 13-73-9-32-26-76-7 4-25 42t-18 49v248l16 72q17 72 18 89-19 0-40-11-88-113-115-170-32-70-32-183 0-365 284-520 4-1 7-1 5 0 8 1 132-74 350-74 118 0 198 21 44 23 130 56 101 21 296 112 17 13 17 37-94 70-263 212-12 31-46 80-3 5-3 26 0 107 52 107 27 0 127-65 29-35 183-166 124-103 147-103 93 0 290 274 6 9 36 98t31 102zm120 58q0-210-84-416-25-62-128-171-87-93-93-103 0-5 84-106t84-107q0-17-16-42-15-26-27-26-2 0-17 8t-20 9q-28 0-268 149-38-16-107-48-115-53-181-78-320-120-344-120-20-1-113-8l-116-9q-27 0-166 32-69 16-160 40-93 44-153 119-13 6-31 12-174 165-230 434-5 18-17 80-12 53-12 70 0 186 68 347 69 161 180 233 23 14 99 36 72 21 88 21 2 1 24-13t25-14q24 17 98 71 108 81 173 101 178 57 338 57 5 0 29-9 33 7 75 7 22 0 50-1-1-2-1-4 0-10 17-10 8 0 12 14 23 3 130 3 222 0 355-53 204-82 320-305 0-13 5-39 30-65 30-161z"/><glyph glyph-name="R" horiz-adv-x="1690" unicode="R" d="M1752 1121q0-85-120-253-24-34-159-99-32-39-125-96-69-21-197-67-43-25-126-65-13-3-203-33-152-24-152-62 0-35 131-128 107-76 146-93 107-47 356-161l172-57q115-52 118-124-18-33-54-33-1 0-40 8t-47 7q-138 0-254 53-7 1-227 104-45 28-135 87-74 48-107 91-13 1-36 7-33 51-184 143-127 79-127 125l38 95q199 43 506 118 31 6 152 35 78 19 272 150 243 165 243 274 0 97-85 177t-208 100q-57 23-69 23-20 0-74 1-66 1-107 1l-122 1q-14 0-14-3 0-10-3-13-28 1-51 1-69 0-91-6-49-15-162-62-57-15-142-40-74-33-84-65-59-192-80-455 4-54 4-165v-38q-7-16-21-51-21-95-21-167 0-19 1-36l6-63q3-38 3-110 0-156-59-156l-42 15q-42 16-50 16-21 111-21 370 0 10 17 164 22 210 41 335 21 68 43 162v48q-15 15-19 16l-31-15q-30-14-37-14-19 0-35 36-11 23-11 39 0 107 59 174 41 46 181 142 15 10 260 58 251 47 342 47 200 0 382-18 13-11 44-20 95-1 224-105t150-195q0-2 14-31t14-32q0-4 7-45 6-43 6-47z"/><glyph glyph-name="S" horiz-adv-x="1333" unicode="S" d="M1388 1458q0-78-107-78-6 0-82 8l-80 8q-11 0-90-8l-103-13h-61q-57 3-69 3-30-3-225-24-69-15-195-33-53-3-101-35 9-19 30-52 52-43 166-127 45-27 157-76 21-17 65-44l21-8q161-62 425-190 98-47 159-133t61-175q0-53-59-98-87-67-104-89-39 0-73-4-68-47-76-47l-8 4q-7 4-14 4-37 0-183-59-113-46-271-81l-16-15q-16-14-32-14-3 0-20 4t-22 4q-3 0-123-28t-125-28q-75 0-159-16-27 11-54 44-24 29-24 47v5q17 13 49 31 582 133 877 256 204 86 204 144 0 46-76 92-29 16-111 65-94 58-223 109-201 81-231 95-63 31-235 159-218 163-218 232 0 12 31 46l46 53 68 28q22 9 84 34 99 25 394 61 88 11 187 21 174 18 295 18 251 0 251-100z"/><glyph glyph-name="T" horiz-adv-x="1579" unicode="T" d="M2486 1439q-19-46-123-46l-236-1q-3-1-132-19-83-12-93-12-4 1-20 9t-17 8q-226-23-281-23-11 0-222-21-74-8-102-16-58-18-82-60-86-152-160-546-17-91-33-216-3-26-11-97-21-44-48-136v-8q0-56-25-156-48-83-97-83-95 0-95 80 0 8 33 111 3 24 15 127 9 13 23 42 3 68 7 88 9 48 31 66v15q0 114 53 287l149 483q-16 13-33 13-232 0-374-18-66-8-239-46-152-32-160-32l-88 36q-22 38-22 74 0 64 50 72 29 4 289 41l589 34q10 1 75 17 66 16 67 16t32-16q32-17 37-17l922 42q5 0 88-20 86-22 88-22 3 1 19 5t19 4q67 0 107-59z"/><glyph glyph-name="U" horiz-adv-x="2095" unicode="U" d="M2100 1360q0-5-10-26-9-23-9-24 0-91 4-94 2 2 3 4-18-78-76-210-69-158-86-209-10-12-28-32-8-47-27-78-59-69-170-204-52-42-152-115-3-7-14-39-46-28-176-109-114-71-208-97-12-18-45-44-119-50-208-50-12-1-70-5l-73-4q-136 0-318 75-202 82-250 177-109 216-127 332-25 155-25 262l12 13q-4 54-7 80 18 94 86 248 100 223 197 223l77-59q-17-21-22-74-66-41-90-105l-41-113q-42-84-42-174 0-223 28-323 16-61 72-156 40-69 108-119 88-65 114-77 37-17 110-17h118q36 0 242 71 202 69 225 85 48 31 181 120 90 79 273 231 23 41 132 200 44 65 91 173 41 95 41 117v280q11 30 53 30 5 0 86-33 0-16 10-73zm-160 134q0 11-1 12-2-5-3-31 1 11 4 19z"/><glyph glyph-name="V" horiz-adv-x="1334" unicode="V" d="M1647 1512q0-26-131-184-20-7-27-16-11-50-81-80 1-5 1-9 0-23-31-51-16-15-59-54-31-44-93-96-4-30-52-103-21-15-50-49-7-27-26-75-19-18-46-62-7-45-38-138-18-12-39-39-18-68-114-368 0-30-3-95-19-7-114-66-7 1-40 9-48 72-131 212-63 135-163 356-21 46-85 218-17 25-49 81-11 13-48 84-3 29-14 81-44 45-44 113l-84 238q0 28 13 31 39 12 52 12 83 0 97-15 22-21 55-161 3-3 11-16 30-115 87-221l118-289q23-40 71-120 19-74 104-247 17 0 29 14 2 27 30 104 29 58 125 234l17 32q80 147 208 344 82 127 298 346 114 117 156 117 19 0 54-28 36-29 36-44z"/><glyph glyph-name="W" horiz-adv-x="1888" unicode="W" d="M2207 1507q-82-130-170-267-29-34-44-73-28-69-80-150-155-239-215-362-9-18-41-102 3-6 3-14 0-6-3-13-87-134-116-185-53-96-73-177-23-9-59-32-12-31-72-77-16 10-39 27-79 125-193 358-41 129-84 223-34 30-74 163-2 13-32 29-55-21-56-68-43-121-121-212-1-3-1-5 0-8 15-8-61-68-69-107-22-108-84-203-44-69-111-167-8-12-104-52h-29q-32 32-74 99-25 62-56 197l-45 198q-33 79-50 136-29 98-67 339-28 178-28 215 0 29 41 65l36-12q28-14 66-56 33-78 55-212l28-173q4-26 9-51 33-104 93-320 20-70 42-106h3q21 0 43 37l66 108 61 135q32 15 63 85 50 115 73 151l128 208q23 21 67 21 76 0 137-132 14-12 29-41 21-61 64-168 8-19 105-202 31-79 41-99 26-53 53-77 21 0 30 15 133 225 398 597 13 31 50 89 77 122 215 301 20 21 64 90 39 62 81 81 0 1 1 1 3 0 30-45z"/><glyph glyph-name="X" horiz-adv-x="1777" unicode="X" d="M1894 1355q0-34-44-78-151-15-257-53-41-26-85-44-538-218-538-269 0-13 84-83l144-122q18-33 62-93 38-26 108-90 7-11 35-65 21-15 58-57 45-69 143-209 24-11 53-42 13-29 13-68 0-18-31-42t-53-24q-11 3-69 20l-13 24-322 388q-169 204-313 336h-10q-107 0-250-105-188-104-311-242-58-65-111-185-13-187-65-187-46 0-70 73-17 53-17 92 0 89 23 117 46 61 74 152 69 70 206 198 41 30 169 120 135 94 135 120 0 23-183 139-124 78-263 185-22 27-22 87 0 10 1 22 19 15 89 33l547-363q31 8 84 43 78 51 96 59 205 84 540 251 17 0 48 3 67 33 156 33 159 0 159-74z"/><glyph glyph-name="Y" horiz-adv-x="1080" unicode="Y" d="M1397 1306q0-36-42-87-34-42-142-148-127-125-199-206-35-41-144-161-43-47-171-184-66-93-169-259-10-15-37-80-18-57-29-87-30-78-65-78-18 8-105 57-1 8-1 18 0 26 5 59 113 247 185 356 13 21 51 41 3 12 6 31 12 21 115 139 0 10 13 28-13 14-52 14-2 0-102-20-99-21-102-21-71 0-142 46t-104 111q-66 134-93 241-13 49-13 98 0 74 31 148h79q3-7 55-44l29-215q57-199 214-199 131 0 395 196 94 70 364 267 40 29 76 29 28 0 62-39 32-35 32-51z"/><glyph glyph-name="Z" horiz-adv-x="1767" unicode="Z" d="M1708 1331q0-84-126-192-93-80-141-110-32-18-100-64l-78-59q-5-3-113-80-172-122-470-314-215-138-374-266 44-51 221-51 15 0 153 8l154 9q-3 0-3 1 0 2 49 12 80 10 301 38 103 13 312 13 107 0 148-34v-29q-25-19-79-42l-280-21q-69-18-204-39-8-7-28-18-93-25-208-41-150-22-226-24l-36-1h-272q-58 0-230 42-42 35-42 122 0 70 62 115 59 33 116 67 13 18 47 52 39 26 152 104 42 31 167 123 186 83 448 269 183 131 225 164 68 54 194 177-51 35-387 35l-513-47q-166 0-228 36 0 7-31 93 0 73 52 73 4 0 80-12t79-11l63 13q69 14 96 16t330 15l215 10q18 1 39 1 107 0 249-26 52-16 110-26 107-16 107-101z"/><glyph glyph-name="bracketleft" horiz-adv-x="863" unicode="[" d="M832-49q-84-56-246-83-57-10-216-36-19 0-51-6-8-3-25-3h-7q-15 0-37 3l-56 6h-49q-57 0-57 95 1 0 30 237 13 125 52 494 8 63 27 376 7 110 7 144 0 215 4 389 8 29 19 80 16 13 78 18l91 8q64 22 207 56 50 11 88 11t46-13q36-57 61-128v-26q-139-45-342-81-30-5-48-25-2-162-13-274-2-20-25-220 0-139-6-268-4-83-22-304-16-197-16-316v-38q72-7 130-7 53 0 96 6l227 32q32 0 43-59 7-41 10-68z"/><glyph glyph-name="backslash" horiz-adv-x="1466" unicode="\" d="M1389 1588q0-56-39-102-16-16-59-65-14-30-54-82-247-221-405-436-561-763-620-1120h-93q-2 14-25 64-20 44-20 62 0 52 55 212 50 143 66 173 57 107 134 241 52 92 316 467 87 125 229 308 25 33 272 274 153 150 187 150 17 0 38-69 18-59 18-77z"/><glyph glyph-name="bracketright" horiz-adv-x="977" unicode="]" d="M949 1488q0-87-79-593 3-13 4-43-63-501-63-691v-20q0-88-10-159-25-172-36-197-27-66-110-66l-178 21-178 21q-3-1-26-5t-26-4q-2 0-51 6t-54 5q-10 13-31 36-21 10-56 28-7 29-9 31 1 34 17 75 69 28 283 46 94 8 104 8 56-8 59-8 56 0 56 20-4 25-4 73 31 110 60 257 5 221 49 518l88 605q0 6-2 13-40 31-142 31-37-8-39-8-16 0-37 13l-135 15q-129 15-129 133 0 88 76 88 0-1 514-42 85-7 85-207z"/><glyph glyph-name="asciicircum" horiz-adv-x="769" unicode="^" d="M714 1401q0-16-8-35-2-9-38-9-54 0-92 13-167 172-188 172l-116-102q-116-102-133-101-47 0-58 29 2 9 2 58-10 24-10 29 0 20 42 52 32 20 53 35 8 7 102 120 67 80 116 80 17-9 65-49l79-67q3-9 10-24 76-58 136-127 38-46 38-74z"/><glyph glyph-name="underscore" horiz-adv-x="2764" unicode="_" d="M2699-221q-40-25-63-42-13 6-125 6h-214l-256-16q-279-17-530-17h-38l-457 3-71 3-72 3h-86l-56 2h-27q-307 0-357-2-56-7-105-15-76 0-120 12-23 6-66 47 0 40 4 74 5 69 5 75 39 42 210 42l298-9q156-7 244-9 97-2 179-2 41 0 77 1l269 1q133 1 141 1l463-7 234 7q61 2 149 6 42 2 57 3 230 0 289-49 24-83 24-112v-6z"/><glyph glyph-name="grave" horiz-adv-x="737" unicode="`" d="M678 1338q0-33-28-78-254 66-597 248-10 6-10 69 0 70 39 70 21 0 102-36l245-110q74-33 221-104 28-38 28-59z"/><glyph glyph-name="a" horiz-adv-x="1119" unicode="a" d="M1078 36q0-36-22-66t-48-30q-39 7-225 106-107 56-117 60-42 0-118-34-101-45-117-51-67-22-133-22-84 0-206 112-42 60-42 107 0 63 41 168 9 25 58 48l62 29q216 132 395 132 51 0 133-30 24-9 59-69 36-60 36-89 0-50-59-87-123 69-192 69-74 0-152-37-98-46-157-101 7-30 71-30-5 0-5 1 0 7 133 48 158 50 235 50 21 0 149-107 138-116 197-146 24-21 24-31z"/><glyph glyph-name="b" horiz-adv-x="1239" unicode="b" d="M1029 509q0 54-193 89-140 25-253 25-77-17-89-17h-1q-49 6-75 6-14 0-22-1-56-12-73-55-1-14-10-63-34-191-39-197 34-103 34-122h36q67 27 160 54 169 49 340 130 185 87 185 151zm191-6q0-126-229-269-202-126-328-133-12-10-46-26-39-15-159-39-275-57-326-57-30 1-60 31t-30 59q0 14 53 46l54 32q0 16-37 77-22 37-22 87 0 9 12 93t13 95q0 36-50 79 1 6-11 45t-12 42q0 32 103 95 6 63 15 117 59 333 139 590 20 62 100 88 42-22 89-164-3-13-28-87-30-85-41-121-4-51-20-190-3-8-21-77t-18-70q0-51 95-51 361 0 568-57 68-19 132-96 65-77 65-139z"/><glyph glyph-name="c" horiz-adv-x="1105" unicode="c" d="M1021 183q2-15 2-30 0-89-101-89-4 0-16 4t-15 4q-7 0-59-25-59-27-70-29-166-37-239-37-6 0-31 4-9 1-19 1-11 0-23-1-26-13-49-13-105 0-205 60-102 62-131 144-22 66-23 66 0 76 31 130 48 82 169 176 58 44 147 83 176 75 256 75 3 0 41-4t43-5q92-1 123-23t31-90q-2 0-31-60-18-12-54-12-5 0-28 4-25 4-28 4-126 0-395-148-66-37-91-130 120-86 252-86 0 1 128 9l126 8q3 0 98 15 96 13 99 13 38 0 62-18z"/><glyph glyph-name="d" horiz-adv-x="1510" unicode="d" d="M1426 1551q0-395-14-510 7-70 7-174 0-131-10-311-23-33-65-101l-37 9q0 1-187 17l-187 16q-120 0-319-36-217-39-249-81-3-2-57-23-54-23-54-58 0-13 33-49 33-35 59-50 88-49 202-49 63 0 393 51l330 52h27q12 0 12-20t-23-58q-23-37-44-47-48-23-339-98-226-58-328-58-8-1-30-2-24 0-75-2l-110-3-48 21q-25 1-76 20-71 51-109 107-26 39-54 118-24 71-24 91 0 50 59 120 96 116 353 168 16 8 38 20 104 15 216 39 78 18 234 18 263 0 287 3 7 189 38 455-15 43-17 130 4 16 4 81 0 41-2 101v36q0 119 18 168 13 36 87 36 13 0 48-18 11-129 13-129z"/><glyph glyph-name="e" horiz-adv-x="1040" unicode="e" d="M778 466q-15 47-22 76-3 10-55 36-114-10-246-33-33-5-85-40-51-35-51-54 0-18 11-18h317q111 0 131 33zm205 81q7-23 7-67 0-25-2-58-8-98-43-116-54 0-235-24l-179-24q0-2-94-22-11 9-55 9l-15-15q0-28 211-87 58-3 132-11 124-15 124-62 0-13-77-52-3-3-41-40-71-7-71-9-13 1-100 7l-105 8q-33 0-108 35-16 8-87 45-85 30-155 112t-69 151q0 84 21 124 149 293 605 293 148 0 222-68 58-52 114-129z"/><glyph glyph-name="f" horiz-adv-x="1333" unicode="f" d="M1697 1199q0-43-3-57l-10-10q-10-10-9-19 0-6 18-6l-54-7q-10 0-69 55-74 68-111 88-105 58-327 58-5 0-57-10-51-12-52-12-143-16-341-211-41-41-99-191-62-162-62-258 9-84 9-95 29-13 72-13 0 3 288 49 200 32 313 32 48 0 93-27-4-26-52-68t-90-57q-102-12-291-46-101-37-306-107 4-44 40-124 55-60 55-80 0-21-28-67t-41-46q-74 0-159 141l-84 141q-193-40-201-40-43 0-73 37t-30 84q0 18 29 53 30 36 49 41 64 19 77 19 2 0 10-3t11-3q54 0 73 11 47 30 52 129 28 549 478 854 57 39 132 46 47 9 113 18 20 3 173 3 150 0 266-44 27-5 101-39 49-33 59-64 38-120 38-155z"/><glyph glyph-name="g" horiz-adv-x="1073" unicode="g" d="M711-199q-45 17-69 17-56 0-123-18-17-13-48-28-40-2-111-14-77-28-177-58-35-10-281-72l-83-42q-153-59-153-119 0-86 143-158 49-41 141-92 100-35 220-35 6 0 59 7l56 7q44 0 156 81 98 71 141 125 63 81 90 153 39 104 39 229v17zm208 85q0-4-14-30t-14-27q-24-238-175-531-123-147-285-241t-292-94q-176 0-372 113-183 106-248 222-40 68-40 206 0 167 330 263 172 25 355 60 313 59 544 65 23 9 23 80v168q0 13-2 13-2-3-4-8-3 4-5 23-11 123-78 228-19 1-35 1-34 0-55-6-174-44-216-44-3 0-21 8t-23 8q-72 0-128 42t-57 94q0 79 46 143 52 76 151 101 24 7 129 31 83 28 256 28 36 0 63-15 6 1 13 1 22 0 54-5 57-27 57-78-6-8-34-60-93 15-138 15-84 0-228-50t-144-80q13-1 26-1 69 0 165 31 37 12 160 12 49 0 69-22 99-114 122-248l27-160v-66q0-56-5-61l-5-5q2-9 15-67 13-54 13-57z"/><glyph glyph-name="h" horiz-adv-x="1428" unicode="h" d="M1316 52q0-19-33-76-17-4-61-16 19-5 47-17l-22-19q-104 18-145 139 4 77 4 225-5 9-31 30-142-19-277-51-65-15-392-153-206-86-253-86-43 0-70 58-20 44-20 75 0 103 96 420 11 20 32 66 15 89 34 161 55 216 243 844v10q0 21 10 57 22 42 90 42 30 0 38-17 28-80 28-97 0-15-89-329-85-300-105-358-45-131-108-383-54-219-54-245v-24q13-12 39-12 11 0 61 21l72 30q87 27 320 87 265 69 300 69h24q198 0 198-224 0-34-9-111v-3q0-16 15-62z"/><glyph glyph-name="i" horiz-adv-x="458" unicode="i" d="M317 611q3-12 13-482v-2q0-18-22-108l-26-6q-1-1-4-1-20 0-87 25 1 3 1 7 0 21-22 55-34 51-38 66-1 3-1 13 0 31 8 124 16 189 46 340 27 36 67 36 44 0 65-67zm64 454q0-25-59-92-99 28-99 83 0 53 40 122 21 2 87 11 31-65 31-124z"/><glyph glyph-name="j" horiz-adv-x="686" unicode="j" d="M576 437q0-7-11-51l-15-54q9-52 9-105v-9q-3-203-55-451 0-27-46-255 0-35-4-105-58-226-96-339-9-10-67-66-56-55-72-57 0 4-59 30-31 5-84 21-114 48-150 95-24 50-85 138l12 95q43-31 126-87 99-66 154-66 45 0 64 49 10 33 22 92 6 28 44 234 7 35 50 154 4 9 4 36v12q0 24 5 46v2q0 19 14 101 7 46 31 282v15q0 105 26 284 6 21 34 52 29 32 41 32 7-2 69-12 39-38 39-113zm-76 648v-33q0-143-87-143-17 1-43 23t-27 37q0 132 98 132 16 0 59-16z"/><glyph glyph-name="k" horiz-adv-x="1348" unicode="k" d="M533 273q-144 54-196 105-46-163-70-253-39-16-53-62-10-39-44-39-22 0-51 33-49 54-55 60 58 161 66 264 2 21 31 114 27 83 28 114 48 157 87 243 65 282 100 436 24 49 41 81 0 24-3 39 37 76 41 83 17 43 34 88 27 50 80 50 65 0 65-65 0-68-12-102-94-250-95-361l-142-524q60 36 91 36 3-1 14 5t14 6q-2 0-3 2 0 4 51 23 103 36 170 55 25 6 207 80 143 58 158 60 0-3 91-42v-75q0-58-43-82-43-23-279-97-221-69-265-106 65-18 123-20l274-72q29-7 169-93 166-102 166-140v-52q-35-15-48-22-45-21-55-21-8 3-74 38-74 39-138 54-41 10-151 49-137 45-181 59-108 38-143 51z"/><glyph glyph-name="l" horiz-adv-x="583" unicode="l" d="M547 1585v-194q-34-111-72-366-7-43-62-247 3-21 4-64-18-74-41-224-2-56-2-102 0-127 14-179-7-12-12-32 23-24 23-60 0-45-26-81t-62-35q-18-1-60 27t-54 50q-3 10-13 129-16 20-16 26v242l143 924q17 66 18 80v1q0 11-7 56l-7 49 59 119 27 15q33 0 90-53 56-52 56-81z"/><glyph glyph-name="m" horiz-adv-x="2095" unicode="m" d="M1995-78q-3 0-41-5t-41-5q-40 0-90 57 1 3 1 6 0 13-8 35-50 86-57 379-6 9-20 22-124-5-321-159l-310-240q-27-21-83-21-127 0-137 94-1 4-1 13 0 30 6 121 8 115 8 195 0 86-10 145-11 22-38 22-45 0-174-104-40-31-149-124-37-36-142-138-133-127-191-127-36 0-79 59-37 52-37 66 0 69 33 219 44 197 102 197 56 0 85-54l46-84q94 69 224 161 210 147 305 147 68 0 151-97 67-79 71-101 21-118 21-225v-32q7-5 18-5 37 0 104 60 42 27 301 187 127 59 254 59h30q18-36 54-52 43-51 95-153 7-44 7-107t-7-145q-2-15-2-34 0-43 8-100 14-99 14-132z"/><glyph glyph-name="n" horiz-adv-x="1109" unicode="n" d="M1042 145q0-145-68-145-9 0-46 18-43 21-63 25-57 89-57 178 0 99-66 306-11 14-49 14-33 0-86-29-9-5-29-16l-57-30q-39-28-149-157-126-148-154-148-72 0-121 91-42 76-42 147 0 28 43 115 0 18 9 58 6 23 53 109 2 0 30 7 28 5 32 5 3-14 44-47t56-33q3 0 184 80 180 81 185 81 102 0 220-150 26-33 76-118 55-138 55-361z"/><glyph glyph-name="o" horiz-adv-x="1239" unicode="o" d="M1002 472q0 149-187 149-136 0-315-59-15-12-38-29-43-3-74-21-134-131-134-168 0-60 107-117 94-50 155-50 103 0 282 89 204 102 204 206zm204-40q0-121-59-194-61-73-232-160-121-61-271-96-38-9-87-21-125 0-282 84-176 93-201 216-4 12-17 50-17 46-17 52 0 19 23 94t38 99q19 34 93 68l98 46q104 60 245 117l76 5 38 19q6 0 65 6t63 6q297 0 384-253 43-123 43-138z"/><glyph glyph-name="p" horiz-adv-x="1428" unicode="p" d="M1397 333q0-109-160-237-139-113-264-148-34-30-58-30l-7 4q-8 4-15 5-5 0-129-28t-127-28-34-4-34-4q-39 0-101 55-4-3-13-14-1-15-46-329-5-31-20-227-13-170-52-236-3 1-5 2-10 0-24-4-24-5-27-5-59 0-117 84v192q0 6 14 26-1 25-1 56 0 95 8 243 12 28 31 90 13 159 72 482 62 74 90 74 47 0 85-46 37-48 37-102 0-72-38-216 16-13 23-13 46 0 316 118 128 55 243 117 76 56 144 134 13 16 13 45 1 13-37 59t-63 64q-71 50-182 50-162 0-336-54-189-59-220-74-107-50-107-129 0-6 4-12-16-29-35-81-7-5-57-29-88 63-88 134l24 33q-4 12-4 30 0 8 1 19 54 115 259 225 206 109 367 111 4 3 19 10 33 12 117 12 189 0 333-84 39-23 131-140 70-87 70-200z"/><glyph glyph-name="q" horiz-adv-x="1413" unicode="q" d="M1369 662q0-72-81-72-10 4-107 36-89 28-224 28-43 0-161-30-51-13-126-33-347-62-347-215 0-28 38-52 39-24 84-24 99 0 343 96l245 97q21 0 130-115 5-10 5-33 0-16-25-79-34-84-41-108-49-183-77-344-19-113-101-610v-10q0-26 19-54-11-28-42-93-36-79-84-79-61 0-85 34-38 53-38 118 0 3 10 23t10 23q15 281 15 466l75 510q4 1 4 3-4 2-22 2-213-49-221-49h-101q-63 0-180 48-134 55-169 118-51 89-51 153 0 53 86 161t131 113q190 59 540 146 62 9 284 9 14 0 164-59 24-10 63-56 37-46 37-69z"/><glyph glyph-name="r" horiz-adv-x="1306" unicode="r" d="M1386 588q-3-2-90-52l-18 17q-20-17-37-17-10 0-229 20l-229 21q-299 0-420-194-30-48-55-168-7-6-23-23 0-67-25-179-44-17-92-17-109 0-109 136 3 21 15 141 14 140 20 211 55 124 100 124l26-11q26-11 34-11 3 0 78 59 79 43 174 88 92 44 216 44 36 0 532-84 3-5 17-18l104-12q0-67 11-75z"/><glyph glyph-name="s" horiz-adv-x="1070" unicode="s" d="M973 234q0-18-39-48t-76-41q-68-21-262-81-220-67-328-67-3 0-42 8t-41 8q-4 0-39-8l-35-8q-16 0-43 38-28 36-28 55 0 6 31 47l307 57q197 36 269 79 0 6-2 12-34 26-216 101-191 79-220 96-36 12-114 63-22 21-22 87 0-5-2-5t-7 17q-2 6-2 12 0 42 96 79 115 45 343 85t375 39q40 0 52-13 60-66 60-96 0-57-39-75-34-9-302-38-51-21-57-21-3 0-17 4-16 4-19 4-55 0-128-36 14-26 46-43 33-5 139-36 26-10 109-39l15-5q16-5 97-40 50-21 89-70 16-18 27-74 0-2 12-22t13-25z"/><glyph glyph-name="t" horiz-adv-x="1108" unicode="t" d="M1250 738q0-35-30-53t-111-33q-70-14-91-30-85-11-90-11-83 0-246-23-51-6-61-34-20-57-43-178-2-103-38-330-34-47-34-50-110 6-136 34-12 14-12 76 0 76 47 464-25 22-48 22h-6q-29-4-46-4-11 0-17 2-101 5-200 8-124 21-124 124 0 35 27 63t61 28q2 1 56-5t58-6q2 0 46 4t48 4q3 0 25-9 21-8 24-8 5 0 59 4 52 4 54 4 51 0 64 51 11 41 33 131l69 195q4 39 16 105 26 37 51 89 117 245 198 245 35 0 99-114 0-20-37-92-20-24-52-74-26-82-111-308-25-65-41-207 75-21 87-21l54 7q69 9 98 9 73 0 125-12l52-12q123 0 123-55z"/><glyph glyph-name="u" horiz-adv-x="1380" unicode="u" d="M1312 724q0-67-14-102-28-72-64-164-10-3-22-18-7-35-51-83l-70-78q-3-9-7-25-104-104-280-191-169-51-245-51-48 0-140 28-348 105-348 490 0 132 85 239h52q63-46 63-143 1-5-3-67t-4-69q0-173 186-224 66-18 66-20 0-1-2-1 2-1 34 3t38 4q99 0 271 113 102 68 203 199 102 130 115 210 3 15 37 45 35 31 48 31 52 0 52-126z"/><glyph glyph-name="v" horiz-adv-x="1220" unicode="v" d="M1181 623q0-25-24-53-25-20-162-124-1-12-4-31-519-388-554-388-16 0-74 38-59 39-69 54-138 236-210 419-6 8-19 24-15 20-15 36 47 122 89 122 11 0 145-201 135-202 150-202 14-1 94 47t104 69q65 34 176 103 24 24 85 68 95 40 246 84 42-31 42-65z"/><glyph glyph-name="w" horiz-adv-x="1850" unicode="w" d="M2054 817q0-40-122-121-9-21-33-56-32-24-78-71-13-27-51-81-31-25-72-64-33-50-60-90-22-30-149-160-154-156-197-156-91 0-326 300l-82 104q-10 0-104-88-120-111-152-135-259-196-299-196-60 0-97 42-67 75-138 380-59 249-59 276 0 11 49 88 30 12 38 12 28 0 69-44t46-79q0-18 5-56 36-101 50-164 2-52 48-158h25q57 0 256 194l238 233q18 17 59 17 67 0 124-122 39-82 52-99 17-31 67-119 60-104 97-104 28 0 151 128 40 42 153 159 44 45 370 306 25 2 90 21 32-55 32-97z"/><glyph glyph-name="x" horiz-adv-x="1269" unicode="x" d="M1237 778q0-51-28-64-41-18-256-56-26-4-125-53-114-57-114-79 0-9 47-57 59-60 61-62 57-69 128-159 73-93 73-163 1-3-5-37t-6-35q-1-12-21-12-80 0-117 35-23 22-204 224-137 152-161 152-99 0-287-200-8-6-16-48-50-27-66-27h-46q-39 0-42 87v3q0 72 134 227 121 141 135 145l-111 125q-112 126-113 149 0 21 35 66t55 45q40 0 198-140l157-140q14 5 90 45 94 49 114 55 243 78 356 78 135 0 135-104z"/><glyph glyph-name="y" horiz-adv-x="1231" unicode="y" d="M1193 454q-1-17-45-110t-73-135q-21-15-48-44-16-40-84-174l-4-12v-3q-4-1-21-33-17-11-42-42-6-15-16-80-26 0-38-33t-49-127q-16-42-70-125 3-17 3-48-15-20-41-65 0-9-41-173-17-42-49-123-2-11-35-129-10-35-65-35-53 0-91 39t-37 94q0 38 52 180 7 19 34 108 12 12 31 41 15 69 268 676l-14 13q-149-63-237-63-3 0-49 12-47 13-50 13-2 0-15-5-13-4-17-4-44 0-125 47-66 40-86 62-47 51-63 130 4 5 4 11-2 6-4 10-34 41-34 143 0 105 13 135 36 74 66 74 85 0 111-152 6-34 18-155 55-96 151-96 16 3 80 20 84 23 107 27 113 20 223 91 49 31 186 119 15 21 47 57h100q49-70 49-136z"/><glyph glyph-name="z" horiz-adv-x="1390" unicode="z" d="M1306 179q0-60-82-83-30-3-146-20-141-21-318-39-363-36-469-36-41 0-97 20-3 25-82 85 5 44 33 109 5 9 109 100 92 52 263 161 40 26 111 114-12 29-36 29l-164-16-164-16q-114 0-114 86t79 98q276 42 575 42 9 0 46-21l41-24q24-39 24-64 0-193-440-474 29-27 111-27l490 40q0 2 84 6 21 1 39 1 41 0 63-7 23-13 40-30 4-10 4-34z"/><glyph glyph-name="braceleft" horiz-adv-x="1023" unicode="{" d="M990 1624q0-28-6-46-11-10-39-32-24-19-45-19 1 0 1 1 0 2-67 21-19 2-78 2-99 0-264-50-35-11-35-43 133-189 139-223-2 0-16-75-7-84-84-185-60-80-73-82 10-12 39-38 42-48 42-132 0-17-94-220-93-204-93-227 0-15 13-34 18-89 63-139l75-87q42-20 120-64 16-14 53-29h280q11-19 11-58t-3-46q-25-33-110-71-46-20-118-20-101 0-268 78t-206 145q-44 73-63 127l-22 33q-30 168-30 200 0 105 61 203 78 126 97 201-25 15-156 39-78 15-78 74v6q2 45 6 93 3 38 3 41l25 18q10-8 24-8 47 0 243 122 56 34 56 93 0 24-139 215-4 11-4 67 0 129 42 169 31 29 242 78 20 12 58 28 42 3 281 3 45-1 81-41t36-88z"/><glyph glyph-name="bar" horiz-adv-x="363" unicode="|" d="M268 1649v-13q0-31-5-132-9-187-9-207l7-606q-14-69-19-132-13-196-13-327 0-98 8-160 3-30 3-56 0-40-8-74-24-69-24-95 0-7 1-11-5-7-31-22-41 16-90 79t-53 104l23 396q25 460 25 628v13q0 345 8 639 1 20 29 51 28 29 50 31h3q23 0 57-39 38-43 38-65v-2z"/><glyph glyph-name="braceright" horiz-adv-x="817" unicode="}" d="M907 1492q0-115-149-276-244-264-244-310 0-41 66-54 13 0 81-13 32-17 91-53 13-18 13-39 0-92-33-120-8-5-108-32-74-20-74-74 0-33 53-128 15-28 56-109 68-141 68-294 0-105-44-169-43-64-164-136-74-30-225-94-9-10-26-28-156-29-156-33-122 2-122 128 0 42 31 54 111 42 153 61 85 37 177 92 69 36 113 66 50 48 50 111 0 3-15 31-14 28-14 36 0 5 3 13l-83 195q-68 162-69 203 1 0 21 135 25 49 25 51 0 9-30 45-11 13-33 38-20 45-20 99 0 78 61 161 21 28 140 155 9 18 27 46 85 91 108 117 71 83 85 142-27 36-180 36-4-1-86-9t-87-8q-69 0-83 45-6 61-14 123 26 23 139 43 85 16 118 16 86 0 253-44 26-7 68-43t45-54q14-75 14-122zm-795-1962h3-3z"/><glyph glyph-name="asciitilde" horiz-adv-x="1137" unicode="~" d="M1109 1672q0-31-62-102-5-19-26-51-227-177-374-177-15 0-113 68t-107 68q-40 0-150-82-29-21-78-92-19-27-70-27-20 0-91 42v11q7 21 7 32 0 13-9 18 0 59 2 64 21 37 166 144 159 116 215 116 51 0 156-73l107-73q43 0 378 179 49-12 49-65z"/><glyph glyph-name="nonbreakingspace" horiz-adv-x="1021"/><glyph glyph-name="exclamdown" horiz-adv-x="542" unicode="" d="M437 536q0-6-41-179-38-169-38-199v-3q-38-17-38-139v-6q-3-6-14-16-3-54-38-177-31-111-31-167 0-31 10-56-17-34-56-91-42-10-42-12-15 2-47 37-26 29-58 62 5 2 25 27 19 329 192 991 4 16 30 39 24 23 38 23 11-4 64-21 44-61 44-113zm55 582q7-54 8-62-1 0-12-76l-28-24q-15-14-27-14-40 0-80 38-40 39-40 75l14 30q10 22 10 44 0 8-1 15h84q13 0 72-26zm-448-1528l-1 1v-1h1z"/><glyph glyph-name="cent" horiz-adv-x="880" unicode="" d="M396 623q0 14-10 24-67-21-93-43 16-14 77-32 23 47 26 51zm429 137q-8-9-35-49-22-30-97-30-2 0-7 4-4 3-7 3-58 0-76-33-9-14-17-86 20-16 69-16 2 0 57 6t57 6q39 0 39-57 0-38-4-44l-39-53q-72-46-269-61-36-38-52-113-19-87-37-120 12-21 12-36 0-16-36-44-37-27-54-27-40 0-65 57-17 42-17 71 0 5 23 100t23 96q0 36-101 83-46 21-91 89t-45 113q0 34 59 114 11 15 45 33l26 23q67 27 213 68h6q33 0 88 16 28 28 99 164 7 13 7 23 0 5-2 10 82 92 121 92 6 0 27-8-1-10-1-17 0-20 4-24 27-46 29-51-7-22-48-185 29-7 69-39 27-49 27-78z"/><glyph glyph-name="sterling" horiz-adv-x="1378" unicode="" d="M308 309q-20-10-61-33v-22l13-9q16 3 33 23t17 35q0 4-2 6zm1165 1117q1-39-31-79t-71-47q-155 105-232 105-40 0-89-28t-63-58q-34-71-76-208-38-121-38-142 0-48 56-58 6 0 89-8 40-12 112-43 31-13 31-43 0-3-5-35t-5-37q-13-1-95-29l-82-28-75 3-78 3h-3q-45 0-72-80-11-32-27-91-33-42-33-53t36-43q48-41 54-51 102-140 297-140 33 0 134 37l99 36q51 0 51-61 0-72-41-116-24-25-132-86-63-36-157-36-19 0-115 27-107 30-157 57-41 35-111 88-16 19-56 54-30-21-157-151-73-75-170-75-211 0-211 263 0 95 31 128 159 165 318 165 6 0 36-4l30-3q23 0 49 54 23 47 23 62 0 29-35 33t-108 14q-71 15-95 49-14 20-14 79 0 69 21 92 12 1 51 9 44 9 48 9 6 0 63-3l63-4q73 0 93 2 11 20 73 205 13 38 111 248 24 52 57 83 45 41 168 97 24 11 124 11 56 0 180-53 18-5 79-34 57-26 57-86z"/><glyph glyph-name="yen" horiz-adv-x="1250" unicode="" d="M1352 1444q0-65-29-84-238-159-395-323-14-5-45-21-17-13-79-61-41-33-56-72-21-54-21-189 0-49 66-49h5q23 1 141 5l139 5h13q93 0 93-54 0-67-78-98-211-81-285-81-3 0-21 4t-21 3q-37 0-61-22-1-3-1-6 0-21 31-21 0 1 157 13l155 11q79 0 79-63-7-17-45-78-59-29-137-59-112-13-289-54-16-5-59-105-44-17-72-44h-62q-32 98-32 115-6 12-21 30-34-17-121-17-97 0-179 29-37 94-41 94 20 83 20 87 8 5 20 13l190 5q92 1 174 23v1q0 11-35 20-72 10-329 13-68 52-68 134 0 4 15 34t16 30q1 1 71 7 71 6 80 6h56l74-1h90q95 0 95 90 0 76-33 111-118 123-339 373-39 45-39 94 0 74 39 119 44-6 113-36 32-18 87-69 169-233 218-233l184 120q6 11 16 31 237 195 409 315 14 10 53 10 94 0 94-105z"/><glyph glyph-name="section" horiz-adv-x="995" unicode="" d="M699 799q-1 79-83 135t-196 55q-79 0-94-18-45-53-45-65 0-45 84-72 15-4 106-24 77-24 216-71 12 53 12 60zm265-463q0-119-124-217-124-97-271-97-127 0-250 48-159 61-225 176 3 15 3 45-18 26-22 26h-1q0 59 68 59 28 0 126-43l43-19q35-17 50-24 72-23 111-27 1 0 23-10t28-10q66 0 132 27 86 36 86 92 0 42-66 102-85 79-248 124-32 2-87 13-170 75-204 103-62 48-62 146 0 77 9 100 5 12 31 63 19 36 19 43 0 4-38 79t-38 76q0 98 12 123 56 110 217 174 145 60 322 60 18 0 36-1 58 23 62 23 0-2 49-12 133-146 133-175 0-81-66-81-3 0-96 22-93 23-96 23-151 0-303-54l-46-46q61-42 287-71 48-7 135-47 29-18 101-70 6-9 24-56 24-24 55-72 21-42 21-105 0-74-21-113-2-3-41-39-41-37-41-39 12-10 58-60 105-117 105-259z"/><glyph glyph-name="dieresis" horiz-adv-x="779" unicode="" d="M298 1518q0-40-33-72-32-33-74-33-43 0-77 32-33 32-33 70 0 66 52 109 35-13 89-34 76-30 76-72zm410-43q0-77-71-77-106 0-106 117 0 57 11 84h67q99 0 99-124z"/><glyph glyph-name="copyright" horiz-adv-x="1239" unicode="" d="M973 766q0 71-41 166-24 55-212 55-140 0-277-117 161 23 237 23 14 0 47-23l48-36q1 0 19-78 0-24-46-44-16-7-44-7-4 0-35 4-31 2-32 2-28 0-69-18-56-23-56-56 0-26 59-26 4 0 94 13t93 13q13 0 36-25t23-38q0-152-239-152-110 0-185 49-74 49-74 124 0 210 115 255-8 6-18 9-176-99-176-251 0-100 88-166t220-66q51 0 97 18 69 27 113 38 7 11 25 22 92 18 146 129 44 88 44 183zm202-21q-20-114-20-137-11-247-295-363-41-25-125-57-94-21-152-21-120 0-254 60t-170 132q-31 34-81 105-33 80-33 144 0 76 33 217 20 34 62 99 16 13 43 36 67 86 195 137 105 32 221 71 34 10 136 10 270 0 397-267 43-88 43-166z"/><glyph glyph-name="ordfeminine" horiz-adv-x="666" unicode="" d="M260 1590q-51-13-51-37 0-29 33-29 16 0 39 6 52 14 52 37 0 29-36 29-15 0-37-6zm370-164q0-19-31-38-31-18-61-18h-59q-73 62-109 62-1 0-87-21-86-20-89-20-39 0-114 33-45 19-45 85 0 30 31 91 15 11 38 31 3 8 7 16 25 23 150 72 7 2 38 2 83 0 166-54 10-11 24-37-6-15-14-49 0-1 77-72 78-70 78-83z"/><glyph glyph-name="guillemotleft" horiz-adv-x="1511" unicode="" d="M764 109q0-36-50-94-27 1-69 12-236 101-543 216-19 7-39 50-20 41-20 72 0 74 115 143 44 27 116 98l121 121 119 80q82 55 123 55 43 0 80-33 38-32 38-69l-71-120q-70-17-173-95-36-37-118-117-3-6-3-22 0-32 16-34 73-13 211-106 147-98 147-157zm678-10q0-34-52-93-25 1-67 12-269 115-542 216-19 8-39 49t-20 76q0 70 115 140 46 28 116 100l118 121q39 27 117 79 85 56 128 56 42 1 79-33t37-69l-70-122q-69-17-174-93l-117-116q-3-8-3-24 0-33 17-35 77-13 211-105 146-100 146-159z"/><glyph glyph-name="logicalnot" horiz-adv-x="1794" unicode="" d="M1728 391q0-5-21-83-24-91-31-122-7-7-21-23 0-77-99-288-29-25-71-67-5-8-15-50-23-10-77-33-12 7-36 63-23 53-23 65 0 44 149 464 0 24-32 27-99 8-182 8-43 0-521-10l-521-13h-2q-47 0-96 52-48 53-48 101 0 29 51 54 40 19 58 20 0-2 74-15 44-2 383-2 3 0 80 12 59 9 75 11 7-5 51-14 16-1 34-1 37 0 81 3l130 6q7 0 64-9l54-8q4 0 51 8 46 9 49 9t26-9q22-8 26-8 3 0 40 8 36 9 39 9 21 0 116-12 12-3 41-15 12-5 23-5 12 0 22 6 79-113 79-139z"/><glyph glyph-name="registered" horiz-adv-x="1239" unicode="" d="M637 772q-80-27-80-63 0-18 21-18h8q51 51 51 78v3zm226-227q-31-42-84-42-78 0-180 54-6 6-24 26-6-30-20-95-13-15-46-43-31 21-78 78 2 9 3 22-26 66-26 115 0 7 1 13-8 13-10 15 4 3 13 14-1 10-1 22 0 38 9 93 12 7 80 53 92 64 168 64 84 0 136-78 34-50 34-76-71-112-73-112 0-19 90-63v-9q0-18 8-51zm149 115q0 81-37 145-15 17-36 47-55 155-228 155-81 0-236-57-3 0-13 3t-12 3q-32 0-101-55t-86-91q-30-106-30-158 0-33 9-107 8-21 21-57 164-112 246-112l29 7q2 1 20-5t20-6q3 0 44 9l46 12q140 13 327 181 17 25 17 86zm156-34q0-126-67-204t-259-176q-58-29-155-29-57-7-59-7-45 9-58 9h-1q-10-1-21-1-105 0-266 81-61 30-115 99-54 67-63 125-1 0-30 100 0 56 35 245l23 23q3 15 17 46 50 62 218 146 14 7 42 20 2 1 12-1 6-1 9-2-1 0-1 1 5 4 39 14 193 53 236 53 4-1 18-11 10 1 20 1 146 0 252-142 16-21 67-78 9-17 27-50 0-3 11-44 19-15 68-168 1-3 1-50z"/><glyph glyph-name="macron" horiz-adv-x="1042" unicode="" d="M995 1605v3-3zm0 3q-2-1-12-78-50-14-68-47-7 0-71-9t-66-9q-3 0-54-9t-56-9q-52 0-337 21 0-1-108-3h-10q-159 0-159 143v31q0 18 1 30v1q60 44 95 44 2 0 101-17t106-17q2 0 34 5 32 3 35 3 25 0 145-10 56-6 199-27 118-18 131-18 5 0 28 4t24 4q40 0 42-33z"/><glyph glyph-name="degree" horiz-adv-x="651" unicode="" d="M434 1557q-46 25-73 25-21 0-70-28-31-18-41-58-25-14-31-14-1 0-1 1v-21q34-18 67-18 50 0 65 6 46 22 74 60 11 16 11 34 0 6-1 13zm169-33q0-61-11-74-126-155-224-159-9-6-25-15-25-14-30-14-116 0-189 57-72 56-72 148 0 156 116 237 41 10 116 21 7 6 21 15 74 9 77 9 40 0 97-28 58-29 72-55t41-82q11-22 11-60z"/><glyph glyph-name="plusminus" horiz-adv-x="863" unicode="" d="M642 153q0-36-95-71-175-66-284-66h-103q-97 0-97 126 0 39 22 79 82 26 124 28 0-1 28-2 41-2 93-4 43-1 176-1 4 1 10 1 21 0 67-25 59-32 59-65zm196 588q0-15-17-45t-28-36q-105-55-194-55-4 0-12 4t-11 4q-60 0-81-32-10-37-24-103-17-38-55-115h-80q-31 51-37 100 0 15-6 87-27 22-98 25-110 4-110 111 0 30 52 59 54 29 109 29 2 0 20-4t22-4q10 0 78 108t85 109q32 0 76-53 8-125 53-125 3 0 85 9 80 8 84 8 29 0 59-29t30-52z"/><glyph glyph-name="acute" horiz-adv-x="686" unicode="" d="M647 1698q0-47-210-168-25-9-76-29-201-122-246-122-79 0-79 71 0 2 5 30 4 26 4 29 90 40 249 105 23 17 43 27 207 98 246 98 17 0 41-14t23-27z"/><glyph glyph-name="mu" horiz-adv-x="2632" unicode="" d="M2407 1271q0 51-32 89-33 36-82 36-1 0-59-14t-65-15q-89-10-225-112-50-36-102-154t-52-192q0-36 14-44 143 33 338 136 265 142 265 270zm160-16q0-177-274-354-106-69-342-147l-118-39q-62-29-62-92 0-31 14-75 16-54 38-54l44 8q41 7 50 7h2q9 0 467-34 59-47 59-86 0-16-21-31-23-17-45-17-4 0-21 4-14 2-19 2 0-2-67-21-164 0-210-4-110-11-170-52 1-7 27-110 20-84 21-93 0-12-62-66-13 33-60 33-23 0-31-7-7 6-69 115-46 78-99 118-44-32-87-32-13-4-66-18-24-6-44-6-82 0-82 111 0 26 8 63 12 54 35 72 28 8 120 10 70 3 91 30-14 47-45 141h-24q-125-35-496-119-41-1-111-13-173-59-173-101l41-62q33-112 33-157 0-89-71-89-17 0-53 30t-50 59q-13 28-36 91-16 20-40 57 0 28-14 79-87 29-87 31-12 0-149-12l-149-13q-10 0-97 28 0 10-15 60l-16 50q0 46 52 54 166 27 233 27 3 0 25-4 23-4 26-4 46 0 86 21 1 20 1 36 0 31-5 43-34 91-34 234 0 132 21 275 5 37 57 161 27 39 55 103 93 100 178 138 42 10 122 31 100 39 208 39 154 0 290-70 105-53 168-128 78-94 78-144v-67q-20-19-41-19-11 0-125 85-159 117-200 131l-204 18q-8 0-25-9l-25-15q-360-67-360-552 0-287 74-287 4 1 83 21t80 20q4 0 20-5t18-5q31 0 381 63 122 4 141 7 99 15 143 68 20 138 52 272 52 216 227 354 60 46 233 109 131 48 169 48 172 0 233-83 14-18 44-107 28-83 31-83-2-15-14-22 29-10 29-49z"/><glyph glyph-name="paragraph" horiz-adv-x="1174" unicode="" d="M711 1121q0 12-20 83h-36q-41 0-117-41 0-13-34-103-33-85-33-151 0-32 77-32 104 8 115 8 30 14 30 45v51q1 4 11 84zm367-370q-7-135-15-538-3-193-16-212-35-19-70-19-55 0-56 48-1 64-1 140 0 196 9 472l13 374q1 39 1 71 0 88-10 130-7 27-49 27-19 0-32-15l5-43v-154q0 2-1 2-2 0-18-69 0-59-4-108-14-197-59-715-27-31-72-31-44 0-50 212 2 44 2 303 0 3 3 62t3 68l-12 10-25-16q-187-20-248-20-125 0-214 59t-89 145q-1 124 61 193t252 155q22 12 132 46t119 34q3 0 26-5 24-6 26-6 2 3 25 15 117 30 170 30 35 0 107-8 11-5 53-33 0-7 3-22 17-14 37-39 4-51 4-178v-37q0-142-4-219z"/><glyph glyph-name="cedilla" horiz-adv-x="735" unicode="" d="M735-297q0-8-44-91-36-69-121-93-10-3-146-30-140-28-140-31-23 4-28 4-2 0-92-14t-94-13q-26 0-47 24t-21 51q0 89 109 115 63 2 181 10 27 6 78 18 105 15 157 50-59 37-90 37-4 0-56-5l-55-5q-59 0-94 40-6 18-27 53 7 1 10 29 4 38 7 47 2 7 5 13l27 58q6 34 37 95 8 5 74 20 52-49 59-132-5-13-5-43 5 1 12 1 16 0 40-4 116-37 157-60 86-46 90-110 17-15 17-34z"/><glyph glyph-name="ordmasculine" horiz-adv-x="731" unicode="" d="M458 1528q-53 48-122 48-27 0-42-13v-23q36-33 89-33 0 2 75 21zm201 11q0-47-35-93-34-46-79-58-48-28-50-28-3 0-57-7t-57-7q-64 0-152 34-27 12-82 49-11 24-42 62-4 25-32 61 7 33 31 92 25 33 157 77 14-2 41-2 50 9 50 10t-2 1q55 0 173-53 7-10 22-21 25 0 48-18 66-52 66-99z"/><glyph glyph-name="guillemotright" horiz-adv-x="1437" unicode="" d="M718 333q0-32-20-73-20-43-39-50-296-109-544-216-23 0-69-10-47 56-47 92 0 59 146 158 136 92 212 107 13 1 13 34 0 14-2 21-41 49-118 116-85 77-172 94l-70 121q0 36 36 69t78 33q55 0 125-55 47-29 120-78 78-87 237-220 114-70 114-143zm675 9q0-34-20-75-19-41-39-49-264-97-540-217-25 0-69-10-52 58-52 92 0 61 147 160 135 91 212 104 17 3 17 36 0 15-3 21-41 46-117 117-105 78-174 93l-72 122q0 37 38 70 36 32 80 32 54 0 125-55 47-29 120-78 77-86 232-221 115-70 115-142z"/><glyph glyph-name="questiondown" horiz-adv-x="1212" unicode="" d="M1157-219q-11-17-21-66-58-45-111-65-114-44-183-44h-254q-401 0-566 175l-8 72q-5 64-6 64 0 11 14 32-3 9-3 21 0 29 21 67 93 171 345 259 65 22 420 102 13 2 32 19 16 41 37 121 2 93 24 273 9 29 31 90 4 10 4 23 0 18-7 41l27 27q138 0 138-130-12-37-24-93-6-155-49-394 1-6 1-12 0-47-25-127-23-42-80-42-3 0-13 4t-13 3q-10-1-63-15-46-3-138-18-112-36-253-82-39-21-116-68-105-68-105-117 0-95 304-95 19-2 69-5 41-2 58-2 8 0 11 1l395 23h3q38 0 104-42zm38 1541q1-34-43-78t-79-43q-29 1-71 35t-42 59q0 2 15 41 16 38 16 42 23 25 41 25 17 0 104-20 59-12 59-61z"/><glyph glyph-name="Agrave" d="M1091 1368q0-31-27-74-241 62-568 235-9 5-9 66 0 67 37 67 21 0 98-34l233-104q69-32 208-100 28-36 28-56zm-129-905q-2 9-17 42l-21 40q-23 108-58 283-3 5-10 11 0 29-4 75-13 69-14 70-15 51-47 77-31-42-79-152-5-23-29-49l-40-43q-35-69-98-173-12-10-30-29-5-15-48-100 5-4 131-22 90-5 261-28 48-21 68-21h28q7 14 7 19zm261-196q0-61-73-61h-63q-6 0-47 27-46 31-56 35-91 38-186 57-217 43-347 43-14 0-27-12l-15 12q-65-4-118-114-22-24-56-69-3-17-11-42-8-16-28-50-33-27-94-79-27 18-54 34-29 23-29 56 0 51 8 64 28 31 56 61 39 47 62 93 1 1 2 5 0-2-1-2-2 0-12 53-2 7-2 13 0 22 17 34 29 14 59 27 55 25 70 47 3 4 64 105 18 15 50 51 77 130 227 364 3 16 10 41l104 172q0 12 4 35l53 75q21 6 21 8v1q67 0 106-119 4-11 40-121 27-81 50-167 25-161 53-284 24-100 99-277 9-14 37-59 27-41 27-57z" unicode=""/><glyph glyph-name="Aacute" d="M1049 1601q0-46-201-160-23-9-71-27-191-117-233-117-76 0-76 68 0 1 4 27t5 29q86 38 237 99 20 17 40 26 196 93 234 93 16 1 38-13t23-25zm-87-1138q-2 9-17 42l-21 40q-23 108-58 283-3 5-10 11 0 29-4 75-13 69-14 70-15 51-47 77-31-42-79-152-5-23-29-49l-40-43q-35-69-98-173-12-10-30-29-5-15-48-100 5-4 131-22 90-5 261-28 48-21 68-21h28q7 14 7 19zm261-196q0-61-73-61h-63q-6 0-47 27-46 31-56 35-91 38-186 57-217 43-347 43-14 0-27-12l-15 12q-65-4-118-114-22-24-56-69-3-17-11-42-8-16-28-50-33-27-94-79-27 18-54 34-29 23-29 56 0 51 8 64 28 31 56 61 39 47 62 93 1 1 2 5 0-2-1-2-2 0-12 53-2 7-2 13 0 22 17 34 29 14 59 27 55 25 70 47 3 4 64 105 18 15 50 51 77 130 227 364 3 16 10 41l104 172q0 12 4 35l53 75q21 6 21 8v1q67 0 106-119 4-11 40-121 27-81 50-167 25-161 53-284 24-100 99-277 9-14 37-59 27-41 27-57z" unicode=""/><glyph glyph-name="Acircumflex" d="M1211 1298q0-52-64-52-3 0-31 6t-31 5q-9-1-141 99t-140 100q-31 0-52-22-7-11-27-34-76-60-134-100-18-13-83-13-53 0-75 41-13 38-24 75 64 15 173 105l170 139h5q33 0 103-32 74-36 98-65 58-38 153-108 100-76 100-144zm-249-835q-2 9-17 42l-21 40q-23 108-58 283-3 5-10 11 0 29-4 75-13 69-14 70-15 51-47 77-31-42-79-152-5-23-29-49l-40-43q-35-69-98-173-12-10-30-29-5-15-48-100 5-4 131-22 90-5 261-28 48-21 68-21h28q7 14 7 19zm261-196q0-61-73-61h-63q-6 0-47 27-46 31-56 35-91 38-186 57-217 43-347 43-14 0-27-12l-15 12q-65-4-118-114-22-24-56-69-3-17-11-42-8-16-28-50-33-27-94-79-27 18-54 34-29 23-29 56 0 51 8 64 28 31 56 61 39 47 62 93 1 1 2 5 0-2-1-2-2 0-12 53-2 7-2 13 0 22 17 34 29 14 59 27 55 25 70 47 3 4 64 105 18 15 50 51 77 130 227 364 3 16 10 41l104 172q0 12 4 35l53 75q21 6 21 8v1q67 0 106-119 4-11 40-121 27-81 50-167 25-161 53-284 24-100 99-277 9-14 37-59 27-41 27-57z" unicode=""/><glyph glyph-name="Atilde" d="M1329 1601q0-16-37-39 0-15-3-42-221-171-332-171-37 0-165 81-114 72-114 81-30-5-131-92l-107-93q-3 0-26 5-25 3-26 3-28 66-28 97 0 5 30 31 37 53 180 160 5 2 18 3 40 27 75 27 89 0 172-74 95-84 127-84t193 77q147 71 147 76 7 0 27-6v-40zm-367-1138q-2 9-17 42l-21 40q-23 108-58 283-3 5-10 11 0 29-4 75-13 69-14 70-15 51-47 77-31-42-79-152-5-23-29-49l-40-43q-35-69-98-173-12-10-30-29-5-15-48-100 5-4 131-22 90-5 261-28 48-21 68-21h28q7 14 7 19zm261-196q0-61-73-61h-63q-6 0-47 27-46 31-56 35-91 38-186 57-217 43-347 43-14 0-27-12l-15 12q-65-4-118-114-22-24-56-69-3-17-11-42-8-16-28-50-33-27-94-79-27 18-54 34-29 23-29 56 0 51 8 64 28 31 56 61 39 47 62 93 1 1 2 5 0-2-1-2-2 0-12 53-2 7-2 13 0 22 17 34 29 14 59 27 55 25 70 47 3 4 64 105 18 15 50 51 77 130 227 364 3 16 10 41l104 172q0 12 4 35l53 75q21 6 21 8v1q67 0 106-119 4-11 40-121 27-81 50-167 25-161 53-284 24-100 99-277 9-14 37-59 27-41 27-57z" unicode=""/><glyph glyph-name="Adieresis" d="M671 1514q-1-40-31-70t-70-30q-41 0-72 30-33 30-33 67 0 62 49 103 34-12 85-32 72-30 72-68zm390-42q0-72-67-72-101 0-101 111 0 54 10 80h65q93 0 93-119zm-99-1009q-2 9-17 42l-21 40q-23 108-58 283-3 5-10 11 0 29-4 75-13 69-14 70-15 51-47 77-31-42-79-152-5-23-29-49l-40-43q-35-69-98-173-12-10-30-29-5-15-48-100 5-4 131-22 90-5 261-28 48-21 68-21h28q7 14 7 19zm261-196q0-61-73-61h-63q-6 0-47 27-46 31-56 35-91 38-186 57-217 43-347 43-14 0-27-12l-15 12q-65-4-118-114-22-24-56-69-3-17-11-42-8-16-28-50-33-27-94-79-27 18-54 34-29 23-29 56 0 51 8 64 28 31 56 61 39 47 62 93 1 1 2 5 0-2-1-2-2 0-12 53-2 7-2 13 0 22 17 34 29 14 59 27 55 25 70 47 3 4 64 105 18 15 50 51 77 130 227 364 3 16 10 41l104 172q0 12 4 35l53 75q21 6 21 8v1q67 0 106-119 4-11 40-121 27-81 50-167 25-161 53-284 24-100 99-277 9-14 37-59 27-41 27-57z" unicode=""/><glyph glyph-name="Aring" d="M911 1516q0 37-136 51-22-1-36-1-4-4-20-11-44-41-44-62v-19q11-7 36-22 11-6 46-6 40 0 85 13 69 20 69 57zm112-2q0-32-12-70-8-24-53-61-28-13-74-31-17-7-35-12 41-25 68-108 4-11 40-121 27-81 50-167 25-161 53-284 24-100 99-277 9-14 37-59 27-41 27-57 0-61-73-61h-63q-6 0-47 27-46 31-56 35-91 38-186 57-217 43-347 43-14 0-27-12l-15 12q-65-4-118-114-22-24-56-69-3-17-11-42-8-16-28-50-33-27-94-79-27 18-54 34-29 23-29 56 0 51 8 64 28 31 56 61 39 47 62 93 1 1 2 5 0-2-1-2-2 0-12 53-2 7-2 13 0 22 17 34 29 14 59 27 55 25 70 47 3 4 64 105 18 15 50 51 77 130 227 364 3 16 10 41l104 172q0 12 4 35l43 61q-8-1-17-1-58 0-125 35-77 41-77 96 9 66 9 93v11q0 32 80 85 53 34 154 34 36 0 100-19 25-8 87-50 32-87 32-98zm-61-1051q-2 9-17 42l-21 40q-23 108-58 283-3 5-10 11 0 29-4 75-13 69-14 70-15 51-47 77-31-42-79-152-5-23-29-49l-40-43q-35-69-98-173-12-10-30-29-5-15-48-100 5-4 131-22 90-5 261-28 48-21 68-21h28q7 14 7 19z" unicode=""/><glyph glyph-name="AE" horiz-adv-x="1982" unicode="" d="M1082 688q0 10-4 39l-5 27v203q0 47-31 101-40-30-190-204t-151-189v-34h153q6 3 48 13 76 8 180 44zm841 29q0-42-58-60-169-51-393-113-76-14-191-56-10-99-10-126 0-108 55-119l465 72q11 8 21 8 24 1 53-23t29-40q0-77-280-159-235-67-331-67-189 0-189 169 0 39 11 93-6 46-25 144-10 14-26 14-8 0-184-20l-184-20q-13 0-67 3l-69 5q-31 0-79-57-24-18-59-54-20-29-119-169-99-139-140-139h-69q-38 82-38 103 0 38 39 86 55 68 69 98 40 80 103 150 36 37 131 148 76 98 305 380 62 70 246 275 47 65 155 224 24 35 56 40 110 19 282 33 23 2 296 2 177 0 177-67 0-88-210-105-61-4-233-16-179-15-249-74 13-64 34-128-2-6-13-16 5-34 17-176l11-123q11-126 40-126 15 0 166 27l29 19q47 6 173 26 111 18 121 18 132 0 132-84z"/><glyph glyph-name="Ccedilla" horiz-adv-x="1885" unicode="" d="M1281-301q0-8-42-87-35-65-115-88-9-3-138-29-134-27-134-29-21 4-25 4-2 0-88-13t-89-13q-26 0-46 22t-20 49q0 84 104 109 60 2 172 9 26 7 75 18 99 15 148 48-55 35-85 35-4 0-53-5l-53-5q-56 0-88 38-7 17-27 50 6 2 9 28 5 36 7 44t5 13l26 56q3 21 19 56-81 1-188 25-59 13-191 40-52 9-52 43v2q-87 34-126 63-139 104-232 258 0 28-4 78-12 45-15 47-1 0-1-5 0 63 56 190 24 57 144 167 159 147 290 207 426 195 668 244 19 9 71 24l301 45q2 0 48 14t50 14q52 0 95-35 43-34 43-75 0-26-22-63-18-14-53-32-76-1-228-21-53-18-108-33-78-18-262-62-192-47-571-258-59-33-115-67-106-65-167-203-10-23-10-104 0-92 111-170 98-69 215-91 10-2 75-18t69-16l54 4q54 3 77 3 10 0 63-7l55-9 86 13q79 11 106 13l780 51h5q33 0 41-31 0-5 4-66-15-12-48-31-344-100-480-100-2 0-29 6t-30 6q-2 0-35-13-35-14-40-14-65-1-264-13-35-12-46-12-3-1-18 7t-18 8q-5 0-33-10-1-1-3-1 21-37 25-86-5-11-5-39h9q15 0 40-3 110-36 150-57 80-44 85-105 16-25 16-32z"/><glyph glyph-name="Egrave" horiz-adv-x="1435" unicode="" d="M1071 1284q0-32-26-74-241 62-567 235-10 5-10 66 0 67 37 67 20 0 97-34l233-105q69-31 209-99 27-36 27-56zm481-166q-46-22-75-22 5 0 5-1-7-4-45-12-5 3-61 3-19-7-43-14-63-4-171-20l-217-33q-2-1-14 3-11 3-15 4 0-3-444-76-62-76-85-269 27-15 68-15 3 0 23 6t21 6q2 0 35-10 116 0 377 9l239 6h5q29 0 33-15 5-28 12-58-40-29-168-60-110-27-307-27-129 0-370-33-27-4-34-36l-9-40q-53-135-53-179v-35q10-3 24-6l591 80q18 0 105 6l12 1 88 7q8 0 25-12 15-2 114-2 0 1 86 14 46 0 101-23 14-49 17-49 1 0 1 3 1-25-31-51t-59-25q-1 0-19 4-17 3-21 3-2 0-36-10-36-12-38-13l-323-28q-107-9-384-53l-243-38q-15 0-111 22-90 21-111 21h-2l-10 30q5 20 34 105 37 110 50 154l39 141q-4 0-34 50-1 19-17 56 40 24 99 76 11 15 57 180 0-1-2-1-1 5-1 38l10 12q11 11 11 19 0 14-32 31-29 15-50 15h-4q-16 56-16 78 0 39 45 56 93 33 231 33l18-5q2 0 46 15 188 10 495 28l307 18h2q21 0 126-42 8-2 57-2 29-2 46-18zm-115-35h-3 3z"/><glyph glyph-name="Eacute" horiz-adv-x="1435" unicode="" d="M1094 1491q0-46-201-160-23-9-71-28-190-116-233-116-75 0-75 68 0 1 4 27t5 29q86 38 236 99 21 16 40 26 197 93 234 93 17 1 39-13t22-25zm458-373q-46-22-75-22 5 0 5-1-7-4-45-12-5 3-61 3-19-7-43-14-63-4-171-20l-217-33q-2-1-14 3-11 3-15 4 0-3-444-76-62-76-85-269 27-15 68-15 3 0 23 6t21 6q2 0 35-10 116 0 377 9l239 6h5q29 0 33-15 5-28 12-58-40-29-168-60-110-27-307-27-129 0-370-33-27-4-34-36l-9-40q-53-135-53-179v-35q10-3 24-6l591 80q18 0 105 6l12 1 88 7q8 0 25-12 15-2 114-2 0 1 86 14 46 0 101-23 14-49 17-49 1 0 1 3 1-25-31-51t-59-25q-1 0-19 4-17 3-21 3-2 0-36-10-36-12-38-13l-323-28q-107-9-384-53l-243-38q-15 0-111 22-90 21-111 21h-2l-10 30q5 20 34 105 37 110 50 154l39 141q-4 0-34 50-1 19-17 56 40 24 99 76 11 15 57 180 0-1-2-1-1 5-1 38l10 12q11 11 11 19 0 14-32 31-29 15-50 15h-4q-16 56-16 78 0 39 45 56 93 33 231 33l18-5q2 0 46 15 188 10 495 28l307 18h2q21 0 126-42 8-2 57-2 29-2 46-18zm-115-35h-3 3z"/><glyph glyph-name="Ecircumflex" horiz-adv-x="1435" unicode="" d="M1198 1253q0-52-64-52-3 0-31 5-29 6-31 6-9 0-140 99-132 100-141 100-31 0-52-23-7-10-27-33-76-60-134-100-18-13-83-13-53 0-75 41-12 38-23 74 63 16 173 105l169 140h5q33 0 103-32 74-36 98-65 58-38 153-109 100-76 100-143zm354-135q-46-22-75-22 5 0 5-1-7-4-45-12-5 3-61 3-19-7-43-14-63-4-171-20l-217-33q-2-1-14 3-11 3-15 4 0-3-444-76-62-76-85-269 27-15 68-15 3 0 23 6t21 6q2 0 35-10 116 0 377 9l239 6h5q29 0 33-15 5-28 12-58-40-29-168-60-110-27-307-27-129 0-370-33-27-4-34-36l-9-40q-53-135-53-179v-35q10-3 24-6l591 80q18 0 105 6l12 1 88 7q8 0 25-12 15-2 114-2 0 1 86 14 46 0 101-23 14-49 17-49 1 0 1 3 1-25-31-51t-59-25q-1 0-19 4-17 3-21 3-2 0-36-10-36-12-38-13l-323-28q-107-9-384-53l-243-38q-15 0-111 22-90 21-111 21h-2l-10 30q5 20 34 105 37 110 50 154l39 141q-4 0-34 50-1 19-17 56 40 24 99 76 11 15 57 180 0-1-2-1-1 5-1 38l10 12q11 11 11 19 0 14-32 31-29 15-50 15h-4q-16 56-16 78 0 39 45 56 93 33 231 33l18-5q2 0 46 15 188 10 495 28l307 18h2q21 0 126-42 8-2 57-2 29-2 46-18zm-115-35h-3 3z"/><glyph glyph-name="Edieresis" horiz-adv-x="1435" unicode="" d="M697 1384q0-38-30-68-31-32-71-32-41 0-72 31-33 29-33 66 0 63 49 103 34-11 85-32 72-29 72-68zm390-42q0-72-67-72-101 0-101 111 0 54 10 79h64q94 0 94-118zm465-224q-46-22-75-22 5 0 5-1-7-4-45-12-5 3-61 3-19-7-43-14-63-4-171-20l-217-33q-2-1-14 3-11 3-15 4 0-3-444-76-62-76-86-269 28-15 69-15 3 0 23 6t21 6q2 0 35-10 116 0 377 9l239 6h5q29 0 33-15 5-28 12-58-40-29-168-60-110-27-307-27-129 0-370-33-27-4-34-36l-10-40q-53-135-53-179v-35q11-3 25-6l591 80q18 0 105 6l12 1 88 7q8 0 25-12 15-2 114-2 0 1 86 14 46 0 101-23 14-49 17-49 1 0 1 3 1-25-31-51t-59-25q-1 0-19 4-17 3-21 3-2 0-36-10-36-12-38-13l-323-28q-107-9-384-53l-243-38q-15 0-111 22-90 21-111 21h-3q-9 27-9 30 5 20 33 105 38 110 50 154l39 141q-5 3-33 50-2 19-18 56 41 24 99 76 11 15 56 179-1 5-1 38l10 12q10 11 10 19 0 14-32 31-29 15-50 15h-4q-16 56-16 78 0 39 46 56 93 33 231 33l18-5q2 0 46 15 188 10 495 28l307 18h2q21 0 126-42 8-2 57-2 29-2 46-18zm-115-35h-3 3z"/><glyph glyph-name="Igrave" horiz-adv-x="634" unicode="" d="M644 1251q0-32-27-74-241 62-567 235-9 5-9 66 0 66 37 66 20 0 97-33l233-105q69-31 208-100 28-36 28-55zm-216-209q0-14-35-181-37-179-61-255-1-10-21-125-31-178-84-428-9-7-37-27-15 11-37 34-16 28-16 173 0 608 123 820 65 114 107 114 61 0 61-125z"/><glyph glyph-name="Iacute" horiz-adv-x="595" unicode="" d="M608 1503q0-45-200-159-23-9-71-28-191-116-234-116-76 0-76 68 1 2 5 28t4 28q86 38 237 99 21 16 41 26 196 93 233 93 17 0 39-14t22-25zm-221-461q0-14-35-181-37-179-61-255-2-10-21-125-31-178-83-428-10-7-37-27-15 11-38 34-16 28-16 173 0 608 123 820 65 114 107 114 61 0 61-125z"/><glyph glyph-name="Icircumflex" horiz-adv-x="822" unicode="" d="M841 1240q0-52-63-52-3 0-31 5-29 6-31 6-10 0-141 99-131 100-140 100-31 0-52-23-7-10-27-33-76-60-134-100-18-13-83-13-53 0-75 41-13 38-24 74 64 16 173 105l170 140h5q33 0 103-32 74-36 98-65 58-38 152-109 100-76 100-143zm-342-198q0-14-35-181-37-179-61-255-2-10-21-125-32-178-83-428-11-7-38-27-15 11-37 34-16 28-16 173 0 608 122 820 66 114 108 114 61 0 61-125z"/><glyph glyph-name="Idieresis" horiz-adv-x="627" unicode="" d="M244 1306q0-38-31-68t-71-31q-40 0-72 30t-32 66q0 63 49 103 34-11 85-31 72-30 72-69zm389-41q0-72-67-72-100 0-100 110 0 54 9 80h65q93 0 93-118zm-205-223q0-14-35-181-37-179-61-255-1-10-21-125-31-178-84-428-9-7-37-27-15 11-37 34-16 28-16 173 0 608 123 820 65 114 107 114 61 0 61-125z"/><glyph glyph-name="Ntilde" horiz-adv-x="1247" unicode="" d="M1523 1569q0-16-37-40 0-14-3-41-221-172-332-172-37 0-165 82-113 72-113 80 0 1 2 1-27 0-133-92l-108-93q-2 0-26 4t-26 4q-27 65-27 96 2 6 15 18l15 14q37 53 180 160 4 1 18 3 39 27 74 27 89 0 172-74 95-84 128-84 31 0 192 77 147 70 147 75v1q6-1 27-7v-39zm-51-360q0-18-54-144v-4q0-22-6-58l-29-88q-26-54-67-147-13-30-42-137-5-35-19-100l-85-184q-49-107-59-182-26-68-26-79 0-13 6-21-13-4-62-26-40-18-46-18-14 1-45 19t-40 32q-48 78-176 391-8 43-36 130-12 18-31 63-2 41-12 80-17 67-96 227-36-13-67-90-23-56-82-199-46-76-132-237-23-59-76-179-24-21-48-56-11-2-21-2-29 0-61 35t-32 65l252 509q1 2 126 240 10 26 40 99 30 69 81 69 33 0 64-31 42-41 59-77 61-135 115-290 5-15 48-181 6-8 16-23 31-99 45-136 32-86 77-161 24 26 70 119 66 132 125 269 24 95 91 284 14 17 37 46 1 16 6 41 11 21 36 65 20 13 46 43 11 30 37 68 5 2 20 2 53 0 53-46z"/><glyph glyph-name="Ograve" horiz-adv-x="1555" unicode="" d="M1152 1332q0-31-26-74-242 62-568 235-10 5-10 66 0 67 38 67 20 0 97-34l233-104q69-32 208-100 28-36 28-56zm450-600q0 64-61 146-35 47-169 103t-210 56q-2 1-29-3t-30-4l-101 20q-4 0-29-10-27-10-28-10l-78-5-77-6q-4 0-20 6-18 5-20 5-11-4-59-29-42-10-153-36-111-28-162-72 0-1 7-30 0-17-65-60-56-24-112-106t-57-143l11-7q-2-16-2-32 0-177 179-283 159-94 370-94 212 0 527 166 355 187 355 377 1 3 7 25t6 26zm123-128l-49-80q2-5 7-12-3 0-33-75-11-9-24-25-81-131-420-303-76-39-244-86-190-54-276-54-49 0-187 47-298 101-397 247-83 122-83 302 0 3 10 35t11 37q5 53 10 87 28 41 61 95 28 45 162 184 5 6 45 18 10 8 34 26 8 4 159 54 36 13 80 26 305 46 461 46 320 0 526-145 136-96 136-310 0-43-8-94 19-8 19-20z"/><glyph glyph-name="Oacute" horiz-adv-x="1555" unicode="" d="M1142 1501q0-45-200-159-23-9-72-28-190-116-233-116-76 0-76 68 0 2 5 27 4 26 4 28 85 39 237 100 21 16 40 26 197 93 234 93 17 0 39-13t22-26zm460-769q0 64-61 146-35 47-169 103t-210 56q-2 1-29-3t-30-4l-101 20q-4 0-29-10-27-10-28-10l-78-5-77-6q-4 0-20 6-18 5-20 5-11-4-59-29-42-10-153-36-111-28-162-72 0-1 7-30 0-17-65-60-56-24-112-106t-57-143l11-7q-2-16-2-32 0-177 179-283 159-94 370-94 212 0 527 166 355 187 355 377 1 3 7 25t6 26zm123-128l-49-80q2-5 7-12-3 0-33-75-11-9-24-25-81-131-420-303-76-39-244-86-190-54-276-54-49 0-187 47-298 101-397 247-83 122-83 302 0 3 10 35t11 37q5 53 10 87 28 41 61 95 28 45 162 184 5 6 45 18 10 8 34 26 8 4 159 54 36 13 80 26 305 46 461 46 320 0 526-145 136-96 136-310 0-43-8-94 19-8 19-20z"/><glyph glyph-name="Ocircumflex" horiz-adv-x="1555" unicode="" d="M1205 1279q0-15-7-35-2-8-36-8-51 0-87 13-159 163-179 163-1 0-110-96-111-97-127-97-44 0-55 28 2 8 2 54-10 24-10 29 0 18 41 49 30 19 49 33 9 7 98 114 63 77 109 77 17-10 63-48l75-62q3-10 10-24 71-54 128-121 36-42 36-69zm397-547q0 64-61 146-35 47-169 103t-210 56q-2 1-29-3t-30-4l-101 20q-4 0-29-10-27-10-28-10l-78-5-77-6q-4 0-20 6-18 5-20 5-11-4-59-29-42-10-153-36-111-28-162-72 0-1 7-30 0-17-65-60-56-24-112-106t-57-143l11-7q-2-16-2-32 0-177 179-283 159-94 370-94 212 0 527 166 355 187 355 377 1 3 7 25t6 26zm123-128l-49-80q2-5 7-12-3 0-33-75-11-9-24-25-81-131-420-303-76-39-244-86-190-54-276-54-49 0-187 47-298 101-397 247-83 122-83 302 0 3 10 35t11 37q5 53 10 87 28 41 61 95 28 45 162 184 5 6 45 18 10 8 34 26 8 4 159 54 36 13 80 26 305 46 461 46 320 0 526-145 136-96 136-310 0-43-8-94 19-8 19-20z"/><glyph glyph-name="Otilde" horiz-adv-x="1555" unicode="" d="M1420 1516q0-17-37-40 0-14-3-42-221-171-332-171-37 0-165 81-113 72-113 81 0 1 2 1-27 0-133-92l-107-93q-3 0-27 4t-26 4q-27 65-27 96 2 6 14 17l15 14q38 53 181 161 4 1 18 2 39 28 74 28 89 0 173-74 94-85 127-85 32 0 192 77 147 71 147 76v1q6-1 27-7v-39zm182-784q0 64-61 146-35 47-169 103t-210 56q-2 1-29-3t-30-4l-101 20q-4 0-29-10-27-10-28-10l-78-5-77-6q-4 0-20 6-18 5-20 5-11-4-59-29-42-10-153-36-111-28-162-72 0-1 7-30 0-17-65-60-56-24-112-106t-57-143l11-7q-2-16-2-32 0-177 179-283 159-94 370-94 212 0 527 166 355 187 355 377 1 3 7 25t6 26zm123-128l-49-80q2-5 7-12-3 0-33-75-11-9-24-25-81-131-420-303-76-39-244-86-190-54-276-54-49 0-187 47-298 101-397 247-83 122-83 302 0 3 10 35t11 37q5 53 10 87 28 41 61 95 28 45 162 184 5 6 45 18 10 8 34 26 8 4 159 54 36 13 80 26 305 46 461 46 320 0 526-145 136-96 136-310 0-43-8-94 19-8 19-20z"/><glyph glyph-name="Odieresis" horiz-adv-x="1555" unicode="" d="M731 1343q-1-39-31-69t-71-30q-40 0-72 30t-32 67q0 62 49 103 34-12 85-33 72-28 72-68zm390-41q0-72-67-72-101 0-101 111 0 53 9 79h65q94 0 94-118zm481-570q0 64-61 146-35 47-169 103t-210 56q-2 1-29-3t-30-4l-101 20q-4 0-29-10-27-10-28-10l-78-5-77-6q-4 0-20 6-18 5-20 5-11-4-59-29-42-10-153-36-111-28-162-72 0-1 7-30 0-17-65-60-56-24-112-106t-57-143l11-7q-2-16-2-32 0-177 179-283 159-94 370-94 212 0 527 166 355 187 355 377 1 3 7 25t6 26zm123-128l-49-80q2-5 7-12-3 0-33-75-11-9-24-25-81-131-420-303-76-39-244-86-190-54-276-54-49 0-187 47-298 101-397 247-83 122-83 302 0 3 10 35t11 37q5 53 10 87 28 41 61 95 28 45 162 184 5 6 45 18 10 8 34 26 8 4 159 54 36 13 80 26 305 46 461 46 320 0 526-145 136-96 136-310 0-43-8-94 19-8 19-20z"/><glyph glyph-name="Oslash" horiz-adv-x="1541" unicode="" d="M1044 1062q0 8-21 27h-84q-86 0-208-36-9 4-19 4t-21-4q-90-31-234-97-102-62-168-160t-66-183q0-12 41-77 49-76 83-76 5 0 300 252 54 45 208 174 189 157 189 176zm263-291q0 135-70 166-182-159-491-411-140-114-140-127v-26q73-26 143-26 146 0 303 68 127 55 174 112 81 99 81 244zm260 499q0-39-42-82-17-18-83-70-42-34-50-48 8-4 55-125 56-148 56-248 0-106-79-290-34-48-149-129-1 0-139-54-44-18-159-64-84-31-166-31-164 0-250 18-129 27-129 31-85-4-186-157-28-43-72-43-28 0-60 37t-33 67q0 39 113 214 0 8-55 72-62 74-82 110-22 40-22 159 0 328 398 561 32 6 90 21 132 57 237 57 2 0 40-4t42-5q74 16 80 16 2 1 34-7t35-8q97 0 125-4 4-1 56-24t54-23q224 163 254 163 87 0 87-110z"/><glyph glyph-name="Ugrave" horiz-adv-x="1494" unicode="" d="M1097 1226q0-32-27-74-241 62-566 235-10 5-10 65 0 68 37 68 20 0 97-35l233-104q69-31 209-100 27-35 27-55zm519-180q0-3-8-19-7-18-7-19 0-70 3-72 2 1 3 3-14-60-59-162-53-121-65-161-8-9-23-24-5-37-20-61-45-52-131-156-40-33-117-89-3-5-11-30-35-21-136-83-87-55-159-76-9-14-35-32-91-40-160-40-9-1-54-3l-56-3q-104 0-245 57-155 63-192 136-84 167-98 256-19 119-19 202l9 9q-2 42-5 62 14 73 66 191 77 171 152 171l59-44q-13-17-17-58-51-31-69-81l-32-87q-32-64-32-133 0-172 21-249 12-47 56-120 31-53 83-92 68-51 88-60 28-13 85-13h90q28 0 187 55 154 53 173 65 37 25 138 93 69 61 211 178 18 32 101 154 34 50 70 133 32 73 32 90v215q8 24 40 24 4 0 67-26 0-12 8-56zm-123 103q0 9-1 10-1-4-2-25 1 9 3 15z"/><glyph glyph-name="Uacute" horiz-adv-x="1494" unicode="" d="M1165 1471q0-45-200-160-23-8-72-28-190-115-233-115-74 0-74 67 0 1 4 27t4 29q86 38 236 100 21 16 40 25 197 94 234 94 17 0 39-14 22-13 22-25zm451-425q0-3-8-19-7-18-7-19 0-70 3-72 2 1 3 3-14-60-59-162-53-121-65-161-8-9-23-24-5-37-20-61-45-52-131-156-40-33-117-89-3-5-11-30-35-21-136-83-87-55-159-76-9-14-35-32-91-40-160-40-9-1-54-3l-56-3q-104 0-245 57-155 63-192 136-84 167-98 256-19 119-19 202l9 9q-2 42-5 62 14 73 66 191 77 171 152 171l59-44q-13-17-17-58-51-31-69-81l-32-87q-32-64-32-133 0-172 21-249 12-47 56-120 31-53 83-92 68-51 88-60 28-13 85-13h90q28 0 187 55 154 53 173 65 37 25 138 93 69 61 211 178 18 32 101 154 34 50 70 133 32 73 32 90v215q8 24 40 24 4 0 67-26 0-12 8-56zm-123 103q0 9-1 10-1-4-2-25 1 9 3 15z"/><glyph glyph-name="Ucircumflex" horiz-adv-x="1494" unicode="" d="M1270 1254q0-12-8-28-5-6-49-6-69 0-118 9-215 133-241 133-2 0-150-78t-170-78q-61 0-74 23 5 6 5 44-13 18-14 22 0 15 55 40 40 15 67 27 10 5 130 92 85 61 148 61 22-7 84-38l101-51q4-7 13-19 96-43 172-97 49-35 49-56zm346-208q0-3-8-19-7-18-7-19 0-70 3-72 2 1 3 3-14-60-59-162-53-121-65-161-8-9-23-24-5-37-20-61-45-52-131-156-40-33-117-89-3-5-11-30-35-21-136-83-87-55-159-76-9-14-35-32-91-40-160-40-9-1-54-3l-56-3q-104 0-245 57-155 63-192 136-84 167-98 256-19 119-19 202l9 9q-2 42-5 62 14 73 66 191 77 171 152 171l59-44q-13-17-17-58-51-31-69-81l-32-87q-32-64-32-133 0-172 21-249 12-47 56-120 31-53 83-92 68-51 88-60 28-13 85-13h90q28 0 187 55 154 53 173 65 37 25 138 93 69 61 211 178 18 32 101 154 34 50 70 133 32 73 32 90v215q8 24 40 24 4 0 67-26 0-12 8-56zm-123 103q0 9-1 10-1-4-2-25 1 9 3 15z"/><glyph glyph-name="Udieresis" horiz-adv-x="1494" unicode="" d="M729 1332q-1-38-31-68t-70-30-72 29q-32 30-32 66 0 63 49 103 33-11 84-31 72-30 72-69zm390-41q0-72-67-72-101 0-101 110 0 54 10 80h65q93 0 93-118zm497-245q0-3-8-19-7-18-7-19 0-70 3-72 2 1 3 3-14-60-59-162-53-121-65-161-8-9-23-24-5-37-20-61-45-52-131-156-40-33-117-89-3-5-11-30-35-21-136-83-87-55-159-76-9-14-35-32-91-40-160-40-9-1-54-3l-56-3q-104 0-245 57-155 63-192 136-85 167-99 256-18 119-18 202l8 9q-2 42-5 62 14 73 67 191 77 171 152 171l58-44q-13-17-16-58-51-31-70-81l-32-87q-31-64-31-133 0-172 20-249 13-47 57-120 31-53 83-92 68-51 88-60 28-13 85-13h90q28 0 187 55 154 53 173 65 37 25 138 93 69 61 211 178 18 32 101 154 34 50 70 133 32 73 32 90v215q8 24 40 24 4 0 67-26 0-12 8-56zm-123 103q0 9-1 10-1-4-2-25 1 9 3 15z"/><glyph glyph-name="germandbls" horiz-adv-x="1193" unicode="" d="M1151 1282q0-53-60-138-21-28-182-175-129-116-140-203 183-121 240-171 118-103 118-188 0-6-73-93-25-45-94-128-16-14-107-83-76-58-80-84-87-73-114-73-29 0-109 66v48q0 39 49 126 25 21 66 59 8 1 24 4 94 80 161 160 7 23 33 67-14 14-47 45-5 6-105 54-52 25-122 82-21 37-76 85v96q19 14 32 40 0 28 21 79 37 52 222 210 131 112 131 200 0 68-105 68-32 0-107-53-22-17-82-60-34-39-103-123-5-18-21-55l-28-28q-1-33-21-99-61-119-76-195-22-112-46-302-13-11-27-36-4-47-22-150-7-16-16-47-12-93-50-272-2-5-47-72-31-7-31-9 0-1 3-1-41 0-115 80 0 2-8 29-9 28-9 30 14 36 29 89 1 30 39 180 20 76 39 150 10 161 56 361 33 141 69 246 11 13 32 41 27 57 82 159 15 15 42 45 24 64 103 140 31 28 121 83 91 55 108 55 39 0 91-28h8q15 0 33-3 103-42 211-120 5-13 22-49 38-82 38-139z"/><glyph glyph-name="agrave" horiz-adv-x="985" unicode="" d="M801 624q0-31-26-74-241 62-568 236-10 5-10 64 0 68 38 68 20 0 97-34l233-105q69-31 209-99 27-36 27-56zm223-590q0-34-20-63t-47-29q-36 8-213 102-102 53-111 56-40 0-112-32-96-43-112-48-63-21-126-21-79 0-197 106-39 58-39 102 0 60 38 160 10 24 57 46l59 27q205 125 374 125 49 0 127-28 22-9 56-66t35-84q0-48-56-83-118 66-183 66-70 0-145-35-94-44-150-96 6-29 67-29-5 0-5 1 0 7 127 46 152 47 224 47 21 0 142-101 131-111 187-140 23-19 23-29z"/><glyph glyph-name="aacute" horiz-adv-x="985" unicode="" d="M756 847q0-45-201-159-23-9-71-28-191-116-234-116-76 0-76 67 0 3 4 29 5 25 5 28 85 38 237 99 21 16 41 26 196 93 233 93 18 0 40-14t22-25zm268-813q0-34-20-63t-47-29q-36 8-213 102-102 53-111 56-40 0-112-32-96-43-112-48-63-21-126-21-79 0-197 106-39 58-39 102 0 60 38 160 10 24 57 46l59 27q205 125 374 125 49 0 127-28 22-9 56-66t35-84q0-48-56-83-118 66-183 66-70 0-145-35-94-44-150-96 6-29 67-29-5 0-5 1 0 7 127 46 152 47 224 47 21 0 142-101 131-111 187-140 23-19 23-29z"/><glyph glyph-name="acircumflex" horiz-adv-x="985" unicode="" d="M902 604q0-52-65-52-2 0-30 5-29 6-32 6-7 0-139 99t-140 99q-32 0-53-22-7-11-26-34-77-60-135-100-18-13-83-13-52 0-75 41-13 39-24 76 63 14 173 104l170 139h5q33 0 102-32 75-36 100-65 58-37 152-108 100-76 100-143zm122-570q0-34-20-63t-47-29q-36 8-213 102-102 53-111 56-40 0-112-32-96-43-112-48-63-21-126-21-79 0-197 106-39 58-39 102 0 60 38 160 10 24 57 46l59 27q205 125 374 125 49 0 127-28 22-9 56-66t35-84q0-48-56-83-118 66-183 66-70 0-145-35-94-44-150-96 6-29 67-29-5 0-5 1 0 7 127 46 152 47 224 47 21 0 142-101 131-111 187-140 23-19 23-29z"/><glyph glyph-name="atilde" horiz-adv-x="985" unicode="" d="M1013 883q0-16-37-40 0-14-3-42-221-171-332-171-37 0-164 81-114 72-114 81 0 1 2 1-26 0-133-92l-108-93q-2 0-26 4t-26 4q-27 65-27 96 2 6 15 17l15 15q37 52 180 160 4 1 18 2 39 28 74 28 89 0 172-74 95-85 127-85t193 77q147 71 147 76v1q6-1 27-7v-39zm11-849q0-34-20-63t-47-29q-36 8-213 102-102 53-111 56-40 0-112-32-96-43-112-48-63-21-126-21-79 0-196 106-39 58-39 102 0 60 38 160 9 24 56 46l59 27q205 125 374 125 49 0 127-28 22-9 56-66t35-84q0-48-56-83-118 66-183 66-70 0-145-35-92-44-149-96 7-29 67-29-5 0-5 1 0 7 128 46 150 47 222 47 21 0 142-101 131-111 187-140 23-19 23-29z"/><glyph glyph-name="adieresis" horiz-adv-x="985" unicode="" d="M417 719q0-38-31-69t-71-31q-40 1-72 31t-32 66q0 62 49 103 33-12 85-32 72-29 72-68zm389-42q0-72-67-72-100 0-100 111 0 54 9 80h65q93 0 93-119zm218-643q0-34-20-63t-47-29q-36 8-213 102-102 53-111 56-40 0-112-32-96-43-112-48-63-21-126-21-79 0-197 106-39 58-39 102 0 60 39 160 9 24 56 46l59 27q205 125 374 125 49 0 127-28 22-9 56-66t34-84q0-48-55-83-118 66-183 66-70 0-145-35-93-44-149-96 6-29 67-29-5 0-5 1 0 7 127 46 151 47 223 47 21 0 142-101 131-111 187-140 23-19 23-29z"/><glyph glyph-name="aring" horiz-adv-x="985" unicode="" d="M624 755q0-43-81-67-52-15-98-15-42 0-53 8-30 17-43 25v22q0 25 52 73 21 10 23 13 16 0 41 1 159-17 159-60zm130-3q0 14-38 116-71 48-101 56-74 23-116 23-118 0-179-40-94-61-94-98v-3q1-5 1-13 0-30-11-105 0-64 90-112 56-29 107-37 85 26 162 26 8 0 17-1 53 21 87 37 51 42 60 70 15 44 15 81zm270-718q0-34-20-63t-47-29q-36 8-213 102-102 53-111 56-40 0-112-32-96-43-112-48-63-21-126-21-79 0-197 106-39 58-39 102 0 60 38 160 10 24 57 46l59 27q111 68 212 99 19-3 37-3 69 0 142 28 45-4 110-27 22-9 56-66t35-84q0-48-56-83-118 66-183 66-70 0-145-35-94-44-150-96 6-29 67-29-5 0-5 1 0 7 127 46 152 47 224 47 21 0 142-101 131-111 187-140 23-19 23-29z"/><glyph glyph-name="ae" horiz-adv-x="1052" unicode="" d="M422 285h-34q-23 0-77-19-65-24-65-49 0-13 18-29h49q24 0 65 39 42 37 44 58zm385 194q0 12-17 29h-49q-24 0-66-38-42-37-44-59h34q19 0 77 21 65 23 65 47zm208-311q0-23-1-39-11-18-41-43-79-35-120-35 0 2-32 9-13-3-80-3-106 0-210 62-11-17-94-60-82-44-108-44-1 1-27 11t-29 10l-18-3q-18-3-22-3-32 0-63 30-51 47-66 54-35 78-35 128 0 64 35 110 7 13 125 96-14 16-90 24-84 9-99 16-4 12-4 41 0 24 4 40 13 18 40 40 94 38 122 38 7-2 31-10h10q156 0 278-60 13 19 95 61t108 43l26-11q26-10 30-10 3 0 20 4t21 4q26 0 59-28 40-35 70-60 36-74 36-122 0-63-36-114-10-13-126-96 13-13 95-24 88-12 92-15 4-12 4-41z"/><glyph glyph-name="ccedilla" horiz-adv-x="973" unicode="" d="M798-284q0-7-40-79-31-60-104-81-8-3-127-26-122-24-122-27-20 4-24 4l-162-24q-23 0-41 21t-18 44q0 77 95 101 54 1 157 7 24 7 69 17 91 13 135 43-51 32-77 32-11 0-50-4l-48-4q-51 0-81 34-5 16-23 46 6 2 9 31 4 36 9 47l24 50q2 11 7 25h-5q-99-1-195 57t-123 138q-21 62-23 62 0 72 30 123 46 79 160 168 55 42 140 78 167 72 243 72 3 0 39-4 37-4 40-4 88 0 117-22 30-22 30-86-2 0-30-57-16-12-52-12-3 0-26 5-23 3-26 3-119 0-374-141-63-34-87-123 113-81 239-81 0 1 122 8l119 8q3 0 93 13 91 13 94 13 36 0 59-17 2-15 2-28 0-86-96-86-3 0-14 5-12 3-15 3-8 0-56-23-57-26-67-28-137-30-207-34 8-23 10-50-5-11-5-37h8q15 1 38-2 100-33 136-52 74-40 79-97 15-22 15-29z"/><glyph glyph-name="egrave" horiz-adv-x="916" unicode="" d="M775 790q0-31-26-74-241 62-566 235-10 6-10 65 0 68 36 68 20 0 97-34l234-105q69-31 208-99 27-36 27-56zm-35-347q-14 44-22 72-2 9-53 34-108-10-233-31-32-6-80-39t-48-50q0-18 10-18h301q106 0 125 32zm194 76q7-20 7-61 0-25-2-57-7-94-41-110-51 0-223-23l-170-23q0-1-89-21-11 9-53 9-11-12-13-14 0-27 200-83 54-3 125-11 118-14 118-59 0-12-72-49-4-3-40-38-59-6-66-8-4 0-97 7l-99 7q-31 0-103 33-15 7-82 42-82 30-148 108t-66 143q0 79 20 118 141 278 575 278 140 0 211-65 54-49 108-123z"/><glyph glyph-name="eacute" horiz-adv-x="916" unicode="" d="M767 1040q0-45-201-160-23-8-71-27-191-116-234-116-75 0-75 67 0 2 4 28t5 28q86 38 236 100 21 16 41 26 196 93 234 93 16 0 39-14 22-13 22-25zm-27-597q-14 44-22 72-2 9-53 34-108-10-233-31-32-6-80-39t-48-50q0-18 10-18h301q106 0 125 32zm194 76q7-20 7-61 0-25-2-57-7-94-41-110-51 0-223-23l-170-23q0-1-89-21-11 9-53 9-11-12-13-14 0-27 200-83 54-3 125-11 118-14 118-59 0-12-72-49-4-3-40-38-59-6-66-8-4 0-97 7l-99 7q-31 0-103 33-15 7-82 42-82 30-148 108t-66 143q0 79 20 118 141 278 575 278 140 0 211-65 54-49 108-123z"/><glyph glyph-name="ecircumflex" horiz-adv-x="916" unicode="" d="M888 786q0-53-64-53-4 0-32 6t-30 6q-10 0-140 99-132 99-141 99-31 0-52-22-7-12-27-35-76-59-134-99-18-13-83-13-53 0-75 41-12 38-23 75 63 15 173 105l169 139h5q33 0 103-32 74-36 98-65 58-38 153-109 100-76 100-142zm-148-343q-14 44-22 72-2 9-53 34-108-10-233-31-32-6-80-39t-48-50q0-18 10-18h301q106 0 125 32zm194 76q7-20 7-61 0-25-2-57-7-94-41-110-51 0-223-23l-170-23q0-1-89-21-11 9-53 9-11-12-13-14 0-27 200-83 54-3 125-11 118-14 118-59 0-12-72-49-4-3-40-38-59-6-66-8-4 0-97 7l-99 7q-31 0-103 33-15 7-82 42-82 30-148 108t-66 143q0 79 20 118 141 278 575 278 140 0 211-65 54-49 108-123z"/><glyph glyph-name="edieresis" horiz-adv-x="916" unicode="" d="M408 863q0-39-31-69t-71-31q-40 0-71 30-33 30-33 67 0 62 49 102 34-11 85-32 72-29 72-67zm390-42q0-72-67-72-101 0-101 111 0 54 10 79h64q94 0 94-118zm-58-378q-14 44-22 72-2 9-53 34-108-10-233-31-31-6-80-39-48-33-48-50 0-18 10-18h301q106 0 125 32zm194 76q7-20 7-61 0-25-2-57-7-94-41-110-51 0-223-23l-170-23q0-1-89-21-11 9-53 9-11-12-14-14 0-27 201-83 54-3 125-11 118-14 118-59 0-12-72-49-4-3-40-38-59-6-66-8-4 0-97 7l-99 7q-31 0-103 33-15 7-82 42-81 30-148 108t-67 143q0 79 21 118 141 278 575 278 140 0 211-65 54-49 108-123z"/><glyph glyph-name="igrave" horiz-adv-x="622" unicode="" d="M637 633q0-31-26-73-241 62-567 234-10 6-10 66 0 67 38 67 19 0 97-34l232-105q70-31 209-99 27-36 27-56zm-251-138q14-43 19-373v-2q0-16-21-102l-25-6h-4q-18 0-82 23 1 3 1 7 0 19-22 52-31 48-35 63-2 6-2 20 0 32 8 110 15 140 37 238 27 32 66 32t60-62z"/><glyph glyph-name="iacute" horiz-adv-x="603" unicode="" d="M621 871q0-45-201-160-23-8-71-27-191-116-233-116-76 0-76 68 0 1 5 27t5 29q85 37 236 99 20 16 40 25 196 94 234 94 16 0 38-14t23-25zm-225-376q14-43 19-373v-2q0-16-21-102l-25-6h-4q-18 0-81 23 1 3 1 7 0 19-22 52-31 48-36 63-1 6-1 20 0 32 8 110 14 140 36 238 27 32 67 32 38 0 59-62z"/><glyph glyph-name="icircumflex" horiz-adv-x="816" unicode="" d="M830 588q0-52-65-52-2 0-31 6-28 5-30 5-8 0-140 99t-141 99q-31 0-53-22-6-11-25-34-77-60-135-100-18-12-83-12-52 0-74 40-14 39-24 76 62 14 172 104l169 140h6q33 0 102-33 75-36 99-65 59-37 153-108 100-76 100-143zm-363-93q14-43 19-373v-2q0-16-21-102l-25-6h-3q-18 0-82 23v7q0 19-21 52-32 48-36 63-2 6-2 20 0 32 8 110 15 140 38 238 26 32 65 32t60-62z"/><glyph glyph-name="idieresis" horiz-adv-x="609" unicode="" d="M237 714q0-39-31-69-30-31-70-31t-72 30-32 67q0 62 49 103 33-12 84-32 72-29 72-68zm389-42q0-72-66-72-101 0-101 111 0 54 10 80h65q92 0 92-119zm-255-184q15-43 20-372v-2q0-17-21-102l-25-6h-3q-18 0-82 23v6q0 20-21 52-32 48-36 63-2 6-2 22 0 33 8 109 15 139 38 238 26 32 65 32t59-63z"/><glyph glyph-name="ntilde" horiz-adv-x="977" unicode="" d="M1031 1053q0-16-36-39 0-15-4-42-221-171-331-171-37 0-165 81-114 73-114 80 0 1 2 1-26 0-133-92l-107-92q-3-1-27 3t-26 4q-27 66-27 97 2 6 15 18l14 13q37 54 181 160 5 2 18 3 39 27 74 27 89 0 172-73 96-84 128-84 31 0 192 77 148 69 148 75 8-2 26-6v-40zm-40-916q0-137-65-137-10 0-44 17-41 20-60 24-54 84-54 169 0 94-63 291-11 13-46 13-32 0-82-28-9-5-28-14l-54-29q-37-27-142-150-120-140-146-140-68 0-115 87-39 72-39 138 0 28 41 110 0 17 8 55 5 22 51 104l28 6q26 6 30 6 3-13 42-45t53-32q2 0 174 76t176 77q98 0 209-142 26-32 72-112 54-131 54-344z"/><glyph glyph-name="ograve" horiz-adv-x="1092" unicode="" d="M888 874q0-32-26-74-241 62-567 235-10 5-10 66 0 67 38 67 19 0 97-34l232-105q70-31 209-100 27-36 27-55zm64-425q0 141-178 141-129 0-299-56-15-12-36-28-41-2-71-20-127-124-127-159 0-57 102-111 89-48 147-48 98 0 267 84 195 98 195 197zm194-39q0-115-57-184t-219-151q-115-58-258-92-37-9-83-20-118 0-268 79-167 89-191 206-3 12-16 47-17 45-17 50 1 18 23 89t36 94q18 32 88 65l94 44q98 56 232 110l72 5q14 7 37 18 5 0 61 6t60 6q282 0 366-240 40-117 40-132z"/><glyph glyph-name="oacute" horiz-adv-x="1092" unicode="" d="M853 1057q0-45-201-159-22-9-71-28-190-116-233-116-75 0-75 68 0 2 4 28t4 28q86 38 237 99 21 16 40 26 197 93 234 93 17 0 39-14t22-25zm99-608q0 141-178 141-129 0-299-56-15-12-36-28-41-2-71-20-127-124-127-159 0-57 102-111 89-48 147-48 98 0 267 84 195 98 195 197zm194-39q0-115-57-184t-219-151q-115-58-258-92-37-9-83-20-118 0-268 79-167 89-191 206-3 12-16 47-17 45-17 50 1 18 23 89t36 94q18 32 88 65l94 44q98 56 232 110l72 5q14 7 37 18 5 0 61 6t60 6q282 0 366-240 40-117 40-132z"/><glyph glyph-name="ocircumflex" horiz-adv-x="1092" unicode="" d="M1034 852q0-52-65-52-3 0-31 6t-31 5q-9 0-139 99-132 99-141 99-31 0-52-22-7-11-27-34-76-59-134-99-18-13-83-13-53 0-75 41-13 38-24 75 64 14 173 104l170 140h4q32 0 103-33 75-36 99-64 58-38 153-109 100-76 100-143zm-82-403q0 141-178 141-129 0-299-56-15-12-36-28-41-2-71-20-127-124-127-159 0-57 102-111 89-48 147-48 98 0 267 84 195 98 195 197zm194-39q0-115-57-184t-219-151q-115-58-258-92-37-9-83-20-118 0-268 79-167 89-191 206-3 12-16 47-17 45-17 50 1 18 23 89t36 94q18 32 88 65l94 44q98 56 232 110l72 5q14 7 37 18 5 0 61 6t60 6q282 0 366-240 40-117 40-132z"/><glyph glyph-name="otilde" horiz-adv-x="1092" unicode="" d="M1090 1113q0-16-36-40 0-13-4-41-221-172-332-172-37 0-164 82-114 73-114 81 0 1 2 1-27 0-133-93l-108-92q-2 0-26 4t-26 4q-27 64-27 96 2 6 14 17l15 14q37 53 181 160 5 2 18 3 39 28 74 28 89 0 172-74 95-85 128-85 31 0 192 77 148 70 148 76 0 1-1 1 8-1 27-7v-40zm-138-664q0 141-178 141-129 0-299-56-15-12-36-28-41-2-71-20-127-124-127-159 0-57 102-111 89-48 147-48 98 0 267 84 195 98 195 197zm194-39q0-115-57-184t-219-151q-115-58-258-92-37-9-83-20-118 0-268 79-167 89-191 206-3 12-16 47-17 45-17 50 1 18 23 89t36 94q18 32 88 65l94 44q98 56 232 110l72 5q14 7 37 18 5 0 61 6t60 6q282 0 366-240 40-117 40-132zm-83 750h-1 1z"/><glyph glyph-name="odieresis" horiz-adv-x="1092" unicode="" d="M528 952q0-38-31-68t-71-31q-40 0-72 30-32 31-32 67 0 62 49 102 33-11 84-31 73-29 73-69zm389-41q0-72-67-72-100 0-100 111 0 53 9 80h65q93 0 93-119zm35-462q0 141-178 141-129 0-299-56-15-12-36-28-41-2-71-20-127-124-127-159 0-57 102-111 89-48 147-48 98 0 267 84 195 98 195 197zm194-39q0-115-57-184t-219-151q-115-58-258-92-37-9-83-20-118 0-268 79-167 89-191 206-3 12-16 47-17 45-17 50 1 18 23 89t36 94q18 32 88 65l94 44q98 56 232 110l72 5q14 7 37 18 5 0 61 6t60 6q282 0 366-240 40-117 40-132z"/><glyph glyph-name="divide" horiz-adv-x="1672" unicode="" d="M931 132q0-108-97-108-46 0-90 36t-45 75v90q70 41 94 41 55 0 97-40t41-94zm683 418q-59-24-87-57h-35q-74 0-224-10-231-16-260-16l-33 9q0-2-74-15-309-25-460-52-232-41-247-46-42 0-92 48t-49 85q0 85 89 85 4 1 18-3l14-4q5 0 225 35l218 36 862 64h4q38 0 77-45 40-48 54-114zm-664 351q-35-23-59-117-8-1-70-1-97 0-97 126 0 23 3 51 19 15 50 15 42 0 173-74z"/><glyph glyph-name="oslash" horiz-adv-x="1070" unicode="" d="M481 523q-40-9-105-27-40-29-106-71v-37q35-20 59-41 36 23 88 78 60 65 64 98zm311-77q0 14-43 45-104-61-171-183h32q70 10 126 54t56 84zm234-35q-4-7-18-22 3-14 3-34 0-32-8-79-49-82-138-131-12-8-159-72-56-26-152-26-4 0-16 4t-17 4q-46 0-116-101-55-50-114-115v1q0 39-77 49-40 30-40 59 0 2 30 63 28 61 28 65 0 30-54 77-67 58-98 104-55 80-55 198 0 28 82 125 109 127 185 165 58 29 141 29 3 0 42-9 38-8 41-8t55 16q53 16 57 16 2 1 46-7t48-8q78 55 207 119 48-80 48-97 0-3-32-64-31-60-31-62l33-64q33-62 36-79 4-32 15-79l13-14q15-14 15-23z"/><glyph glyph-name="ugrave" horiz-adv-x="1215" unicode="" d="M955 792q0-32-27-74-241 62-568 235-9 5-9 66 0 67 37 67 21 0 98-34l233-105q69-31 208-100 28-36 28-55zm292-104q0-64-13-97-27-69-61-156-11-3-21-17-7-33-49-79l-66-74q-3-8-8-24-98-98-264-181-162-48-234-48-45 0-133 26-331 100-331 466 0 125 81 227h49q61-44 61-137 0-4-4-63t-3-66q0-164 177-213 61-16 61-18 0-1-1-1 4-1 34 3t34 4q95 0 258 107 97 65 193 189t109 199q3 15 36 43 32 29 46 29 49 0 49-119z"/><glyph glyph-name="uacute" horiz-adv-x="1215" unicode="" d="M939 1070q0-46-201-161-23-8-71-27-191-117-233-117-76 0-76 69 0 2 4 28t5 28q85 37 237 99 20 16 40 25 196 95 234 95 16 0 38-14 23-14 23-25zm308-382q0-64-13-97-27-69-61-156-11-3-21-17-7-33-49-79l-66-74q-3-8-8-24-98-98-264-181-162-48-234-48-45 0-133 26-331 100-331 466 0 125 81 227h49q61-44 61-137 0-4-4-63t-3-66q0-164 177-213 61-16 61-18 0-1-1-1 4-1 34 3t34 4q95 0 258 107 97 65 193 189t109 199q3 15 36 43 32 29 46 29 49 0 49-119z"/><glyph glyph-name="ucircumflex" horiz-adv-x="1215" unicode="" d="M1042 864q0-52-64-52-3 0-31 6t-31 6q-9 0-140 99t-140 99q-32 0-53-22-6-12-26-35-76-59-134-99-19-13-83-13-53 0-75 41-13 38-24 75 63 15 173 105l169 140h5q32 0 103-34 75-35 99-64 58-38 152-109 100-75 100-143zm205-176q0-64-13-97-27-69-61-156-11-3-21-17-7-33-49-79l-66-74q-3-8-8-24-98-98-264-181-162-48-234-48-45 0-133 26-331 100-331 466 0 125 81 227h49q61-44 61-137 0-4-4-63t-3-66q0-164 177-213 61-16 61-18 0-1-1-1 4-1 34 3t34 4q95 0 258 107 97 65 193 189t109 199q3 15 36 43 32 29 46 29 49 0 49-119z"/><glyph glyph-name="udieresis" horiz-adv-x="1215" unicode="" d="M568 957q0-38-31-69t-71-31-72 31q-32 29-32 66 0 62 49 103 34-12 85-33 72-28 72-67zm389-42q0-72-66-72-102 0-102 111 0 54 10 79h65q93 0 93-118zm290-227q0-64-13-97-27-69-61-156-11-3-21-17-7-33-49-79l-66-74q-3-8-8-24-98-98-264-181-162-48-234-48-45 0-133 26-331 100-331 466 0 125 81 227h49q61-44 61-137 0-4-4-63t-3-66q0-164 177-213 61-16 61-18 0-1-1-1 4-1 34 3t34 4q95 0 258 107 97 65 193 189t109 199q3 15 36 43 32 29 46 29 49 0 49-119z"/><glyph glyph-name="dotlessi" horiz-adv-x="458" unicode="" d="M309 521q15-46 21-392v-2q0-18-22-108l-26-6q-1-1-4-1-20 0-87 25 1 3 1 7 0 21-22 55-33 50-38 66-2 6-2 21 0 34 9 116 15 147 39 251 28 34 69 34t62-66z"/><glyph glyph-name="Ohungarumlaut" horiz-adv-x="1555" unicode="" d="M1142 1501q0-45-200-159-23-9-72-28-190-116-233-116-76 0-76 68 0 2 5 27 4 26 4 28 85 39 237 100 21 16 40 26 197 93 234 93 17 0 39-13t22-26zm460-769q0 64-61 146-35 47-169 103t-210 56q-2 1-29-3t-30-4l-101 20q-4 0-29-10-27-10-28-10l-78-5-77-6q-4 0-20 6-18 5-20 5-11-4-59-29-42-10-153-36-111-28-162-72 0-1 7-30 0-17-65-60-56-24-112-106t-57-143l11-7q-2-16-2-32 0-177 179-283 159-94 370-94 212 0 527 166 355 187 355 377 1 3 7 25t6 26zm123-128l-49-80q2-5 7-12-3 0-33-75-11-9-24-25-81-131-420-303-76-39-244-86-190-54-276-54-49 0-187 47-298 101-397 247-83 122-83 302 0 3 10 35t11 37q5 53 10 87 28 41 61 95 28 45 162 184 5 6 45 18 10 8 34 26 8 4 159 54 36 13 80 26 305 46 461 46 320 0 526-145 136-96 136-310 0-43-8-94 19-8 19-20zm-23 897q0-45-200-159-23-9-72-28-190-116-233-116-76 0-76 68 0 2 5 27 4 26 4 28 85 39 237 100 21 16 40 26 197 93 234 93 17 0 39-13t22-26z"/><glyph glyph-name="ohungarumlaut" horiz-adv-x="1092" unicode="" d="M952 449q0 141-178 141-129 0-299-56-15-12-36-28-41-2-71-20-127-124-127-159 0-57 102-111 89-48 147-48 98 0 267 84 195 98 195 197zm194-39q0-115-57-184t-219-151q-115-58-258-92-37-9-83-20-118 0-268 79-167 89-191 206-3 12-16 47-17 45-17 50 1 18 23 89t36 94q18 32 88 65l94 44q98 56 232 110l72 5q14 7 37 18 5 0 61 6t60 6q282 0 366-240 40-117 40-132zm267 707q0-45-201-159-22-9-71-28-190-116-233-116-75 0-75 68 0 2 4 28t4 28q86 38 237 99 21 16 40 26 197 93 234 93 17 0 39-14t22-25zm-520-4q0-45-201-159-22-9-71-28-190-116-233-116-75 0-75 68 0 2 4 28t4 28q86 38 237 99 21 16 40 26 197 93 234 93 17 0 39-14t22-25z"/><glyph glyph-name="OE" horiz-adv-x="2801" unicode="" d="M1902 852q0 52-64 132t-120 104q-160 63-288 105-52 18-103 27-57 12-170 12-3 0-42 4t-42 4q-105 0-334-47-28-13-74-30 9-9 9-24 0-2-10-33-11-30-11-33-35-48-170-90-7-10-24-27-58-19-137-127-79-107-81-171 0-2-6-18t-6-18q0-22 12-69 22-89 96-170 75-82 156-102 98-24 218-24 113 0 377 69 167 43 315 114 257 120 401 254 98 92 98 158zm1048 479q0-78-137-91-7 0-181-12-14 4-34 4-92-24-236-31-21 0-236-12-63-3-137-29v-21q16-11 31-30 46-57 57-138 8-48 8-205 42-13 84-13 43 2 124 7l124 8h7q59 0 201-50 27-9 27-42 0-70-175-88-1 0-184-11-20-8-229-33-14 1-30 1-44 0-108-6-57-46-129-99-49-37-182-107-94-50-114-81 416 0 734 18 9 0 249 26l179 19q114 0 114-126 0-16-2-39-32-18-100-44-198-24-239-24 0-1-590-35l-588-32q-9-1-19-1-84 0-134 48-3 6-6 21-31 36-49 36-4 0-42-10t-40-10q-206-24-286-24-52-1-168 17t-144 30q-15 15-51 41-27 5-69 28-19 15-139 135-5 6-35 106t-30 116q0 156 94 322v6q0 15-11 59-7 27-7 53 0 89 77 172 36 38 162 101 4 1 204 66 103 34 128 34 3 0 23-4 18-3 23-3 13 0 17 21 25 8 68 21 78 25 208 25 298 0 371-41 23-1 118-11 73-8 90-8 23 0 145 27 27 5 176 5 2-1 26 7t27 8q5 0 32-8t30-7q3 0 26 5t25 5q26 5 212 5h267q5 0 113 11l111 10q149 0 149-98z"/><glyph glyph-name="oe" horiz-adv-x="1680" unicode="" d="M756 433q0 60-4 64-36 43-107 68-28 10-80 10-8-5-65-28-28-2-73-14-198-129-198-176 0-56 149-93 110-27 195-27 99 0 152 66 31 39 31 130zm532 171q-62 18-79 18-101 0-155-39-22-14-40-53 71 0 158 23t116 51zm358-481q-10-15-49-37-40-5-186-30-103-17-154-17-102 0-108-2 3 0 11-2-44 3-170 36-2 1-57 31-53 29-57 29-13 0-72-33-67-38-96-50-66-27-132-27h-126q-87 0-225 70-137 70-179 134-10 16-10 102 0 139 109 253 40 25 101 78 15 35 60 92 57 40 151 40 86 0 152-10 57-9 153-45 11-6 39-24 35-20 49-20 4 0 59 35t82 46q153 65 194 65 65 0 127-14 21-10 81-39 136-64 151-111 11-36 11-67 0-59-118-207-76 0-107-10l-275-80q22-33 61-39 122-18 169-18 3 0 53 4t54 5q185 0 230-37 23-20 23-66 0-30 1-35zm0 0v-1q2 2 3 7-1-3-3-6z"/><glyph glyph-name="Uhungarumlaut" horiz-adv-x="1494" unicode="" d="M1115 1471q0-45-200-160-23-8-72-28-190-115-233-115-74 0-74 62l4 32q3 28 4 29 39 18 236 100 21 16 40 25 197 94 234 94 17 0 39-14 22-13 22-25zm501-425q0-3-8-19-7-18-7-19 0-70 3-72 2 1 3 3-14-60-59-162-53-121-65-161-8-9-23-24-5-37-20-61-45-52-131-156-40-33-117-89-3-5-11-30-35-21-136-83-87-55-159-76-9-14-35-32-91-40-160-40-9-1-54-3l-56-3q-104 0-245 57-155 63-192 136-84 167-98 256-19 119-19 202l9 9q-2 42-5 62 14 73 66 191 77 171 152 171l59-44q-13-17-17-58-51-31-69-81l-32-87q-32-64-32-133 0-172 21-249 12-47 56-120 31-53 83-92 68-51 88-60 28-13 85-13h90q28 0 187 55 154 53 173 65 37 25 138 93 69 61 211 178 18 32 101 154 34 50 70 133 32 73 32 90v215q8 24 40 24 4 0 67-26 0-12 8-56zm29 425q0-45-200-160-23-8-72-28-190-115-233-115-74 0-74 62l4 32q3 28 4 29 39 18 236 100 21 16 40 25 197 94 234 94 17 0 39-14 22-13 22-25zm-152-322q0 9-1 10-1-4-2-25 1 9 3 15z"/><glyph glyph-name="uhungarumlaut" horiz-adv-x="1215" unicode="" d="M939 1070q0-46-201-161-23-8-71-27-191-117-233-117-76 0-76 69 0 2 4 28t5 28q85 37 237 99 20 16 40 25 196 95 234 95 16 0 38-14 23-14 23-25zm308-382q0-64-13-97-27-69-61-156-11-3-21-17-7-33-49-79l-66-74q-3-8-8-24-98-98-264-181-162-48-234-48-45 0-133 26-331 100-331 466 0 125 81 227h49q61-44 61-137 0-4-4-63t-3-66q0-164 177-213 61-16 61-18 0-1-1-1 4-1 34 3t34 4q95 0 258 107 97 65 193 189t109 199q3 15 36 43 32 29 46 29 49 0 49-119zm142 382q0-46-201-161-23-8-71-27-191-117-233-117-76 0-76 69 0 2 4 28t5 28q85 37 237 99 20 16 40 25 196 95 234 95 16 0 38-14 23-14 23-25z"/><glyph glyph-name="Ydieresis" horiz-adv-x="770" unicode="" d="M483 1306q0-38-31-68-30-31-70-31t-72 30-32 66q0 63 49 103 33-11 84-31 72-30 72-69zm390-41q0-72-67-72-101 0-101 110 0 54 10 80h65q93 0 93-118zm202-260q0-27-32-67-27-32-109-114-98-96-154-159-27-31-110-124-34-35-132-141-51-71-130-199-7-12-29-62-13-43-22-67-23-60-51-60-13 7-79 44-1 7-1 16 0 19 3 44 88 190 142 273 11 17 40 32 2 9 5 24 8 15 88 107 0 8 10 21-10 11-40 11-2 0-78-16t-79-16q-54 0-109 36t-80 86q-51 102-72 184-10 38-10 76 0 57 24 115h62q1-7 41-35l23-165q44-154 164-154 100 0 305 151 72 54 280 206 30 22 58 22 18 0 45-28t27-41z"/></font>
</defs>
</svg>
