<svg xmlns="http://www.w3.org/2000/svg"><defs><font horiz-adv-x="1037"><font-face underline-position="-123" font-weight="400" descent="-410" panose-1="2 11 5 0 0 0 0 0 0 0" units-per-em="2048" unicode-range="U+0020-0178" bbox="-507 -1100 3032 1888" x-height="558" underline-thickness="20" font-family="Daniel" ascent="1638" cap-height="1541"/><glyph glyph-name=".notdef" horiz-adv-x="2048"/><glyph glyph-name="glyph1" horiz-adv-x="0"/><glyph glyph-name="glyph2" horiz-adv-x="2048"/><glyph glyph-name="space.0" horiz-adv-x="870"/><glyph glyph-name="exclam" horiz-adv-x="742" unicode="!" d="M345 128q-10-53-29-137-99 25-107 29-13 9-43 66 66 84 96 84 14 0 83-42zm320 1694q0-6-57-266-22-101-94-428-27-53-68-167l-81-568q-2-15-31-15-33 0-60 68-24 58-24 99 0 38 86 292 2 6 2 76 0 29 20 71 25 50 28 70l44 234q40 214 93 453 4 20 30 103 22 17 53 42 59-24 59-64z"/><glyph glyph-name="quotedbl" horiz-adv-x="648" unicode=""" d="M246 1765q0-143-24-264-16-53-44-159h-85q-27 76-27 120 0 26 20 109 23 91 26 122-10 18-34 52 5 8 49 60 36 42 57 42 9 0 16-3h16q30-31 30-79zm319 2q0-27-25-167-33-190-66-317l-43-30q-58 45-58 91 0 21 25 168 24 143 56 316 9 10 53 55 58-54 58-116z"/><glyph glyph-name="numbersign" horiz-adv-x="1711" unicode="#" d="M1121 703q-151 0-225 6-8 0-58 5-42 5-55 5-78 0-133-33-79-149-79-251 0-26 17-37h257q173 0 215 72zm681 156v-6q0-21-15-45-17-28-40-35-48-13-236-18-169-3-236-40-88-49-88-291 112 4 211 4 20 0 133-4 113-3 131-3-8-23-38-49t-50-27q-6 0-35 7-31 8-36 8-87 0-204-24-153-31-172-76-26-63-95-225-64-146-148-177-43 21-43 38 0 19 153 367-13 33-81 33-245 0-359-57-29-15-49-97-19-76-28-118-45 29-86 29h-11q0 72 24 171-51 50-223 75-144 20-163 94 41 42 90 42 13 1 139-25t151-26q13 0 21 3 26 35 56 136 31 101 31 150 0 46-38 46-8-1-55-7t-55-6q-172 0-224 55 0 22 19 48 20 26 38 26l77-7 77-6q152 0 180 11 62 23 97 137l80 263q29 2 55 25 46-40 46-83 1-10-51-147t-52-148q0-19 34-46l388 1q41 0 115 213 24 71 87 258 18 56 72 171h46q15-17 15-63 0-69-18-125-16-16-43-64-14-41-46-168-34-138-34-164 0-46 58-46 14-1 90 13t90 14q19 0 124-7 106-8 124-8z"/><glyph glyph-name="dollar" horiz-adv-x="1322" unicode="$" d="M1074 577q-78 109-169 178-31 14-94 46-22-12-98-138t-76-152q0-30 15-30h261q23 0 89 39t72 57zm-258 580q-8 6-87 6-23 0-109-3t-109-3q9-29 91-90t113-61q46 0 101 151zm-783-650q1 61 70 62 0-4 384-65 202 293 202 341 0 28-46 48-19 7-68 27-73 45-151 127-95 100-95 164 0 21 32 55t52 35q33 0 229-7t231-7q24 0 36 14 7 9 86 148l186 329h44q27-28 29-48l-205-435q9-29 119-43 99-13 100-90-2 0-16-51-201 50-261 50-19 0-77-93t-58-119q0-20 83-89 107-87 156-145 84-101 84-204-1-36-25-59-24-24-96-56t-107-32h-369q-64-83-130-226-94-201-112-235h-5q-25 0-46 20-24 22-24 48 0 58 64 198l90 201-35 28q-221 46-336 58-13 51-15 51zm0 0v-2 2zm1235 655v-1 1z"/><glyph glyph-name="percent" horiz-adv-x="1862" unicode="%" d="M1726 349q-91 68-176 68-330 0-478-200 92-70 199-70 140 0 263 42 158 54 192 160zm-925 858q-46 46-83 46-10 1-62-15t-60-16q2-1 62-28 40-18 60-18 21 0 83 31zm797-57q0-48-46-85-90-72-188-143-142-80-386-239-559-361-769-610-11-13-11-31 0-9 2-18l-16-16-32-32q-34-34-51-34-33 0-65 23t-32 48q0 60 222 249 79 67 285 240 27 23 126 90 368 248 743 507-14 13-37 13-345 0-429-43-42-22-151-78-57-21-164-21-118 0-195 80-2 22-2 41 0 277 258 277 187 0 251-57 13-38 66-110 94 0 342 24l156 15q123 0 123-90zm232-790q0-154-195-250-158-78-333-78-5 0-29 7-23 6-29 6t-25-13q-18-13-26-13-15 0-113 36l-125 44v182q0 23 56 56 18 11 75 44 32 27 105 69 221 96 271 96 119 0 226-39 142-52 142-147z"/><glyph glyph-name="ampersand" horiz-adv-x="1402" unicode="&" d="M798 325q-33 32-100 202-53 138-112 138-77 0-228-161-150-162-150-244 0-148 167-148 31 0 116 25t119 44q122 68 188 144zm348 1150q0 90-97 90-186 0-314-171-118-157-118-349 0-57 29-134h44q165 99 293 239 163 178 163 325zm152-882q0-36-143-153-162-134-177-154 29-54 128-100v-57q-15-17-64-17-36 0-103 46-52 33-62 41-11-14-197-106-221-109-318-109-284 0-284 284 0 125 85 231 30 36 183 166 150 128 185 175-21 97-21 199 0 217 86 381 38 73 189 174 149 99 225 99 251 0 251-224 0-161-95-297-64-91-221-227-56-49-188-159-16-1-33-3-28-5-28-22v-37l178-331q-2 0-3-2 0-9 21-9h3q14 1 170 122l188 146h45v-57z"/><glyph glyph-name="quotesingle" horiz-adv-x="387" unicode="'" d="M281 1832v-16q0-133-17-268-25-215-82-215h-68v81q0 11 26 161l41 227q7 42 41 70 20-13 59-40z"/><glyph glyph-name="parenleft" horiz-adv-x="586" unicode="(" d="M956 1848q0-19-148-177l-184-193q-57-61-102-154-32-89-73-167-98-182-220-426-84-215-84-470 0-447 180-667-4-31-31-59-234 138-255 430-21 277-21 340 0 17 10 60t11 52q73 567 497 1154 116 160 334 314h56q30-17 30-37z"/><glyph glyph-name="parenright" horiz-adv-x="657" unicode=")" d="M578 798q0-338-178-738-28-64-352-682-29 1-138 1v59q92 107 125 167 16 32 169 275 102 165 138 290 108 389 108 569 0 412-109 777-54 128-110 285v81h68q34 0 76-130 24-43 57-108 61-120 102-344 44-240 44-502z"/><glyph glyph-name="asterisk" horiz-adv-x="855" unicode="*" d="M810 1739q-22-7-143-84-45-40-140-118 79-64 232-191-34-59-63-59-18 0-97 38-81 38-83 38-55 0-55-68 0-18 6-55-17-41-59-121-49 25-61 105-2 23-13 128-2 5-7 6-4-2-9-8-13 6-25 6-48 0-85-65-10-16-61-103-28-18-37-18-20 0-46 28t-25 51q0 16 103 137t103 151q0 14-63 59l-78 54v69q26 29 45 29 24 0 217-128 28 42 56 127 29 89 45 131h44q38-18 38-100 0-38 24-54 138 102 174 102 24 0 63-42v-45z"/><glyph glyph-name="plus" horiz-adv-x="942" unicode="+" d="M921 511q-76-56-148-56-15 0-91 7t-88 7q-113 0-120-102-10-153-70-218h-72q0 16 4 111 4 94 4 110 0 56-6 100-97-27-165-27-70 0-134 43 22 62 81 74 11 2 116 2 101 0 146 70 15 24 49 181 23 104 107 117l14-28q13-28 13-42 1-14-25-96t-26-96q0-71 90-71 6 1 39 7t39 6q42 0 93-6l94-12q23-13 56-81z"/><glyph glyph-name="comma" horiz-adv-x="460" unicode="," d="M321 53q0-118-59-191-65-58-189-158-38-8-117-54h-72q-6 23-14 74 153 94 195 129 97 80 122 182 4 58 22 173h41q71 0 71-155z"/><glyph glyph-name="hyphen" horiz-adv-x="767" unicode="-" d="M709 412q0-57-52-57-14 0-90 12t-90 12q-127 0-219-15-98-17-123-23-8-1-8-2t3-1q-18 0-44 31t-26 52q0 54 58 66 101 20 261 20 60 0 117 4 5 1 61 18 55 18 68 18 30 0 58-54 26-49 26-81z"/><glyph glyph-name="period" horiz-adv-x="421" unicode="." d="M338 121q0-30-60-76-59-46-93-46-33 0-108 38 9 42 37 113 18 23 65 53t67 30q32 1 62-37t30-75z"/><glyph glyph-name="slash" horiz-adv-x="1521" unicode="/" d="M1498 1807q0-69-272-407-24-28-85-111-35-55-123-192-103-122-224-284-43-57-462-748-39-63-150-241-26-41-77-41-35 0-70 16-1 2-8 12t-7 23q0 10 26 64t30 69q104 90 200 246 61 98 166 274 25 55 85 165 3 8 179 226 124 155 128 238 85 69 203 232 105 147 166 266-10 9-28 9-4 0-9-1 4 12 91 90 59 53 196 166 45-19 45-71z"/><glyph glyph-name="zero" horiz-adv-x="1633" unicode="0" d="M1452 849l-14 363q-3 74-78 158-87 96-127 111-84 31-188 31-293 0-526-160-104-70-141-101-86-71-118-134h38q180 184 332 207-31-39-237-239-171-166-225-310-27-71-27-176 0-230 141-370 130-130 322-130 51 1 214 61t210 97q230 177 316 323 26 43 63 133 45 105 45 134v2zm78 62q0-112-15-166-76-277-409-527-298-223-559-223-186 0-341 163-162 169-162 397 0 129 14 169 3 10 23 51-11 49-11 99 0 301 349 530 118 78 314 138t329 60q111 0 273-70 100-42 129-113 66-164 66-508z"/><glyph glyph-name="one" horiz-adv-x="537" unicode="1" d="M448 1237q0-78-22-184-28-126-103-486-79-394-161-558-20 10-42 34-19 22-19 34v2l259 1266h59q29-54 29-108z"/><glyph glyph-name="two" horiz-adv-x="1481" unicode="2" d="M1453 1404q0-105-116-228-52-53-186-192-373-387-882-811v-5q0-33 48-46 65-17 133-17 16 0 33 1l597 39h14q63 0 260-21l18 16 15-83q-81-4-313-13-101-4-332-26l-169-16q-7 0-45 7t-45 7q-6 0-35-14t-36-13q-70 0-183 31-115 30-164 63v30q0 42 18 68 31 42 166 146 186 145 434 358 89 76 359 343 225 223 295 380-44 47-96 47-198 0-575-169-265-118-265-126h-50q-29 20-29 43 0 51 97 88 39 12 136 51 488 216 711 216 81 0 135-43 52-44 52-111z"/><glyph glyph-name="three" horiz-adv-x="1798" unicode="3" d="M1729 600q0-40-104-114-76-54-144-87-300-141-926-291-174-42-441-163l-42 58q75 68 196 117 149 59 446 137 300 78 443 130 246 89 419 222-19 55-162 89-134 34-451 69-230 26-294 26-6 0-22-7-17-6-23-6-121 0-282 67v58q33 30 55 37 1 0 55 13 55 13 164 42 139 41 358 153 267 135 267 202 0 59-96 59-359 0-718-96-18-5-109-40-79-32-99-32-57 0-57 58 0 81 453 153 370 59 568 59 49 0 128-49 85-53 85-99 0-107-281-256l-376-200q27-24 259-46l110-16q34-2 130-13 491-61 491-234z"/><glyph glyph-name="four" horiz-adv-x="1266" unicode="4" d="M1379 1583q0-14-27-46-31-36-44-68-23-51-58-170-39-127-69-193-18-24-44-77-24-82-24-170 0-30 3-61-19-15-43-41-13-42-43-125-114-333-114-487 0-10-8-67t-7-66q-23-8-71-15-29 27-29 141 0 27 6 74 3 22 9 74 10 101 64 269 36 109 36 117v61q-25 24-64 24-5 0-83-13-90-15-238-15-151 0-235 18-88 20-239 85-4 18-4 35 0 50 56 136 76 113 84 134 18 49 69 178 59 147 81 147-2 0-2-1t46-13q0-3 7-32 7-31 7-38 0-65-77-233-92-200-102-241 143-73 246-73h333q106 0 146 29 55 40 75 171 5 36 52 144 28 66 102 236 52 118 143 218h43q17-13 17-46z"/><glyph glyph-name="five" horiz-adv-x="1481" unicode="5" d="M1422 538q0-34-111-128-103-87-149-106-193-80-284-111-56-18-244-79-1 0-261-88-213-73-235-73-33 0-103 29 20 53 81 82 49 16 233 75 931 301 931 431 0 85-266 209-190 89-419 123-80 12-248 44-12 4-36 31-15 17-63 17h-4q-16 14-16 51 0 55 96 256 93 195 139 245 239-27 458-27 59 0 82 5 5 0 50 19 39 16 56 16h274q5-25 13-75-274-79-404-79-30-1-194 13t-192 14q-104 0-150-143-17-55-63-198l36-31 104-23q133-31 265-64 256-64 423-163 201-119 201-272z"/><glyph glyph-name="six" horiz-adv-x="1631" unicode="6" d="M1475 440q0 72-161 115-120 33-223 33-219 0-478-69-339-90-371-234 134-186 404-186 158 0 465 94 92 27 212 98 152 90 152 149zm77-7q0-288-723-411-151-25-215-25-121 0-238 27-106 26-216 175-111 150-111 266 0 18 16 69 18 55 18 61 16 94 44 178 136 409 722 786 79 51 176 70 5 2 189 26l29-32q-2-22-27-43-223-36-497-261-244-202-384-421-45-69-111-229-2-5-27-50-19-35-19-49v-153l22-24q14 0 24 24 11 53 61 88 71 51 242 104 261 81 551 81 474 0 474-257z"/><glyph glyph-name="seven" horiz-adv-x="1333" unicode="7" d="M1236 1376q0-144-237-461-297-399-442-614-42-64-162-246-27-41-78-68-21 15-55 15l-10 15q-5 7-5 22 0 34 140 227 50 68 177 245 127 181 285 394 174 237 259 412-22 35-81 35-17 0-164-15-219-23-326-23-7 0-45 4t-45 3q-13 0-25-2-25-21-53-21-3 0-171 1l-168 1v72q71 44 463 59 164 6 460 29l212 18h8q63 0 63-102z"/><glyph glyph-name="eight" horiz-adv-x="1425" unicode="8" d="M189 573q15 20 35 61 37 70 116 152 11 10 38 21 10 4 33 27l-233 80q-152 79-152 278 0 69 42 127 20 26 95 97l72-43q-16-36-69-103-36-44-36-87 0-91 116-159 98-58 179-58h69q15 17 79 28 18 4 61 30 48 31 62 38 31 3 88 20 4 1 54 51 8 9 66 59 31 33 31 86 0 44-55 89-50 42-98 49-32 5-66 15-28 7-33 7-20 0-77 17-56 17-72 18h-7q-61 0-149-33-22-7-64-21-20-7-59-34 4 16 4 41 1 26-4 62v2q0 24 59 53 74 37 172 37h10q16 0 102-5 73-4 144-4 18 0 29-15 6-9 81-35 80-30 103-48 28-21 56-72 28-50 28-80 0-180-95-251-38-38-118-110 32-13 86-13 0-1 74-10 107-16 222-108 137-110 137-243 0-143-170-274-41-38-67-57-58-40-131-60-81-37-270-102-67-33-134-48t-126-15q-52 0-98 12-119 29-171 88-55 61-55 169 0 96 30 176zm48-151q-15-70-15-101 0-69 46-108 25-21 64-29 23-3 69-12 74-14 126-14 130 0 268 74 101 56 304 168 39 22 90 69 60 55 60 85 0 144-193 216l-104 39q-43 12-111 12-152 0-389-86-27-10-70-76-9-12-35-32-12-11-37-49-21-29-53-93-10-18-20-63z"/><glyph glyph-name="nine" horiz-adv-x="1139" unicode="9" d="M974 1324q0 106-59 136-34 17-140 17-161 0-344-83-227-104-227-264 0-125 150-204 122-65 242-65 28 0 71 17 55 20 70 23 25 4 82 30 63 43 109 159t46 234zm117-23q0-523-814-1215-158-135-171-135h-65l-17 19v88q221 185 363 307 212 182 318 364-12 24-38 24-7 0-17-8t-16-8q-262 0-424 141-58 49-78 77-30 42-30 169 0 228 252 367 203 111 421 111 168 0 231-47 85-64 85-254z"/><glyph glyph-name="colon" horiz-adv-x="490" unicode=":" d="M299 183q0-37-35-91t-65-53q-23 0-85 26 0 6-7 49-6 44-6 52 0 115 103 115 6-1 40-7t41-6q0-6 7-42t7-43zm63 462q0-33-8-44-22-32-35-59-5 0-39-12t-39-12q-63 0-63 1-3 5-36 35-23 21-23 39 0 48 44 90 41 42 89 42 39 0 75-24 35-26 35-56z"/><glyph glyph-name="semicolon" horiz-adv-x="529" unicode=";" d="M289-118q-24-36-52-56-15-12-59-46l-77-63q-36-7-115-54h-58q-4 19-11 58 250 157 293 330 0 39 3 129 1 30 28 30l80-1q24-14 26-49 1-13 1-28 0-27-3-62-10-115-56-188zm-45 586q-76 0-76 112 0 44 42 79t91 35q98-1 98-126 0-100-155-100z"/><glyph glyph-name="less" horiz-adv-x="886" unicode="<" d="M902 1298q-2 0-341-309-341-311-341-346 0-30 69-101l92-94q79-108 241-308 30-20 87-66v-71q-48-27-96-27-57 0-141 123-31 49-114 174-52 77-195 210-21 20-78 75-32 32-32 72 0 92 789 758 14-7 37-41t23-49z"/><glyph glyph-name="equal" horiz-adv-x="1155" unicode="=" d="M1119 247q-20-12-57-39l-28 21q-42 8-371 29-45 3-218 28-134 19-219 19-143 0-184-32v110q83 43 185 43 48 0 258-11 279-14 436-33 131-16 198-75v-60zm-51 431q-17-46-172-46-49 0-328 6-280 6-328 6-64 0-183 29l-29 41q27 83 83 83 25 0 151-9l378-29q153-12 185-12 5 0 40 19 34 20 44 20 14 0 61-25l66-34q9-18 32-49z"/><glyph glyph-name="greater" horiz-adv-x="870" unicode=">" d="M843 696q0-39-124-133-42-32-162-121-106-115-249-266-39-41-146-154-19-20-19-64l-18 11h-103q-17 15-17 57 0 48 32 82 18 19 324 303 276 256 276 277 0 18-103 122l-123 127q-50 71-161 211l-118 121q-100 101-100 114 0 22 26 43 26 22 51 22 56 0 128-89 29-38 104-133 102-126 173-198 11-10 178-172 151-146 151-160z"/><glyph glyph-name="question" horiz-adv-x="1616" unicode="?" d="M444 26q-74-41-264-103-56 49-56 90 0 31 24 66t47 35q7 0 45-12t45-12q34 0 129 37 30-39 30-101zm1132 1539q0-182-130-322-108-115-296-209-79-37-276-133l-48-23q-153-77-200-128-7-21-33-76-121-237-205-324-59 43-59 90 1 37 25 131t43 135q44 91 154 177 22 17 227 105 670 290 670 577 0 134-161 134-239 0-584-85-389-97-533-222h-58q-12 52-14 52-1 0-1-2 0 80 309 189 232 82 391 110 138 23 291 55t167 32q321 0 321-263z"/><glyph glyph-name="at" horiz-adv-x="1719" unicode="@" d="M1047 637q-28 7-65 11-31 4-145 4l-69-11q-108-17-160-37-93-34-125-100 44-43 90-43 128 0 305 55 44 13 96 48 62 41 73 73zm516-28q0 123-196 206-160 69-305 69-167 0-456-56-67-13-171-76t-165-126q-83-87-83-184 0-144 202-209 135-42 320-42 9 0 99 18 149 30 266 49-40 52-106 163-221-90-349-90-277 0-277 174 0 190 354 242 19 3 143 28 95 19 133 19 29 0 109-16 81-16 100-26 7-4 48-41v-8q0-33-45-146-39-96-44-108 3-7 13-51 46-12 46-14 0-1-2-1 25 0 160 55 132 55 164 78 42 29 42 93zm116 5q0-124-147-231-128-92-266-113 2-11 2-20 0-93-131-132-23-7-208-35-16-2-121-28-79-18-114-18h-80q-226 0-373 84-182 104-182 313 0 141 70 237 52 71 191 163 43 38 143 97 279 108 438 108 15-1 109-11t109-11q179-4 356-114 204-124 204-289z"/><glyph glyph-name="A" horiz-adv-x="1550" unicode="A" d="M1266 152v59q0 40-57 342l-98 519q-45 244-143 505-128-135-345-645l-67-155q-24-33-42-63t-74-165q-59-141-59-160 0-31 16-31l281 12q18 1 36 1 146 0 276-53 96-40 276-166zm194-174q0-71-90-71-35 0-48 5-334 342-652 342-70 0-294-56-70-17-124-121-13-24-70-168-14-12-64-36-32 31-32 85 0 193 94 400 24 38 70 117l181 397q221 478 419 814l1-31q47 22 71 119 22 87 66 87 4 3 11 3 29 0 46-47 3-12 28-118 91-385 189-894l60-312q22-43 57-128 16-53 47-194 34-154 34-193z"/><glyph glyph-name="B" horiz-adv-x="1738" unicode="B" d="M1719 433q0-132-310-286-34-18-129-69-30-22-125-54-27-8-133-44l-308-147q-146-50-313-114-183-69-254-197-73 32-73 76 0 167 398 303 38 13 144 51 56 36 303 131 283 108 343 136 192 91 313 200 6 13 17 44-71 48-138 69-13 4-152 18-364 38-483 38-5 0-32-6t-32-7q-161 0-294 54v41q0 21 17 39 996 526 996 791 0 96-122 144-89 35-205 35-18 0-122-25t-122-25q-7 0-20 6-12 7-18 7-20 0-25-8-7-11-11-14-10-6-148-41-295-73-400-218-27-39-27-208 0-19 8-137t8-138q0-267 65-630 3-16 27-90 20-62 20-77 0-23-24-47t-47-25q-50 0-61 81-4 24-13 116-25 118-42 228l-4 21q-17 110-31 805-2 11-15 35-8-13-39-13-57 0-57 57 0 64 169 145 76 36 491 199 59 32 141 56 195 57 311 57 155 0 277-60 153-77 153-217 0-167-231-374-126-112-376-275-111-73-242-172 15-12 154-12 823 0 823-253z"/><glyph glyph-name="C" horiz-adv-x="1703" unicode="C" d="M1589 92q-42-12-65-19l-195-54q-30-11-249-24-192-12-274-12-159 0-226 37-361 203-461 432-44 101-44 286 0 281 277 505 169 137 524 302 176 82 244 114 136 60 261 60 27 0 55-4-2-31-28-56-289-116-297-120-83-28-154-51-15-20-51-54l-192-99q-372-190-469-433-10-26-32-106t-22-90q0-182 154-339 133-135 303-187 117-35 346-35 30 0 264 24l499 53 14-75q-55-23-182-55z"/><glyph glyph-name="D" horiz-adv-x="1705" unicode="D" d="M1967 1086q0-141-97-241-74-78-202-156-60-36-217-133-132-83-245-142-79-42-339-182-45-24-136-74-14-16-40-44-116-28-373-222h-56q-30 27-30 71 0 64 225 184 82 41 293 151 46 26 180 101 430 234 719 407 67 39 133 127 69 92 69 166 0 14-55 107-117 200-510 309-307 85-617 85-8 0-234-11-24-162-63-498-25-217-25-253v-351q0-22 21-35 7-49 7-96l-2-88q-9-16-37-16-55 0-84 172-20 114-20 219 0 109 36 458 39 379 67 418v33q-8 11-18 11-77 0-218-42-169-50-169-103 0-22 30-39v-48q-114 57-114 126 0 133 364 207 254 51 486 51 665 0 1071-301 57-41 126-150 74-116 74-178z"/><glyph glyph-name="E" horiz-adv-x="1402" unicode="E" d="M1734 1759q-37-12-107-62-29 4-66 4-176 0-560-63l-231-37q-10 0-73 7-63 8-74 8-54 0-131-31-85-33-104-73-28-63-48-208-19-130-19-220 0-9 22-70 199 29 249 29h576v-88q-57-7-152-7-33 0-145 2l-144 2q-91 0-231-56-27-7-126-27-79-16-106-65-47-413-47-584 35-43 72-51l161-33q77 0 173 9 216 19 504 19 63 0 113-4l51-2q31-8 31-31v-51q-60-28-231-28-26 0-81-18l-53-18q-14 0-86 10-57 7-80 7h-8l-17-1q-58-4-265-31-122-16-136-16-56 0-168 70-121 76-121 131 0 24 25 213 34 247 62 409-35 25-35 78 0 6 2 34 2 29 2 34 112 36 125 471-61 31-180 105v87q26 39 86 44 88 5 99 10 11 3 46 39 32 34 52 34 7 0 50-16t53-16q66 7 277 28 100 9 474 38 11 2 76 22t72 20q16 0 64-5l58-7q85-4 235-4z"/><glyph glyph-name="F" horiz-adv-x="1433" unicode="F" d="M52 686q0 15 6 32 33 34 36 37 19 14 59 28 28 48 53 193 36 207 53 268 44 161 123 237 26-12 84-70-80-162-108-360-12-82-29-173l35-21 1015 207q29-19 88-55v-46q-55-28-258-45 1-3 1-5 0-17-31-17-5 0-35 6l-35 7h-14q11-1 11-4-5-4-37-10-14-3-114-17-82-32-180-68-87-16-244-47-63-13-180-76-22-12-51-87-27-69-45-73 5-25 5-55 0-24-20-160t-19-161q0-81 32-136-54-57-152-57-29 27-29 64 0 15 13 117l35 280q16 126 16 137v61q-16 7-50 21t-34 48zm1658 975q-107-43-134-43-6 0-42 13-35 13-41 13-17 0-107 6-90 7-106 7-20 0-243-30-255-33-462-65-78-12-171-59-13-7-46-23h-6q-20 0-59-7-10-4-76-50-52-36-75-36t-49 27q-28 25-28 50 0 78 108 110 144 43 372 116 50 16 190 20 165 5 211 14 36 18 114 43 63 9 157 9h36q91-1 140-1h51q25 23 42 23 6 0 32-13t31-13q6 0 36 6 29 7 35 7 52 0 68-49z"/><glyph glyph-name="G" horiz-adv-x="2329" unicode="G" d="M2262 551q0-186-470-350-69-24-130-47-41-40-121-55-453-82-691-82-23 0-157 13-133 12-156 12-4 0-56 28-52 29-64 29-100 69-285 233-29 34-66 158-5 19-5 35v24l1 21q0 80 39 155l75 148q2 9 2 25 0 20-9 39 81 80 160 161 112 108 217 189l227 175q154 118 243 134 16 17 52 43 18 7 51 21 27 16 105 57 198 96 433 96 31 0 77-40t46-70q0-59-52-59-12 0-39 17t-34 18q-28 9-86 9-7 0-50-2-44-2-51-2-82 0-443-211-334-197-431-288-127-117-217-215-10-11-22-77-64-23-108-105-1-23-8-64-12-20-30-64-3-13-3-103 0-4-3-30t-3-31q0-49 64-123 56-64 107-92 213-121 271-121 8 0 47 4t45 5q12 1 90-17t91-18q11 0 87 6t89 7q132 0 382 55 106 45 182 70 84 27 302 101 214 78 214 184 0 163-634 163-199 0-281-42-28-15-65-87h-44q-44 31-44 57 3 0 54 130 65 36 201 36 29 0 201 6 172 5 202 5 3 1 35-13t43-14q5 0 29 6t30 7q51 0 169-43 118-42 154-75 41-36 41-142z"/><glyph glyph-name="H" horiz-adv-x="1701" unicode="H" d="M1716 1431q-7-12-54-64-56-64-59-72-48-127-91-413-42-274-42-425 0-32-22-60-1-61-28-257-12-86-12-105 0-7 34-121-22-7-74-15-54 110-54 156 0 19 18 207 18 178 35 418h-162q-17 0-136-20t-139-20h-62l-62 1q-97 0-148-7-28-4-85-23-52-18-84-18-30 0-52 16-28-18-82-31l-85-21q-36-32-36-105 0-9 3-59 4-51 4-59 0-76-63-266-5 0-30-2t-28-1q-16 0-30 5 25 152 25 472 0 9 25 126 75 355 123 515 33 60 91 184h60q12-47 14-47-4-20-40-100-42-97-48-120-69-258-69-349 0-48 37-48 46 0 138 19 101 19 145 22 156 9 309 9 21 0 142-4 120-5 141-5 30 0 94 7 60 7 93 9 30 18 50 178 27 212 55 305 55 178 169 242h59q11-54 13-54z"/><glyph glyph-name="I" horiz-adv-x="442" unicode="I" d="M377 1475q-16-67-70-307-140-621-140-1088v-45q-16-3-31-17-71 85-71 287 0 37 26 274 41 354 81 553 49 242 129 409h46q30-25 30-66z"/><glyph glyph-name="J" horiz-adv-x="1775" unicode="J" d="M1708 803q0-484-149-678-38-49-196-88-137-35-220-35-177 0-568 147t-520 261v59q31 3 57 29 211-143 502-254 325-124 541-124 211 0 303 91t113 321q16 180 16 384 0 36-7 244-6 206-6 242 0 35 33 71 45-2 58-46 0-3 13-158 30-381 30-466z"/><glyph glyph-name="K" horiz-adv-x="1616" unicode="K" d="M323 1360l-157-1351q-16-16-58-16-71 0-71 51 0 20 31 263 13 91 77 525 11 89 42 319 26 181 75 311 62-13 62-82 0-11-1-20zm1382-1259q-24-46-59-46-17 0-81 26-77 31-90 35-56 14-169 25-136 13-169 22-159 39-391 91-109 24-279 116-208 113-208 186 0 15 261 240 284 245 301 262 16 25 52 71 10 9 163 149 123 113 204 178 126 102 224 148 14-13 31-15v-73l-9-5q-76-46-149-105-245-199-908-862 196-140 541-208 36-7 436-109 49-12 188-46 10-3 111-80z"/><glyph glyph-name="L" horiz-adv-x="1701" unicode="L" d="M1600 63q-5-1-22-1-51 0-216 12-172 12-185 14l-698-47q-192 0-277 16-55 10-149 77 87 270 151 526 182 725 265 965l43 19q30-61 30-75v-2l-332-1325q12-86 190-86 61 0 177 14 119 14 168 14h7l78-3h5q28 0 137 5 84 5 142 5 142 0 474-66z"/><glyph glyph-name="M" horiz-adv-x="2402" unicode="M" d="M2501 1791q0-25-290-797-46-120-110-348-70-255-73-345-41-66-90-251-62 27-62 77 0 182 299 1109 27 82 96 296l-1 45q-211-131-349-320-63-88-166-200-148-161-177-194-100-118-272-339-154-195-178-223-139-156-210-156h-84v228q11 69 36 264l68 527-19 21-869-1209-48 13v86l1030 1449h48q29-49 29-78 0-13-27-127-25-108-50-231-16-88-57-472-23-212-23-243 3-6 22-61 95 72 198 204 47 64 175 224 210 261 521 595 259 279 573 553 60-37 60-97z"/><glyph glyph-name="N" horiz-adv-x="1826" unicode="N" d="M2239 1752q0-73-224-479-163-297-289-500-109-177-305-444-164-222-321-314-25 13-40 29-3 9-128 542-77 328-183 523l-624-1068q-16 14-52 14h-6v82q0 13 321 561l369 630h50q104-186 212-694 61-285 126-414h2q8 0 19-10 330 329 768 1154 38 73 147 285 14 30 58 114 11 22 56 48 44-31 44-59z"/><glyph glyph-name="O" horiz-adv-x="2136" unicode="O" d="M2156 970q0 80-47 129-215 223-467 223-6 0-34-2t-32-3q-6 0-36 12t-34 12q-10 0-64-9-53-8-62-8-101 0-352-59-55-13-123-30-76-26-98-67l-21-65q-200-138-224-158-115-98-160-221-1-2-11-100-5-61-50-78-36 51-52 117-111-185-111-220 0-106 149-233t269-127q4 1 21 3t19 2q6 0 40-12t42-11q11 0 182 21 120 15 235 35 28 14 105 43 313 93 542 260 287 209 352 467 20 79 22 79zm77 12q0-35-40-150-36-104-61-151-120-241-383-417-153-104-479-204t-507-100h-136q-172 0-357 134-197 144-197 308 0 143 107 314 96 152 221 249 53 41 166 164 99 108 173 153 87 52 331 108 238 54 349 54 272 0 508-100 305-130 305-362z"/><glyph glyph-name="P" horiz-adv-x="1591" unicode="P" d="M1828 1356q0-11-25-78t-32-80q-83-136-313-236-190-79-573-238-128-34-244-74-95-31-276-146-15-111-25-241-13-174-34-362-31-42-78-42 4 0 4 1-7 4-49 13v68q0 96 16 195 0 2 18 51 18 47 18 57 0 57-21 116-14-40-51-52-44 26-44 90 0 7 74 108 76 105 88 144 10 29 35 187 37 234 65 342 60 235 142 299l57-43v-44q-53-41-75-149-7-33-32-170-5-25-41-130-32-92-32-112v-128q9-9 17-9 43 0 134 36 109 41 137 49 463 120 714 273 220 133 267 181 56 55 56 149 0 165-149 276-137 103-307 103-134 0-317-33-236-43-443-120-314-116-345-251l-26-19q-59 51-59 96 0 64 133 156 109 76 194 101 565 174 844 174 264 0 421-138 157-137 157-370z"/><glyph glyph-name="Q" horiz-adv-x="2173" unicode="Q" d="M2049 947q1 164-115 273t-292 109h-24q-16-1-90 17t-84 18q-176 0-380-43-645-139-773-500-8-85-21-181-9-35-31-35-3 0-6 1-57 54-57 130 0 6 2 34t2 34q0 10-2 20 0-12-22-70t-22-65q0-17 29-103 55-170 263-306t408-137h154q85 0 213 48 57 23 208 81 23 8 84 29 23 18 28 57l-66 48q-49 35-49 53 0 32 21 70h48q5 1 105-51t108-52q105 0 237 210 124 198 124 311zm282-950q-13-15-15-32-12-2-44-7-37-8-50-8-6 0-270 148-266 148-277 148-7 0-244-101-339-143-538-143-290 0-555 176-296 198-296 472 0 338 233 370 190 230 570 343 304 91 670 91 111 0 307-71 229-82 229-167 0-4 22-32t22-31q10-23 27-108 17-88 17-112 0-124-107-311-97-170-201-268 26-53 228-169 216-125 272-188z"/><glyph glyph-name="R" horiz-adv-x="1790" unicode="R" d="M422 1315q0-17-44-164-49-163-55-196-60-342-71-756-12-60-26-182-4-3-96-56-29 207-29 270 0 23 38 265 52 336 94 527 22 100 77 278 25 28 50 84l62-12v-58zm1389-1114q-28-60-77-60-37 0-182 37l-388 95q-177 38-338 77-77 12-155 23-142 26-189 59-117 84-117 121 0 76 80 112l176 44q161 38 219 72 128 74 310 264 198 207 198 336 0 191-147 246-80 30-308 30-92 0-164-18-43-13-132-38-93-24-255-148-33-45-105-129-33 26-33 64 0 108 167 200 97 54 266 113 212 73 333 73 244 0 362-84 29-20 87-130t58-146q0-175-197-394-150-166-347-298-25-18-141-83-60-12-119-25-118-24-142-44 11-29 143-56 94-18 187-37 52-12 186-46 182-48 764-230z"/><glyph glyph-name="S" horiz-adv-x="1715" unicode="S" d="M1631 544q0-52-99-122-79-55-149-80-53-18-643-151-444-100-578-211-21 2-48 26v62q109 84 223 125 126 44 361 100l364 87q83 19 175 48 105 33 166 68 13 7 59 56-32 57-104 92-48 24-135 50-65 19-250 74-859 263-859 496 0 68 44 98 5 4 112 36 595 174 892 174h34q184 0 255-82-13-15-15-32-171 24-197 24-111 0-378-51-244-48-470-107-94-26-149-68 62-104 223-181 24-11 274-118l206-56q686-190 686-357z"/><glyph glyph-name="T" horiz-adv-x="1790" unicode="T" d="M2418 1439l-1060-54q-212-10-234-84-13-41-43-225-39-240-67-494-11-89-34-350-7-75-19-151-4-13-63-68h-72q16 70 39 323 26 303 59 498l83 478q-48 1-104 1-323 0-622-22-11 1-95-23t-100-24q-25 0-56 42v60l55 35q160 26 336 43 154 16 465 47 325 31 653 31h333q24 0 168 13t168 13q127 0 210-42v-47z"/><glyph glyph-name="U" horiz-adv-x="2152" unicode="U" d="M2070 1251q0-66-86-368-46-161-133-286-176-254-499-431-323-176-612-176-113 0-267 86-140 78-223 174-18 20-72 117-18 16-44 52-7 27-16 54-65 199-65 302 0 141 58 305 69 193 176 244 41 19 66 19 16 0 16-32-6 0-158-315-42-86-42-234 0-215 168-422 177-220 387-220h54q216 0 478 126 248 119 408 283 103 105 179 255 45 89 95 204 42 132 42 274 0 127-61 147-3 10-3 20 0 74 49 74 6 0 20-5 85-33 85-247z"/><glyph glyph-name="V" horiz-adv-x="2018" unicode="V" d="M1969 1803q0-60-945-1386-95-134-163-219-118-150-180-191-24-14-112-14h-24q-116 182-231 413-23 44-132 349-104 295-104 336 0 7 7 47 8 40 8 47 25 5 73 13 51-161 135-415 36-79 94-218 24-61 94-238 6-10 60-95 56-87 70-87 67 0 403 494 242 355 914 1215 33-23 33-51z"/><glyph glyph-name="W" horiz-adv-x="2672" unicode="W" d="M2961 1705q-24-26-33-90-179-223-516-719-328-480-522-714-98-120-204-235-21-22-69-22-6 0-29 2h-25q-89 178-182 561-94 391-175 565-56-78-402-628-2-16-8-47-17-50-121-185-112-144-144-144-9-3-100-14l-389 1280q10 31 32 91 107-89 203-429 11-38 44-147 3-46 20-139 21-39 57-122 13-53 48-189 39-145 78-145 57 0 346 490 248 422 335 604 16-16 52-38 74-125 141-405 25-111 94-397 53-217 129-380h1q17 0 51 40 32 38 98 114 91 99 153 180l1018 1318z"/><glyph glyph-name="X" horiz-adv-x="1678" unicode="X" d="M1745 1319q-16-16-16-40v-4q-34 3-52 3-31 0-52-9-165-78-409-233-269-173-371-284 102-123 412-442 64-66 192-192 29-2 65-33v-55q-41-43-83-43-56 0-94 45-77 93-176 207-18 20-349 332-76 72-95 72-40 0-92-49l-79-75q-105-74-239-267-129-184-215-238-31 27-31 71 0 18 12 29 18 18 22 25 11 22 42 85 41 82 109 172 15 20 197 195 157 151 157 180 0 27-86 102-31 27-114 97-60 66-196 183l-61 39q-42 27-42 48 0 47 69 84 72-44 171-108 4-3 84-81 281-274 324-274 16 0 47 17 20 17 154 110 544 375 685 375 43 0 110-44z"/><glyph glyph-name="Y" horiz-adv-x="1045" unicode="Y" d="M1437 1608q-5-37-131-137l-167-134q-17-13-99-97l-227-322q-179-254-363-602-40-75-54-123-11-40-41-144-23-77-80-122h-67q-30 24-30 70 0 36 144 324 80 160 245 436 202 339 254 432-64-12-225-76-140-56-226-56-139 0-206 148-52 112-52 270 0 144 58 200 15-9 41-31v-59q0-413 171-413 191 0 511 196 134 85 484 304h45q13-64 15-64z"/><glyph glyph-name="Z" horiz-adv-x="2167" unicode="Z" d="M2336 59q-140 0-486 14l-239 10-1183-105q-37-3-59-3-121 0-227 47-93 40-93 79 0 110 324 386 14 12 599 474 323 255 323 316 0 70-233 70-92 0-146-5-33-10-103-23-97-4-256-21-14-2-98-27-64-19-96-19-34 0-57 30 21 46 93 80 20 5 82 18 365 76 544 76h7q391 0 391-134 0-67-88-172-147-175-385-369-300-244-415-335-46-35-165-125-99-76-142-145v-34q76-48 200-48 16 0 170 15l331 32q319 31 805 31 510 0 602-113z"/><glyph glyph-name="bracketleft" horiz-adv-x="1078" unicode="[" d="M1034-413q-42-73-58-73-9 0-41 6t-42 6q-6 0-18-14t-20-13q-3 0-54 17-14 4-25 8-35 2-107 13-39 7-53 7 0-2-32-12-37-11-75-11h-100q-97-11-318-30l75 1101q30 437 30 530v5l-1 205q-1 207-13 286-1 7-1 16 0 24 13 87 13 69 15 81l26 24q112 0 336 23h5q46 0 127 12 11 4 29 7 20 4 62 4 28 0 64-2h38q53 0 86 8 26-21 26-69 0-65-115-66-99-1-171-9-37-15-129-21-65-4-130-7-75-5-85-9-38-12-38-53 0-5 1-41 1-41 1-77l1-119v-21q0-146-19-349-21-226-21-259 0-274-31-669-3-39-30-259-12-96-12-113 0-97 90-97 14 0 54 4t47 5q93 4 115 4 4 1 42 13t48 12 51-10q41-9 52-9 5 0 21 7 16 5 23 5 30 0 192-46 23-13 69-38zm-283-57q-7 2-11 2 6-1 11-2z"/><glyph glyph-name="backslash" horiz-adv-x="1028" unicode="\" d="M994-248q-137 42-187 157-27 87-85 258-79 179-140 324-23 55-40 115-4 17-13 50-23 29-68 101-3 4-41 99-124 312-363 957l17 57h46q138-229 289-646 165-455 333-835 69-155 252-567v-70z"/><glyph glyph-name="bracketright" horiz-adv-x="1053" unicode="]" d="M994 1321q0-15-37-207-15-81-25-238-13-185-23-238-20-101-44-232-2-75-9-166-30-441-77-707-167-73-270-73l-104 8q-107 7-151 7-104 0-167-9-44-7-65-18l-16-8q0 1-55 12-16 32-16 98v17q17 14 41 35 8 3 307 3 6 0 31-6 23-7 28-7 69 0 169 20 134 26 141 65 26 113 48 314 24 205 89 790 4 61 20 233 12 91 42 352 14 129 14 168 0 120-48 151-72 49-252 49-12 0-81-5-70-4-83-4-25 0-172 9-146 8-171 8-5 23-14 74 11 8 55 35 18 1 111 16 86 15 117 15 10 0 67-14t67-13q11-1 83 13t84 14q20 0 144-24 120-24 152-34 22-6 70-62v-441z"/><glyph glyph-name="asciicircum" horiz-adv-x="966" unicode="^" d="M963 1446q-1-22-37-56t-61-34q-6 0-153 160-147 161-155 161-34 0-190-158-53-55-195-198-44-44-142-69-19 17-19 67 0 37 18 59 17 20 176 165 232 211 337 338h3q21 0 64-27 46-28 64-53t71-93q33-37 119-134 100-114 100-128z"/><glyph glyph-name="underscore" horiz-adv-x="3072" unicode="_" d="M3032-189q-12 0-70-26t-64-26q-13 0-60 21-53 22-68 25-51 10-129 13l-855 32h-10q-61 0-337-13-269-15-346-15-5 0-41 14t-43 14q-9 0-61-20t-61-20q-22-1-138-7-245-15-418-23l-40-32q-7 0-67-8-54-8-77-8-108 0-108 71 0 37 31 77 202 33 347 33 7 0 40-7 33-6 39-6 5 0 50 10 11 2 27 3l893 45 1330-33q5 0 50 20 44 18 52 18 39 0 74-44 44-53 60-61v-47z"/><glyph glyph-name="grave" horiz-adv-x="739" unicode="`" d="M719 1508q0-11-21-31-35-33-71-33-21 0-82 31l-86 42q-83 42-186 121-112 86-195 109-44 55-44 86 0 30 8 37 6 5 39 5 53 0 160-62 255-151 468-292z"/><glyph glyph-name="a" d="M999 3q-21-29-46-29-16 0-108 96-92 97-123 97 0-2-218-84-223-83-284-83-50 0-111 49t-61 92q0 111 243 259 228 140 348 140 50 0 90-57v-43q-20-29-46-29-5 0-34.5 13t-35.5 13q-40 0-183-82-136-77-182-115-46-40-59-91 35-33 83-33 25 0 241 83 215 84 260 84 66 0 95-33 7-8 51-90 33-62 80-112v-45z" unicode="a"/><glyph glyph-name="b" horiz-adv-x="1457" unicode="b" d="M1411 417q0-76-169-176-126-76-245-113-109-33-272-52-46-6-278-32-27-3-155-27-104-19-147-19-25 0-77 30 28 66 69 80 64 21 232 34 104 8 398 39 94 11 304 95 223 89 223 155v4q-6 57-144 97-111 32-204 32-9 0-13-1l-670-126q-5-1-13-1-39 0-128 29v272q0 128 17 360l43 578q7 98 37 160h58q31-47 31-117 0-12-1-23l-70-1059v-3q0-20 21-43 21-25 43-25 9 0 182 23l377 49q140 18 154 18 139 0 254-54 143-67 143-184z"/><glyph glyph-name="c" horiz-adv-x="1045" unicode="c" d="M1006 142q-59-36-121-49-98-20-285-49-123-20-148-20-126 0-251 51-159 64-159 169 0 119 171 212 249 135 312 135l126-13q-13 0-15-24-4-33-6-35-98-31-252-110-195-100-195-152 0-97 244-125 43-4 56-4h3l502 76 18-15v-47z"/><glyph glyph-name="d" horiz-adv-x="1314" unicode="d" d="M1241 594q-130-57-414-148-267-86-324-106-240-89-284-146 1-28 23-40 51-29 215-29 57 0 263 44 276 58 506 121-12-63-52-84-42-23-309-102-276-82-318-82-13 0-93-6t-94-7q-82 0-184 39-123 47-123 116 0 88 55 123 9 5 124 58 241 109 404 143 55 12 142 50 99 45 140 57l114 22q57 12 100 56-28 355-28 875 0 296 46 312 38-17 49-31 19-24 23-89-1 0-1-230l1-673q0-117 19-243z"/><glyph glyph-name="e" horiz-adv-x="1053" unicode="e" d="M613 452q-56 57-180 57-87 0-161-34-96-44-96-119 0-27 18-38h64q34 0 184 57t171 77zm412-399q-37-44-96-44h-354q-123 0-274 37-198 48-224 121-29 82-29 157 0 151 130 232 110 70 268 70 136 0 216-58.5t80-159.5q0-56-192-123-159-57-231-57-9 0-16 1 0-14-22-34 12-20 117-46 94-24 134-24h318q0-1 120-18 38-24 55-54z"/><glyph glyph-name="f" horiz-adv-x="1528" unicode="f" d="M1606 1618q198-91 199-234-2 0-16-53-175 244-503 244-110 0-235-53-134-55-194-137-68-93-135-281-72-197-72-299 0-32 13-132 13-109 15-129 44-35 67-35 10 0 48 10 39 10 41 10 77 8 338 8 171 0 325-10-9 0-43-27l3-28-371-22q-226-13-348-92 30-106 129-279v-55q-10-18-38-18-27 0-138 181-113 180-138 180-58 0-166-22-33-8-132-44-98-37-114-37-55 0-121 68v4q0 45 42 64 116 54 462 86 20 14 30 30-14 118-14 231 0 390 171 647 195 296 567 296 169 0 328-72z"/><glyph glyph-name="g" horiz-adv-x="1006" unicode="g" d="M792-240q0 42-17 64h-42q-22-11-83-63-70-9-161-29-432-96-730-256-141-77-141-195 0-142 305-216 97-24 195-24 171 0 273 48 36 31 64 48 19 12 70 49 112 87 194 272 73 165 73 302zm115 24q0-210-101-416-116-232-317-350-112-67-449-67-54 0-160 22-107 23-163 45-79 31-129 79-34 32-65 104-30 71-30 118 0 135 293 277 204 98 469 169 192 52 502 88l22 11q1 11 1 22 0 9-19 151-6 43-47 146-45 112-68 118 1 0 1-1 0-6-114-44-135-45-192-45-81 0-140 28-78 37-78 106 0 23 7 65l10 53 40 48q47 26 142 59 106 38 143 38h286l15-61-44-38q-28 2-55 2-350 0-440-138 50-59 133-59 33 0 186 77 138 69 138 76 0 1-1 1 53 0 98-121 126-330 126-563z"/><glyph glyph-name="h" horiz-adv-x="1116" unicode="h" d="M1082-172l-31-28q-127 51-127 170 0 8 2 54t3 53q0 134-146 134h-28q-110 0-393-69-142-34-147-34-68 0-160 66l79 858q54 587 167 842 24-6 74-15-27-91-76-408-47-295-57-412-21-233-42-495-17-219-17-251v-14q0-29 8-36 8-6 44-6 11 0 47 10l36 10q26 3 310 44 181 26 191 26 4 0 28 1t28 1q30 0 49-8 91-36 114-156 9-45 9-205 0-55 35-87v-45z"/><glyph glyph-name="i" horiz-adv-x="433" unicode="i" d="M270 206q-12-162-12-188-48-27-86-27-16 46-16 114 0 378 94 401 26-12 33-37 1-11 1-27 0-71-14-236zm94 764l1-4q0-39-82-95-24 7-98 82 30 72 65 72 33 0 114-55z"/><glyph glyph-name="j" horiz-adv-x="529" unicode="j" d="M435-729q1-18 1-34 0-142-33-200-29-53-217-84-136-22-252-22-128 0-213 74-81 70-82 170 0 6 1 13 169-145 220-145 372 0 416 90 32 65 32 222 0 44-2 64l-51 974v8q0 35 17 78 22 57 53 57 57 0 68-244 2-50 5-289 12-56 23-127zm-62 1717q0-46-77-110-81 33-81 95 0 36 74 74 84-25 84-59z"/><glyph glyph-name="k" horiz-adv-x="1122" unicode="k" d="M990 18v-6q0-34-48-71-47-37-85-42h-4q-31 0-106 60l-105 85q-31 35-89 101-14-5-228-90-71-28-151-52-11-1-22-1-75 0-83 73-1 3-1 9 0 47 28 248l39 283q36 269 52 550 1 10 24 487 3 77 11 140 5 31 48 62 47-17 56-76v-12q0-46-9-263-7-133-62-765v-77q0-63-2-124-1-23-24-140-18-94-18-118v-4l13-111q30-3 36-5 81 35 171 65 235 77 376 145 29 14 179 83l41 5q35-17 43-108-29-20-167-77-120-50-151-96 63-130 238-158z"/><glyph glyph-name="l" horiz-adv-x="448" unicode="l" d="M327 1710l-57-1264q-5-4-5-24t5-55q11-94 52-356-2-9-34-20-6-1-11-1-105 0-136 242-1 5-1 20 0 47 5 193 7 188 17 393 3 78 23 290 19 194 19 288 0 287 38 401l15 1h5q34 0 46-38 9-25 19-70z"/><glyph glyph-name="m" horiz-adv-x="1616" unicode="m" d="M1570 365q0-29-7-189-7-161-7-189-29-2-57-27-73 59-73 182 0 13 6 93 7 80 7 94 0 60-19 95h-35q-44 0-338-181l-292-181q-44 0-119 56-2 9-2 20 0 12 9 84t9 85q0 63-28 103h-34q-45 0-438-359h-58q-26 39-26 57 0 28 130 111 19 12 228 202 158 143 245 143 94 0 94-217 0-18-2-59-4-41-4-60 37-8 39-10 40 14 339 194 24 22 79 57 189 82 259 82 95 0 95-186z"/><glyph glyph-name="n" horiz-adv-x="1041" unicode="n" d="M940 540q0-21-21-239-18-181-44-394-2-16-32-16-39 0-64 98-19 75-19 133 0 22 26 158t25 157q0 59-32 59-41 0-175-71-116-62-169-101-101-74-229-223-21-24-82-92-24-25-95-26v67q0 47 184 207 147 128 308 232 226 147 336 147 29 0 56-32t27-64z"/><glyph glyph-name="o" horiz-adv-x="1243" unicode="o" d="M1064 373q0 74-89 141-82 63-162 63-15 0-233-43-84-17-153-65-236-168-236-232 0-54 129-98 110-38 179-38 103 0 289 42 170 38 242 115 34 35 34 115zm102-8q0-107-45-183-41-69-291-136-223-60-339-60-136 0-269 65-161 80-161 199 0 53 61 108 54 39 163 147 72 88 264 142 162 46 303 46 38 0 114-33 76-35 104-64 28-31 62-111.5t34-119.5z"/><glyph glyph-name="p" horiz-adv-x="1076" unicode="p" d="M398 276q0-13-38-93-45-91-50-108-161-538-183-992-58-13-58-15-23 1-45 24-24 24-24 47 0 278 196 939 27 91 77 181 17 31 93 68 32-22 32-51zm656 174q0-102-195-237-137-96-286-160-106-47-144-47h-41l-28 31q21 53 54 79 40 16 109 44 401 155 401 303 0 96-278 96-137 0-271-22-191-32-235-95-13-53-44-146-59 91-59 148 0 62 33 101 39 47 265 97 203 45 294 45 425 0 425-237z"/><glyph glyph-name="q" horiz-adv-x="1076" unicode="q" d="M1025 138q0-73-49-200-22-56-78-201-74-209-79-239-8-56-24-169l-61-400-23-29h-70q-17 12-17 44 0 245 89 563 5 35 83 298 3 11 49 134 38 100 38 122 0 45-38 45-27 0-289-56-160-34-360-34-57 0-115 45-60 45-60 90 0 35 29 94t56 74q55 32 228 65 158 30 241 30 77 0 128-41-5-28-14-84-29-16-83-16-10 0-64 19t-64 19q-40 0-160-51-122-53-155-84 21-47 81-47 2-1 26 1t29 2q10 0 168 28l345 64q129 23 141 23 72 0 72-109z"/><glyph glyph-name="r" horiz-adv-x="1001" unicode="r" d="M935 518l-32-29q-105 33-163 33h-8q-75-4-110-4h-80q-2 0-70-22-43-3-127-22-134-59-160-208-11-59-11-104 0-12 1-24 8-111 8-131-23-6-74-12-28 54-28 75 0 11 5 57 3 46 3 62 0 84 74 289 25 52 72 85 102 70 377 70 276-1 323-73v-42z"/><glyph glyph-name="s" horiz-adv-x="775" unicode="s" d="M725 241q0-85-55-113-41-19-200-68-165-51-202-51-6 1-16 7t-15 6q-22 0-85-64-44 33-44 51 0 112 337 180 21 5 78 15 16 11 49 44-32 53-99 79-67 23-242 91-174 67-174 151 0 109 218 109 83 0 213-19 152-22 198-50l-16-26-371-19q-3-4-24-20l267-119q183-81 183-184z"/><glyph glyph-name="t" horiz-adv-x="1085" unicode="t" d="M1098 676q-229 0-394-76-40-18-49-51-2-47-16-171-5-46-5-95 0-11 4-67t5-65q0-79-39-131-8 2-44 17-39 101-39 235 0 33 11 132 10 97 10 131 0 30-21 45-18-7-128-18-19-4-114-18-17-2-62-7-10-1-49-32-10-9-10-39v-7h-44q-14-1-62 41t-48 54q0 62 220 92 269 37 321 65 30 18 66 395 18 186 74 477 5 25 16 77 4 11 70 43l17-123q-5-25-19-105l-42-257q-7-32-16-123l-17-357 404 4v-66z"/><glyph glyph-name="u" horiz-adv-x="1021" unicode="u" d="M1054 564q0-42-152-210-134-148-199-196-33-24-141-104-45-32-138-63-95-31-149-31-102 0-169 131-55 107-55 223 0 96 40 197 15 0 31 14 19-11 52-42-10-79-10-138 0-242 157-242 152 0 365 189 34 30 320 299h16q32 0 32-27z"/><glyph glyph-name="v" horiz-adv-x="1148" unicode="v" d="M1162 668q-75-34-182-95-9-5-138-136-446-452-546-452-23 0-86 105-58 95-71 130-15 45-56 161-30 83-88 148v84q52 12 52 14 27-13 149-230 130-231 157-231 34 0 224 181 214 205 242 224 131 92 261 173h66l16-15v-61z"/><glyph glyph-name="w" horiz-adv-x="1639" unicode="w" d="M1612 468q-106-87-206-195-310-335-418-335-87 0-194 157l-154 228q-44-7-159-160-108-146-198-146l-28 15q-31 57-117 251-94 210-94 239 0 51 60 84 60-72 118-200 87-189 100-212h49q20 37 94 114 26 40 77 111 59 84 100 84 38 0 64-42 38-60 136-215 108-168 159-168 38 0 284 218 247 218 271 218h56v-46z"/><glyph glyph-name="x" horiz-adv-x="1164" unicode="x" d="M1113 169q0-77-95-77-36 0-260 161t-236 161q-152 0-331-293-16-25-19-62-3-48-7-63-12-46-71-70-2 21-20 83-15 54-15 83 0 74 82 178 42 52 265 253-48 58-138 98l-154 68q-17 45-17 59 0 64 59 64 5 0 184-96 177-97 187-97 7 0 215 91t249 91q45 0 122-57v-44q-6-2-108-13-19-2-232-59-57-15-123-105 101-122 334-269 120-76 129-85z"/><glyph glyph-name="y" horiz-adv-x="911" unicode="y" d="M875 406q0-11-13-57-14-48-14-53v-7q0-26-4-72-50-118-131-356-27-29-106-198 2 1 2 2v-1q0-3-57-157-31-83-85-214-7-34-22-115-2-14-26-74-20-49-20-74 0-9 4-16-19-32-71-84h-44q-30 56-30 82 0 99 132 438 52 134 128 309 25 45 81 166 19 59 40 104 19 29 65 162-3 3-3 10 0 10 5 26 2 8 2 13 0 10-7 10-9 0-120-45t-118-45q-21 0-101-13t-92-13q-81 0-147 131-58 115-58 210 0 28 29 83h58q74-310 208-310 113 0 272 117l178 131q65-23 65-90z"/><glyph glyph-name="z" horiz-adv-x="1322" unicode="z" d="M1315 125q-61-26-121-46-48-16-185-29l-187-17q-23-10-90-31-166-42-354-42-61 0-158 21-115 24-137 60v84l296 227q169 130 268 259-15 44-48 44h-3l-19-1q-13-1-176-39t-185-38q-16 0-82 29 0 4-2 26t-3 25q0 21 7 34l596 104q69-18 69-109 0-122-207-310-15-14-306-268 17-20 55-20h27q0 2 324 30 157 13 397 36 2 0 41 12t49 12q70 0 134-53z"/><glyph glyph-name="braceleft" horiz-adv-x="863" unicode="{" d="M909 1796l-4-7-12-9-274 9h-6q-68 0-102-46-7-18-50-108 4-24 8-70 2 2 5 4-5-16-11-32 10-60 40-190 15-33 37-106 33-171 33-227 0-14-13-88t-16-79q-15-28-59-64-51-40-66-58 53-92 95-131 10-8 30-23 16-18 16-55 0-133-35-212-9-58-40-169-35-78-70-161-38-90-38-169 0-127 84-175 17-10 100-26t114-16q3 0 35 2t38 2q4 0 17-2 16-13 45-23l2-17q-7-15-11-31-21-10-51-24-47-22-100-22-67 0-246 58-16 19-35 30-78 48-106 81-41 47-41 125 0 61 24 173 17 79 89 227l5 19q36 94 85 297-55 114-152 125-23 0-69 7l-32-4q2-23 22-60l-45 63q-22 12-41 16-12 20-20 29v12q0 22 66 45 132 45 212 133t81 191q0 20-3 40l-80 478q5 29 16 124 5 44 13 65 13 34 40 49 7 4 102 30t107 28q75 12 123 12 13 0 65-11 53-11 56-13 5-8 10-31zm-435-227q12 14 12 33v6q-6-20-12-39z"/><glyph glyph-name="bar" horiz-adv-x="514" unicode="|" d="M189 1870l2-2q13-17 40-44 40-86 40-172v-5l-19-1821q-2-86-15-136l-5-1q-17 5-27 5h-3q-15 10-42 32h-2q-15 111-15 120l8 1352q3 90 11 361 0 46 3 178 1 47 24 133z"/><glyph glyph-name="braceright" horiz-adv-x="823" unicode="}" d="M-30 1776l13 16q6 21 11 32 3 2 55 12t65 11q55 0 123-11 13-2 108-29t101-31q36-19 45-61 25-114 25-176l-80-479q-3-19-3-39 0-104 81-192 79-89 212-133 65-23 65-44v-12q-7-10-19-30-18-4-41-16l-2-4-4-4q-8-16-14-16-4 0-4 11l1 11-33 4q-63-8-69-8-96-10-151-123 10-75 33-138 31-88 57-180 72-147 89-226 23-109 23-173 0-78-40-126-21-23-77-61-50-32-65-49-179-57-247-57-46 0-100 21-32 15-49 25-5 16-11 30l2 15q27 12 44 26 13 2 18 2t36-2 36-3q31 0 115 17 82 15 100 26 84 48 84 175 0 79-39 169l-68 161q-32 111-42 166-35 82-35 215 0 33 16 52l30 23q41 37 96 133-14 16-67 59-42 34-57 61-5 7-18 80-13 74-13 89 0 56 34 227 21 73 38 106 29 130 39 191l-10 30 4-4 7 70q-42 91-51 109-33 46-102 46h-5l-273-9-13 10zm437-227l-14 41 1-7q0-19 13-34z"/><glyph glyph-name="asciitilde" horiz-adv-x="1821" unicode="~" d="M1785 1675q-84-58-187-138-146-115-191-140-108-61-224-61-39 0-177 60-140 61-154 86-86 142-121 169-59 46-204 46-111 0-210-71-57-40-139-129-66-71-93-71-59 0-59 53 0 101 187 246 179 138 289 138 163 0 273-88 73-71 213-205 27-27 100-51 86-27 128-27 82 0 290 134l209 135q7-2 70-14v-72z"/><glyph glyph-name="nonbreakingspace" horiz-adv-x="870"/><glyph glyph-name="exclamdown" horiz-adv-x="553" unicode="¡" d="M549 1770q0-40-56-95h-39q-22 1-54 39t-31 64q0 28 23 58t47 31q40 0 75-30t35-67zm-94-426q0-12-44-194-43-182-176-944-17-100-72-466-16-2-31-16-54 20-54 63 0 6 7 37 6 32 6 38l-1 8q-30 51-30 99 0 175 210 1170 46 212 113 288 72-34 72-83z"/><glyph glyph-name="cent" horiz-adv-x="982" unicode="¢" d="M542 860l-85 16q-107-68-126-83-83-63-84-109 2 0 17-61 6-4 76-48 56-33 74-33 14 0 128 318zm398-379q-308-79-308-81-6 0-22 7t-22 7q-63 0-81-35-75-150-85-394-2-36-39-73-59 28-59 148 0 36 23 146 26 126 30 156-84 50-228 170-11 12-35 105-3 6-20 41-15 31-15 44 0 48 107 161 101 105 155 129 104 19 232 48 48 17 136 264 82 234 161 234 59 0 59-65 0-13-26-44-30-32-35-43-63-116-77-231-46-45-46-110 0-54 61-79 74-32 83-37v-84q-65 0-194-6-53-61-113-282 68-35 147-35 78 0 155 38l56-55v-44z"/><glyph glyph-name="sterling" horiz-adv-x="1798" unicode="£" d="M716 430q0 35-59 68-52 28-89 28-180 0-313-113-92-78-92-117 0-64 60-116t132-52q46 0 60 4 64 14 180 123 121 113 121 175zm1027-294q0-78-187-132-148-43-256-43-109 0-186 59-41 31-136 145-76 90-140 143-68-88-169-201-169-133-281-133-134 0-238 91-103 91-103 211 0 5-2 31-1 25-1 30 0 54 59 136 24 34 141 95 29 16 103 57 62 32 114 32h61q16 1 20 1h83q26 0 85-21 29-10 59-22l76 278q-15 20-41 20l-146 1-147 1q-11 50-13 50 0 35 42 69t86 33q12 0 80-13t80-13q64 0 79 59 9 77 21 153 9 59 56 246 4 33 22 92 24 41 96 74 72 31 137 31 35 0 182-69 27-12 69-103 38-85 38-123 0-33-19-62-20-28-45-28-50 0-60 74-13 99-20 108-16 23-91 44-65 19-105 19-91 0-134-206-28-133-28-286 45-15 132-23 85-8 131-18 95-22 251-101-5-19-13-59-34-7-74-7-28 0-187 30t-186 30q-22 0-44-2-15-24-50-188t-35-205q0-37 153-238 67-87 129-125 69-42 173-42 193 0 350 88 7-15 15-30 14-29 14-38z"/><glyph glyph-name="yen" horiz-adv-x="1385" unicode="¥" d="M1427 1488l-387-443q-306-349-306-432 0-47 10-59t53-12q29 0 131 2l130 2q136 0 215-6l-5-34q-58-54-129-54-7 0-23 6t-23 7q-13 0-120-18 0 2-134 5h-6q-122 0-137-132 15-21 44-21 6 0 34 10t31 10q102 13 294 13h88l84-1v-83q-27 6-55 11-12 0-50-17-19-9-39-18-90 0-231-20-92-14-126-26-66-21-85-69-20-100-22-104-20-55-77-80-44 35-44 88 0 6 3 36 4 29 4 34 0 47-84 47-18 0-120-19-103-18-121-18h-131q-12 54-14 54-1 0-1-4 0 76 207 98 191 19 204 22 48 7 58 28l20 76q-16 21-51 21-111 0-198-17-12-2-96-29-60-19-93-19-34 0-76 41v62q48 28 166 60 117 30 174 30 6 0 26-5 18-7 26-7 23 0 78 22t70 36l-451 783q16 71 71 71 48 0 217-272 181-294 245-332 83 83 274 306 54 67 199 242 156 185 210 185 15 0 69-57z"/><glyph glyph-name="section" horiz-adv-x="1185" unicode="§" d="M841 796q0 52-51 127t-104 96q-54 22-130 46-86 15-244 43-21 14-42 14-35 0-74-75-34-65-34-100 0-31 77-95 64-54 88-62 43-16 164-54 169-48 264-48 26 0 56 38t30 70zm227-475q0-77-40-139-12-19-35-35-45-22-181-94-119-64-129-64h-236q-56 0-182 69l-147 80v86l10 5q10 6 19 6 12 0 75-46 74-51 100-62 93-37 176-37 20 0 167 20 46 7 142 66 53 26 106 53 46 29 46 96 0 56-37 123-44 83-114 109-22 3-64 6-12 8-35 23h-6q-148 0-457 123-42 16-118 101-67 76-67 150 0 43 50 144l50 99q-3 0-32 73-32 85-32 132 0 235 130 328 41 30 141 80t115 50q54 0 138-22 49-12 136-64 39-22 39-72 0-18-17-38t-32-21q3 0 3 1 0 9-68 53-83 55-144 55-49 0-68-11l-93-51q-28-8-81-41-98-81-98-241 0-32 32-95 48-93 169-114 54-7 194-31 89-17 193-83 44-28 110-136 63-100 63-131-1-4-19-90t-18-91q0-7 54-74 56-70 70-101 22-53 22-147z"/><glyph glyph-name="dieresis" horiz-adv-x="1012" unicode="¨" d="M337 1482q-17-17-61-40h-8q-11 0-23 4-22 6-32 7h-10q-15 0-29-1-20 0-34 20-8 11-8 25 0 4 1 9l-1 59 36 64 74 48 107 5q43-40 43-92 0-25-10.5-50t-44.5-58zm530 98q-17-49-61-85-53-44-102-44h-6q-53 3-89 41l-27 32q-14 18-14 41v9q2 24 28 40 25 14 49 28 32 24 91 59l106-44q3-18 14-51 2-8 9-26h2z"/><glyph glyph-name="copyright" horiz-adv-x="1466" unicode="©" d="M1049 668q0-77-117-152-106-66-185-66-54 0-220 41l-76 100q-59 77-59 96 0 172 58 235 140 156 297 156 79 0 133-36t53-92q0-26-31-52-11 5-65 23-46 16-64 16-54 1-146-65t-92-109q0-159 224-159 54 0 127 53 87 63 117 75 46-15 46-64zm231 83q0 173-30 259-18 50-87 121-74 76-121 76-5 0-35-6-29-7-35-7-18 0-146 32t-143 32q-12 0-45-11t-34-11q-99-17-143-40-114-58-188-189-73-132-73-275 0-80 39-174 44-107 106-131 241-93 338-93 56 0 210 34 154 35 203 59 56 28 120 142t64 182zm128 19q0-266-232-436-212-156-488-156-137 0-300 65-178 72-248 174-21 30-63 128-44 103-44 128 0 10 9 33 10 24 13 32 0 22 4 83 11 147 81 268 151 265 425 318 93 18 251 18 0-1 371-95 221-177 221-560z"/><glyph glyph-name="ordfeminine" horiz-adv-x="895" unicode="ª" d="M826 1222q-32 23-176 141-26 102-90 102-16 0-193-52t-193-52q-26 0-74 43t-48 66q0 124 350 382 79 23 125 23 57 0 136-51 84-57 84-109 0-35-45-71l-72 59q-39 31-83 31-158 0-277-175 0-1-1-9t-1-9q0-13 22-13 10 0 155 58 143 58 153 58 59 0 159-152 76-118 117-214v-43q-41-9-48-13zm0 0l-1-1q0-1 4-1-2 1-3 2z"/><glyph glyph-name="guillemotleft" horiz-adv-x="1203" unicode="«" d="M660 977q0-41-206-243t-205-213q0-27 186-238 186-210 186-230v-55q-24-30-58-30-31 0-126 94-74 73-115 127-96 127-249 259-18 35-18 66 0 68 115 158 76 60 170 133 79 90 248 255 72-37 72-83zm461-917q-41-14-122-41-15 19-47 59t-59 40q-13 0-26-8l1 8q0 19-46 68-18 19-64 68-21 22-170 152-135 116-135 154 0 49 66 105 44 36 104 85 102 109 326 310 70-53 70-83 0-16-186-199-186-185-186-205 0-34 149-160 51-43 185-154 39-32 140-140v-59z"/><glyph glyph-name="logicalnot" horiz-adv-x="2147" unicode="¬" d="M2136 535q0-16-39-108-24-57-49-120l-55-193q-46-114-139-117 0 1-8 25t-7 31q0 58 68 272 9 32 22 75v74q-17 22-31 22-8 0-44-6t-41-5q-7 0-50 12t-52 12q-23 0-164-16-99-11-382-36l-1060-77h-6q-27 0-54 19-30 20-30 45 0 30 32 60t64 31l1908 90h5q40 0 75-26 37-29 37-64z"/><glyph glyph-name="registered" horiz-adv-x="1567" unicode="®" d="M951 930q0 30-47 63t-88 33q-40 0-138-39t-124-66q0-113 29-383 95 123 159 150 7 1 39 8 170 171 170 234zm412-186q0 106-53 251-58 157-129 217-143 122-262 122-21 0-54-26-40-32-51-35-122-40-216-40-5 0-25 19t-26 19q-37 0-125-81-72-66-108-115-56-73-90-230-30-134-30-249 0-40 52-141 46-93 77-130 38-44 158-75 8-2 77-26 60-20 72-20 20 0 122 16 151 25 289 54-34 17-233 105-144 63-225 127v-85q0-89-69-89-29 0-62 23-4 44-4 384 0 95-3 114t-24 51q-22 30-22 45 0 70 182 142 159 64 248 64 95 0 173-78t78-173q0-88-140-236-56-46-129-126 192-77 392-197 160 122 160 399zm141 39q0-146-44-292-50-169-129-259-51-59-177-108t-222-49q-26-1-179-13t-180-12q-16 0-46 14-35 17-46 19-45 12-141 49-124 68-206 203t-81 274q0 8 8 57t8 58q0 8-3 52t-3 51q0 65 60 194 53 115 101 178 105 141 257 207 33 15 206 34 28 3 101 20 67 17 99 17 181 0 331-120t233-328q53-133 53-246z"/><glyph glyph-name="macron" horiz-adv-x="1068" unicode="¯" d="M1030 1668q-13-6-57-26-39-17-57-17-19 0-87 11l-243 39q-87 13-107 13-21 0-160-25-141-26-161-26-40-1-72 29t-32 68q0 18 29 44 31 25 55 30 63 5 185 18l188 18q29 0 199-12t199-11q49 0 77-59 39-86 44-94z"/><glyph glyph-name="degree" horiz-adv-x="807" unicode="°" d="M628 1596q0 50-46 86t-108 37q-35 0-114-63t-79-93q0-47 73-78 56-23 114-23 46 0 103 46 57 47 57 88zm141-116q-165-161-327-161-108 0-234 74-6 3-14 3h-16q-35 0-46-13-70 86-70 117 0 70 80 192t144 150q73 30 195 30 90 0 182-44 30-15 65-81 34-65 34-105 0-8-8-54t-7-54q0-31 22-54z"/><glyph glyph-name="plusminus" d="M993 195q0-48-43-81l-154-20q-113-14-399-54-63-8-162-8-95 0-126 7-79 16-79 79 0 4 55 69h347q10 0 71 14 144 34 201 34 11 0 77-2t78-2q71 0 117 8 17-17 17-44zm-38 475q-31-58-71-58-9 0-64 6t-65 7q-103 0-123-70-5-58-15-141-10-85-95-110-20 31-20 92 0 9 3 60 2 50 2 60 0 56-18 72-31 26-164 26-96 0-141 41 15 39 56 93 94 2 281 20 44 106 54 125 45 86 82 90 15-64 15-160 0-23-1-48 22-11 154-40 104-24 130-65z" unicode="±"/><glyph glyph-name="acute" horiz-adv-x="870" unicode="´" d="M847 1801q0-5-115-71-40-23-178-96l-190-102q-17-13-48-37-166-125-228-125-58 0-58 40 0 46 56 74.5t169 82.5q57 44 179 121l126 60 74 50 77 42q16 2 77 26 59-36 59-65z"/><glyph glyph-name="mu" horiz-adv-x="2147" unicode="µ" d="M1337 1179q0 59-31 169-26 96-130 166t-219 69q-110 0-233-181-22-34-59-222-11-48-38-171-23-105-23-170 0-10 5-61 3-51 3-60 0-28-4-45l649 51q13 69 56 303 24 130 24 152zm873 154q0 133-79 231t-190 97q-125 0-262-105-139-107-153-221l-31-38q-13-67-62-277-31-134-31-151v-118q66-13 66-15 36 1 185 41 260 69 337 132 220 178 220 424zm39 19q0-116-54-215-31-57-133-180-30-35-102-114-16-16-134-81-104-56-145-74-131-56-228-56-26 0-33 13-32-29-32-76 0-9 6-22 6-15 6-18h185q8 0 46 13 39 13 46 13t388 16l30-17v-33l-33-38h2q0-4-218-39-39-4-232-27-137-16-224-64v-10q0-17 12-112t12-110q0-132-98-143-12 11-29 15 1 9 1 22 0 42-46 339-3 9-18 9-18 1-101-19t-95-20q-48 0-90 43 26 80 142 98 136 19 167 59v64q-20 33-58 33-13 0-152-20l-271-37q-88-12-134-44v-18q0-20 6-126t6-121q0-85-32-220-13-54-79-83-27 32-27 66 0 22 8 147t8 146q0 217-64 220-2-5-416-79-28 25-28 47 0 75 215 110 230 37 241 58 25 411 54 547 67 307 262 467 38 31 173 31 332 0 437-321 123 194 221 271 131 101 324 101 144-1 226-111t82-300z"/><glyph glyph-name="paragraph" horiz-adv-x="1330" unicode="¶" d="M784 1605h-46q-78-31-109-44-72-29-88-66 64-15 64-73v-39q0-12-15-113l-38-260q-12-79-12-91 0-19 41-39 34-15 60-17 52 192 106 465 37 190 37 219v58zm528 66q0-73-70-355-43-173-159-668-13-56-63-373-13-78-30-199-35-127-127-127-22 0-44 22t-22 43q0 4 34 77 35 77 39 96 14 64 51 245 29 157 111 605 9 51 97 372 41 153 41 168v46q-61 24-160 24-68 0-97-16l-83-431q-11-58-63-435-21-131-78-502-34-238-34-358v-4q-16-7-44-7-12 0-53 3-40 2-42 2-11 48-14 57 0 15 30 148 23 101 67 315 4 90 30 268-25 25-95 35-92 11-106 15-135 46-238 136-125 110-125 233 0 129 85 275t208 232q44 31 148 75 29 20 90 55 143 57 637 57 79 0 79-129z"/><glyph glyph-name="cedilla" horiz-adv-x="950" unicode="¸" d="M914-155q0-225-364-251-41-1-157-11-40-3-97-14-18-3-18-5 0-1 5-1-38 0-113-7-80-8-113-10l-29 20v92q0 6 14 42t13 43l31-24q12 0 110-15 84-12 120-12 83 0 248 40 195 49 195 101 0 79-74 125-39 23-151 56-97 28-122 54 0 26 3 81 7 41 83 175 77 139 108 139 51 0 51-55 0-29-34-109-40-93-44-125 34-23 137-50 32-8 74-47 55-51 66-59 58-139 58-173z"/><glyph glyph-name="ordmasculine" horiz-adv-x="870" unicode="º" d="M673 1708q-61 31-83 31-29 0-112-25-82-26-97-40t-15-49h22q200 0 285 83zm130-13q0-105-164-166-125-46-255-46-101 0-193 33-121 44-121 128 0 57 80 154 3 0 65 11 35 7 66 7 7 0 30-6 24-6 29-6 14 0 108 32t109 31q246 0 246-172z"/><glyph glyph-name="guillemotright" horiz-adv-x="1172" unicode="»" d="M724 731q0-37-56-97-28-31-84-87-180-224-327-315-18-26-64-69l-107-31q-31 22-31 46 0 36 238 292t238 261q-1 18-213 193t-212 192q0 23 22 47t42 24q59 0 427-292 32-26 73-63 54-69 54-101zm385 32q0-126-431-572-28-28-101-98-66-65-66-117 0-17 5-31-59-31-76-31-34 0-62 28t-28 62q0 23 31 93 30 71 51 98 17 22 75 57 53 30 231 247t178 251q0 41-200 211-170 142-205 174-51 47-57 68-2 8-2 49 0 46 47 77 89-54 256-174 46-59 146-172 115-86 126-95 82-72 82-125z"/><glyph glyph-name="questiondown" horiz-adv-x="1528" unicode="¿" d="M1475 1341q0-10-18-52t-18-46q-5-63-25-244-29-211-34-401-41-22-143-31-42-2-154-15-76-13-295-51-23-4-116-42-432-176-432-289 0-127 322-127 136 0 462 65 187 37 199 37 34 0 108-27-3-35-27-59-218-49-549-116-211-42-226-42-136 0-270 64-160 78-160 200 0 171 225 283 184 68 370 142 142 55 373 78 157 15 168 20 27 12 31 85 2 28 7 100 10 48 35 189 6 50 25 182 17 103 83 161 59-24 59-64zm90 367q0-39-55-94h-40q-22 0-54 38-31 38-31 63 1 30 23 60t47 30q41 0 75-30 35-29 35-67z"/><glyph glyph-name="Agrave" horiz-adv-x="1256" unicode="À" d="M1100 1537q0-11-20-30-32-29-64-29-18 0-74 28l-78 38q-75 38-169 110-100 77-176 98-40 50-40 78 1 27 7 33t36 6q48 0 145-58 231-136 423-263zm-75-1414v47q0 34-46 278l-78 420q-38 197-118 410-102-110-279-523l-54-126q-20-28-34-51t-61-133q-47-114-47-129 0-27 14-27l227 11q14 1 29 1 118 0 223-43 79-33 224-135zm158-141q0-58-73-58-28 0-39 4-271 278-529 278-56 0-238-46-57-14-100-97-10-20-57-136-11-10-51-29-26 24-26 68 0 156 75 325 20 30 56 94l149 321q178 387 338 660l1-26q39 18 58 97 17 70 54 70 3 3 8 3 24 0 37-38 3-10 23-96 74-312 154-724l48-253q17-34 46-103 13-44 38-157 28-125 28-157z"/><glyph glyph-name="Aacute" horiz-adv-x="1256" unicode="Á" d="M1134 1801q0-5-115-71-40-23-177-96l-191-102q-17-13-48-37-166-125-227-125-59 0-59 40 0 46 56 74t169 83q57 44 180 121l125 60 75 50 76 42q17 2 78 26 58-36 58-65zm-109-1678v47q0 34-46 278l-78 420q-38 197-118 410-102-110-279-523l-54-126q-20-28-34-51t-61-133q-47-114-47-129 0-27 14-27l227 11q14 1 29 1 118 0 223-43 79-33 224-135zm158-141q0-58-73-58-28 0-39 4-271 278-529 278-56 0-238-46-57-14-100-97-10-20-57-136-11-10-51-29-26 24-26 68 0 156 75 325 20 30 56 94l149 321q178 387 338 660l1-26q39 18 58 97 17 70 54 70 3 3 8 3 24 0 37-38 3-10 23-96 74-312 154-724l48-253q17-34 46-103 13-44 38-157 28-125 28-157z"/><glyph glyph-name="Acircumflex" horiz-adv-x="1256" unicode="Â" d="M1157 1534q0-48-56-48-15 0-33 10-16 29-66 61-9 12-57 87-50 79-78 79-6 0-159-122-154-121-165-121-16 0-34 14t-18 28q0 16 37 38 48 28 54 33 6 6 72 83 14 15 50 37 50 29 57 34 15 11 35 44t27 39q25 20 58 20 44 0 66-34 26-38 92-136 54-78 115-125 3-6 3-21zm-132-1411v47q0 34-46 278l-78 420q-38 197-118 410-102-110-279-523l-54-126q-20-28-34-51t-61-133q-47-114-47-129 0-27 14-27l227 11q14 1 29 1 118 0 223-43 79-33 224-135zm158-141q0-58-73-58-28 0-39 4-271 278-529 278-56 0-238-46-57-14-100-97-10-20-57-136-11-10-51-29-26 24-26 68 0 156 75 325 20 30 56 94l149 321q178 387 338 660l1-26q39 18 58 97 17 70 54 70 3 3 8 3 24 0 37-38 3-10 23-96 74-312 154-724l48-253q17-34 46-103 13-44 38-157 28-125 28-157z"/><glyph glyph-name="Atilde" horiz-adv-x="1256" unicode="Ã" d="M1342 1773q0-47-105-126-87-63-155-91-83-35-197-35 0 3-133 98-136 98-185 98-43 0-149-92l-107-92q-19 0-38 19-18 18-18 37 0 55 128 163 129 108 189 108 6 0 193-103 186-102 192-102 41 0 45 2 11 5 45 15h2q8 0 20 8 17 11 40 18 3 2 92 73 73 58 89 58 52 0 52-56zm-316-1650v47q0 34-46 278l-79 420q-38 197-118 410-102-110-278-523l-54-126q-19-28-34-51-14-23-60-133-48-114-48-129 0-27 13-27l227 11q14 1 29 1 118 0 223-43 79-33 225-135zm158-141q0-58-74-58-28 0-39 4-271 278-529 278-56 0-238-46-57-14-100-97-10-20-57-136-11-10-51-29-25 24-25 68 0 156 75 325 20 30 57 94l147 321q178 387 338 660l1-26q39 18 58 97 17 70 54 70 3 3 8 3 24 0 37-38 3-10 23-96 74-312 155-724l48-253q17-34 46-103 13-44 38-157 28-125 28-157z"/><glyph glyph-name="Adieresis" horiz-adv-x="1256" unicode="Ä" d="M646 1554q-17-18-62-40h-7q-11 0-24 4-21 6-31 7h-10q-16 0-29-1-21 0-34 20-8 11-8 24 0 5 1 10l-2 59 36 64 75 48 107 5q43-40 43-92 0-25-10-50t-45-58zm529 98q-15-49-60-85-54-44-104-44h-5q-52 2-88 40l-27 33q-15 18-15 41 0 5 1 9 3 24 27 39t50 29q32 24 91 59l106-45q4-17 14-50 2-8 8-26h2zm-150-1529v47q0 34-46 278l-78 420q-38 197-118 410-102-110-279-523l-54-126q-20-28-34-51t-61-133q-47-114-47-129 0-27 14-27l227 11q14 1 29 1 118 0 223-43 79-33 224-135zm158-141q0-58-73-58-28 0-39 4-271 278-529 278-56 0-238-46-57-14-100-97-10-20-57-136-11-10-51-29-26 24-26 68 0 156 75 325 20 30 56 94l149 321q178 387 338 660l1-26q39 18 58 97 17 70 54 70 3 3 8 3 24 0 37-38 3-10 23-96 74-312 154-724l48-253q17-34 46-103 13-44 38-157 28-125 28-157z"/><glyph glyph-name="Aring" horiz-adv-x="1256" unicode="Å" d="M913 1662q1-46-41-81t-92-35q-26 0-62 26t-37 46q-1 36 41 76t78 40q68 0 82-5 31-12 31-67zm117-31l-13 151q-60 47-70 55-68 31-146 31-67 0-147-93-81-92-81-167 0-35 38-92 39-58 72-74 26-13 61-18 2 6 3 13 17 70 54 70 3 3 8 3 24 0 37-38 2-6 9-37 15 7 32 16 51 30 80 71 14 30 20 45 11 16 23 30 20 26 20 34zm-5-1508v47q0 34-46 278l-78 420q-38 197-118 410-102-110-279-523l-54-126q-20-28-34-51t-61-133q-47-114-47-129 0-27 14-27l227 11q14 1 29 1 118 0 223-43 79-33 224-135zm158-141q0-58-73-58-28 0-39 4-271 278-529 278-56 0-238-46-57-14-100-97-10-20-57-136-11-10-51-29-26 24-26 68 0 156 75 325 20 30 56 94l149 321q178 387 338 660l1-26q36 16 55 84 23-3 49-3 29 0 62 14 5-23 14-59 74-312 154-724l48-253q17-34 46-103 13-44 38-157 28-125 28-157z"/><glyph glyph-name="AE" horiz-adv-x="2527" unicode="Æ" d="M1014 863v84q0 28-41 91 6 16 6 38 0 45-24 115-31 96-35 113-19-32-145-220-100-150-115-221 101 11 190 11 84 0 164-11zm1712-752q-77-25-131-25-17 0-29 2-188 16-383 16-388 0-587-26-34-5-147-34-100-27-134-27-63 0-92 53-3 6-34 182-5 26-73 308-7 31-28 121-6 13-30 41-55-10-257-24-164-12-250-43-23-8-62-63-15-22-56-78-95-127-314-527h-84q-15 18-15 68 0 56 69 153l107 144q55 98 178 291 26 57 84 168 155 243 451 735 46 157 125 157 24 0 166-23t166-23q47 0 317-10 269-10 316-10 76 0 119 9 26 4 134 40 96 33 116 33 21 0 76-35v-13q0-53 13-102-249-112-305-112-48 4-185 11l-685 36q-20 2-38 2-189 0-189-94 0-19 23-144 27-144 55-276 25-117 68-117 13 0 101 8t104 8h651q36-8 161-36 99-22 99-110 0-39-16-82-18 0-73 18l-58 20-485 51q-7 0-57-8t-58-7q-6-1-38 15t-39 16q-61 0-274-74v-58q0-22 47-186 42-147 58-192 15-41 55-41 19 0 35 23 30 8 102 8h908q14 0 126-24t126-25q12 0 19 2l31-36v-54z"/><glyph glyph-name="Ccedilla" horiz-adv-x="1844" unicode="Ç" d="M1115-351q0-149-242-165-26-2-103-8-38-4-61-8-16-4-16-5-25 0-71-5-53-5-75-7l-20 13v61q0 5 10 28 10 24 10 29l20-16q8 0 73-10 55-8 79-8 55 0 164 27 129 32 129 66 0 53-50 83-25 16-99 37-65 19-81 35 0 18 2 54 4 28 55 117 6 10 11 20-26-1-46-1-162 0-229 38-368 206-471 440-44 103-44 291 0 285 282 514 173 139 534 307 180 84 248 115 139 63 267 63 27 0 55-5-2-31-28-58-294-117-303-121-84-29-157-53-15-19-51-54l-196-101q-379-193-478-441-11-26-32-107-23-80-23-92 0-185 158-345 136-138 309-191 118-36 351-36 31 0 269 26l507 53 15-76q-56-24-186-56-42-12-66-19l-198-55q-30-11-253-25-83-5-146-8-6-17-16-40-26-61-29-82 22-16 90-33 22-6 49-32 36-34 44-39 39-92 39-115z"/><glyph glyph-name="Egrave" horiz-adv-x="1135" unicode="È" d="M1045 1557q0-10-21-25-35-26-69-26-21 0-80 24l-84 34q-81 33-181 96-108 68-189 86-43 44-43 68t6 29 39 5q52 0 156-50 248-119 455-231zm360-132q-30-11-86-50-24 2-54 2-144 0-454-50l-187-31q-9 0-60 6t-60 7q-43 0-105-24-69-28-85-61-23-50-39-167-15-106-15-179 0-7 18-57 162 24 201 24h467v-72q-46-5-122-5-28 0-118 2l-118 1q-73 0-186-46-22-5-102-21-64-13-86-53-38-334-38-473 28-35 58-41l130-26q63 0 140 7 177 15 409 15 51 0 91-3l41-3q27-5 27-24v-41q-49-23-188-23-21 0-65-15l-44-15q-11 0-69 8-49 7-68 7h-4l-13-2q-48-3-215-25-99-13-110-13-46 0-136 58-98 61-98 105 0 20 20 173 27 200 50 331-28 21-28 63 0 5 2 28v28q92 28 102 381-50 25-145 85v70q20 32 69 36 72 5 80 8 9 3 38 33 26 26 41 26 6 0 41-13 36-13 42-13 55 6 226 23 81 8 383 31 10 1 62 17t58 17q13 0 52-4l47-6q68-4 190-4z"/><glyph glyph-name="Eacute" horiz-adv-x="1135" unicode="É" d="M1114 1808q0-3-103-58-35-19-157-80l-170-83q-15-12-43-31-147-104-201-104-52 0-52 33 0 39 49 62l150 69q51 35 160 99l111 50 66 42 68 35q15 1 70 20 52-29 52-54zm291-383q-30-11-86-50-24 2-54 2-144 0-454-50l-187-31q-9 0-60 6t-60 7q-43 0-105-24-69-28-85-61-23-50-39-167-15-106-15-179 0-7 18-57 162 24 201 24h467v-72q-46-5-122-5-28 0-118 2l-118 1q-73 0-186-46-22-5-102-21-64-13-86-53-38-334-38-473 28-35 58-41l130-26q63 0 140 7 177 15 409 15 51 0 91-3l41-3q27-5 27-24v-41q-49-23-188-23-21 0-65-15l-44-15q-11 0-69 8-49 7-68 7h-4l-13-2q-48-3-215-25-99-13-110-13-46 0-136 58-98 61-98 105 0 20 20 173 27 200 50 331-28 21-28 63 0 5 2 28v28q92 28 102 381-50 25-145 85v70q20 32 69 36 72 5 80 8 9 3 38 33 26 26 41 26 6 0 41-13 36-13 42-13 55 6 226 23 81 8 383 31 10 1 62 17t58 17q13 0 52-4l47-6q68-4 190-4z"/><glyph glyph-name="Ecircumflex" horiz-adv-x="1135" unicode="Ê" d="M1093 1579q0-41-68-41-18 0-39 8-18 26-78 53-10 10-68 75-60 67-93 67-7 0-189-104t-195-104q-19 1-41 13t-21 23q0 14 45 32 58 24 64 29 7 5 86 71 15 13 59 31 59 25 67 30 16 9 41 37 23 28 33 34 29 17 68 17 52 0 79-29 30-32 109-116 64-68 136-108 5-5 5-18zm312-154q-30-11-86-50-24 2-54 2-144 0-454-50l-187-31q-9 0-60 6t-60 7q-43 0-105-24-69-28-85-61-23-50-39-167-15-106-15-179 0-7 18-57 162 24 201 24h467v-72q-46-5-122-5-28 0-118 2l-118 1q-73 0-186-46-22-5-102-21-64-13-86-53-38-334-38-473 28-35 58-41l130-26q63 0 140 7 177 15 409 15 51 0 91-3l41-3q27-5 27-24v-41q-49-23-188-23-21 0-65-15l-44-15q-11 0-69 8-49 7-68 7h-4l-13-2q-48-3-215-25-99-13-110-13-46 0-136 58-98 61-98 105 0 20 20 173 27 200 50 331-28 21-28 63 0 5 2 28v28q92 28 102 381-50 25-145 85v70q20 32 69 36 72 5 80 8 9 3 38 33 26 26 41 26 6 0 41-13 36-13 42-13 55 6 226 23 81 8 383 31 10 1 62 17t58 17q13 0 52-4l47-6q68-4 190-4z"/><glyph glyph-name="Edieresis" horiz-adv-x="1135" unicode="Ë" d="M601 1607q-10-23-44-56-17-18-62-40-4-1-7-1-11 0-24 4-21 7-31 7-8 1-16 1-11 0-23-1-21 0-34 20-8 11-8 24 0 5 1 10l-1 59 35 64 76 47 106 6q42-40 42-93 0-25-10-51zm487 42q-17-49-61-85-54-44-103-44h-6q-53 2-89 40l-26 33q-15 16-15 40 0 5 1 10 2 24 27 39 26 15 49 29 32 23 91 59l106-45q4-17 15-50 1-8 9-26h2zm317-224q-30-11-86-50-24 2-54 2-144 0-454-50l-187-31q-9 0-60 6t-60 7q-43 0-105-24-69-28-85-61-23-50-39-167-15-106-15-179 0-7 18-57 162 24 201 24h467v-72q-46-5-122-5-28 0-118 2l-118 1q-73 0-186-46-22-5-102-21-64-13-86-53-38-334-38-473 28-35 58-41l130-26q63 0 140 7 177 15 409 15 51 0 91-3l41-3q27-5 27-24v-41q-49-23-188-23-21 0-65-15l-44-15q-11 0-69 8-49 7-68 7h-4l-13-2q-48-3-215-25-99-13-110-13-46 0-136 58-98 61-98 105 0 20 20 173 27 200 50 331-28 21-28 63 0 5 2 28v28q92 28 102 381-50 25-145 85v70q20 32 69 36 72 5 80 8 9 3 38 33 26 26 41 26 6 0 41-13 36-13 42-13 55 6 226 23 81 8 383 31 10 1 62 17t58 17q13 0 52-4l47-6q68-4 190-4z"/><glyph glyph-name="Igrave" horiz-adv-x="555" unicode="Ì" d="M534 1355q0-8-16-21-27-21-53-21-15 0-62 19l-64 28q-63 27-140 77-82 55-146 69-32 36-32 56 0 19 5 23t29 4q40 0 121-40 190-96 350-187zm-207-160q-13-55-57-248-113-501-113-879v-40q-13-2-25-14-58 69-58 233 0 31 22 222 32 286 65 448 40 196 105 331h36q25-20 25-53z"/><glyph glyph-name="Iacute" horiz-adv-x="841" unicode="Í" d="M812 1637q0-5-114-70-41-23-178-97l-191-101q-16-14-48-37-165-126-226-126-59 0-59 41 0 46 56 74t169 83q57 43 180 120l125 61 75 50 75 42q17 2 79 26 57-37 57-66zm-289-456q-12-54-56-248-114-504-114-883v-36q-13-2-25-13-57 69-57 232 0 31 22 222 32 287 65 449 39 195 105 330h36q24-20 24-53z"/><glyph glyph-name="Icircumflex" horiz-adv-x="707" unicode="Î" d="M687 1296q0-49-56-49-16 0-34 10-15 30-65 62-9 11-57 87-51 78-79 78-5 0-159-121t-164-121q-17 0-35 14t-17 27q0 16 37 38 48 29 54 34 6 6 72 82 13 16 50 37 49 29 57 34 13 11 33 44t28 39q26 21 59 21 44 0 66-34 25-38 91-136 55-79 115-126 4-5 4-20zm-275-101q-12-55-56-248-113-501-113-879v-40q-13-2-26-14-57 69-57 233 0 31 21 222 33 286 66 448 39 196 104 331h37q24-20 24-53z"/><glyph glyph-name="Idieresis" horiz-adv-x="779" unicode="Ï" d="M221 1373q-17-18-61-40-4-1-8-1-11 0-23 5-22 7-32 7h-14q-13 0-25-2-21 2-34 21-7 12-7 25v9l-1 59 35 64 76 47 106 6q43-40 43-92 0-27-10-51t-45-57zm530 98q-17-49-60-86-54-43-105-43h-4q-53 2-89 41l-27 32q-14 17-14 40v10q3 24 29 40l48 28q31 23 91 59l107-45q2-16 13-50 2-8 9-26h2zm-323-291q-13-54-57-248-113-500-113-879v-40q-13-1-25-13-58 68-58 232 0 31 21 223 33 286 67 447 38 196 104 332h37q24-20 24-54z"/><glyph glyph-name="Ntilde" horiz-adv-x="1480" unicode="Ñ" d="M1751 1694q0-47-106-126-85-63-154-91-82-35-197-35 0 3-132 98-137 98-185 98-44 0-150-92-105-92-106-92-20 0-38 19-20 18-20 37 0 55 130 164 128 107 189 107 6 0 192-103t192-103q42 0 46 3 10 5 45 15h2q7 0 19 8 18 11 40 18 3 2 93 73 73 58 88 58 52 0 52-56zm63-275q0-59-182-388-133-240-234-405-88-143-247-359-133-181-260-255-20 10-33 23-2 7-103 440-62 266-149 423l-505-865q-13 12-44 12h-3v66q0 10 260 454l300 510h39q84-150 172-561 49-231 102-336h2q6 1 16-8 267 266 621 935 32 60 119 231 13 24 47 93 10 17 46 38 36-25 36-48z"/><glyph glyph-name="Ograve" horiz-adv-x="1731" unicode="Ò" d="M1321 1306q0-10-23-28-38-28-77-28-21 0-87 26l-92 37q-89 36-198 103-119 73-208 92-47 48-47 75 0 25 7 31 8 5 42 5 57 0 171-54 273-128 500-249zm426-520q0 64-39 104-174 181-378 181-4 0-27-2t-26-2q-6-1-30 9t-28 10q-8 0-51-7t-50-7q-82 0-285-48-45-10-100-24-62-21-80-53l-16-54q-162-111-182-128-92-79-129-178-2-2-9-82-5-49-41-63-29 41-42 95-90-149-90-178 0-86 121-189t218-103q3 0 17 2t15 2q5 0 33-9t33-9q9 0 148 17 97 12 190 28 23 11 85 34 253 77 439 211 233 169 286 378 16 65 18 65zm62 10q0-28-32-123-30-83-49-122-98-195-311-337-125-84-389-165t-410-81h-110q-140 0-289 108-160 117-160 250 0 116 86 254 78 124 180 202 43 32 135 132 80 88 140 124 69 42 268 88 192 44 282 44 220 0 412-82 247-105 247-292z"/><glyph glyph-name="Oacute" horiz-adv-x="1731" unicode="Ó" d="M1326 1586q0-5-115-71-41-23-178-96l-191-102q-16-14-48-37-165-125-227-125-58 0-58 41-1 46 55 74t169 82q58 44 180 121l125 61 75 50 76 42q17 2 78 25 59-36 59-65zm421-800q0 64-39 104-174 181-378 181-4 0-27-2t-26-2q-6-1-30 9t-28 10q-8 0-51-7t-50-7q-82 0-285-48-45-10-100-24-62-21-80-53l-16-54q-162-111-182-128-92-79-129-178-2-2-9-82-5-49-41-63-29 41-42 95-90-149-90-178 0-86 121-189t218-103q3 0 17 2t15 2q5 0 33-9t33-9q9 0 148 17 97 12 190 28 23 11 85 34 253 77 439 211 233 169 286 378 16 65 18 65zm62 10q0-28-32-123-30-83-49-122-98-195-311-337-125-84-389-165t-410-81h-110q-140 0-289 108-160 117-160 250 0 116 86 254 78 124 180 202 43 32 135 132 80 88 140 124 69 42 268 88 192 44 282 44 220 0 412-82 247-105 247-292z"/><glyph glyph-name="Ocircumflex" horiz-adv-x="1731" unicode="Ô" d="M1688 1302q0-59-93-59-26 0-56 12-24 37-107 76-3 1-93 107-83 96-129 96-10 0-262-149t-270-149q-27 0-56 18t-29 34q0 19 62 46 79 34 88 41 9 8 118 102 22 19 82 45 81 35 94 43 21 13 54 51 35 42 47 50 41 25 95 25 72 0 109-42 41-46 151-166 90-98 189-155 6-7 6-26zm59-516q0 64-39 104-174 181-378 181-4 0-27-2t-26-2q-6-1-30 9t-28 10q-8 0-51-7t-50-7q-82 0-285-48-45-10-100-24-62-21-80-53l-16-54q-162-111-182-128-92-79-129-178-2-2-9-82-5-49-41-63-29 41-42 95-90-149-90-178 0-86 121-189t218-103q3 0 17 2t15 2q5 0 33-9t33-9q9 0 148 17 97 12 190 28 23 11 85 34 253 77 439 211 233 169 286 378 16 65 18 65zm62 10q0-28-32-123-30-83-49-122-98-195-311-337-125-84-389-165t-410-81h-110q-140 0-289 108-160 117-160 250 0 116 86 254 78 124 180 202 43 32 135 132 80 88 140 124 69 42 268 88 192 44 282 44 220 0 412-82 247-105 247-292z"/><glyph glyph-name="Otilde" horiz-adv-x="1731" unicode="Õ" d="M1648 1521q0-48-106-126-86-63-154-92-83-34-197-34 0 3-133 98-137 98-185 98-44 0-149-92-107-93-108-93-18 0-38 19-19 19-19 38 0 54 129 163 130 108 190 108 5 0 192-102 186-104 192-104 42 0 46 3 11 6 45 14h2q7 0 20 8 17 12 39 18 4 2 93 74 73 58 88 58 53 0 53-56zm99-735q0 64-39 104-174 181-378 181-4 0-27-2t-26-2q-6-1-30 9t-28 10q-8 0-51-7t-50-7q-82 0-285-48-45-10-100-24-62-21-80-53l-16-54q-162-111-182-128-92-79-129-178-2-2-9-82-5-49-41-63-29 41-42 95-90-149-90-178 0-86 121-189t218-103q3 0 17 2t15 2q5 0 33-9t33-9q9 0 148 17 97 12 190 28 23 11 85 34 253 77 439 211 233 169 286 378 16 65 18 65zm62 10q0-28-32-123-30-83-49-122-98-195-311-337-125-84-389-165t-410-81h-110q-140 0-289 108-160 117-160 250 0 116 86 254 78 124 180 202 43 32 135 132 80 88 140 124 69 42 268 88 192 44 282 44 220 0 412-82 247-105 247-292z"/><glyph glyph-name="Odieresis" horiz-adv-x="1731" unicode="Ö" d="M964 1414q-10-23-45-57-16-18-62-40-3-1-7-1-11 0-23 5-21 7-31 7-9 1-17 1-12 0-22-2-22 1-35 20-7 11-7 24 0 5 1 10l-2 60 36 63 74 48 108 5q43-39 43-92 0-25-11-51zm485 41q-15-49-61-85-53-44-103-44h-5q-53 3-89 41l-26 32q-15 18-15 42 0 4 1 8 3 24 27 39t49 29q33 24 92 60l105-45 15-51q2-8 8-26h2zm298-669q0 64-39 104-174 181-378 181-4 0-27-2t-26-2q-6-1-30 9t-28 10q-8 0-51-7t-50-7q-82 0-285-48-45-10-100-24-62-21-80-53l-16-54q-162-111-182-128-92-79-129-178-2-2-9-82-5-49-41-63-29 41-42 95-90-149-90-178 0-86 121-189t218-103q3 0 17 2t15 2q5 0 33-9t33-9q9 0 148 17 97 12 190 28 23 11 85 34 253 77 439 211 233 169 286 378 16 65 18 65zm62 10q0-28-32-123-30-83-49-122-98-195-311-337-125-84-389-165t-410-81h-110q-140 0-289 108-160 117-160 250 0 116 86 254 78 124 180 202 43 32 135 132 80 88 140 124 69 42 268 88 192 44 282 44 220 0 412-82 247-105 247-292z"/><glyph glyph-name="Oslash" horiz-adv-x="1607" unicode="Ø" d="M1062 1080q-122 31-160 31l-131-18q-16-23-51-69-132-4-250-60t-171-145q-22-36-37-97-4-19-36-90-25-54-25-92 0-74 44-145 27-44 95-68 126 186 343 395 132 125 379 358zm360-323q0 84-41 172-49 105-119 105-58 0-430-348t-373-403q0-49 160-83 120-26 206-26 40 0 176 27 126 25 172 40 96 31 175 206 74 164 74 310zm193 562q-158-100-232-164 182-181 182-398 0-87-30-177-16-47-57-170-72-219-239-283-65-26-207-59-149-36-207-36-8 0-51 13t-52 13q-6 0-32-6t-32-6q-17 0-135 32t-135 31q-66 0-153-243h-57q-4 20-40 56 102 198 102 245 0 18-47 77-18 21-65 77-46 67-54 149-1 10-1 160 0 4-12 28t-13 25q44 34 44 51 0 3-10 18t-9 19q0 156 276 309 203 113 422 167 26 7 63 7h31l31-1q23 1 154-19t153-20q35 0 163 90l129 90h106q6-26 14-75z"/><glyph glyph-name="Ugrave" horiz-adv-x="1743" unicode="Ù" d="M1216 1329q0-11-21-28-36-28-72-28-21 0-84 26l-87 37q-84 36-189 103-113 74-198 93-45 48-45 74t7 32 40 5q54 0 163-54 259-129 476-250zm461-316q0-53-70-298-37-129-108-232-141-205-403-348t-496-143q-93 0-217 70-113 62-180 140-15 17-59 95-14 13-35 42-7 22-13 44-53 162-53 244 0 115 47 248 56 157 143 198 33 15 53 15 13 0 13-26-4 0-129-255-33-70-33-190 0-174 136-342 144-178 313-178h44q176 0 387 102 202 97 330 229 85 86 146 207 37 73 77 166 34 106 34 222 0 102-50 119-2 8-2 16 0 60 39 60 5 0 17-4 69-27 69-201z"/><glyph glyph-name="Uacute" horiz-adv-x="1743" unicode="Ú" d="M1312 1602q0-5-115-70-40-24-177-97l-191-101q-16-14-48-38-165-125-226-125-59 0-59 40 0 46 55 76 56 27 169 82 58 43 180 120l125 61 75 50 76 42q17 2 78 25 58-36 58-65zm365-589q0-53-70-298-37-129-108-232-141-205-403-348t-496-143q-93 0-217 70-113 62-180 140-15 17-59 95-14 13-35 42-7 22-13 44-53 162-53 244 0 115 47 248 56 157 143 198 33 15 53 15 13 0 13-26-4 0-129-255-33-70-33-190 0-174 136-342 144-178 313-178h44q176 0 387 102 202 97 330 229 85 86 146 207 37 73 77 166 34 106 34 222 0 102-50 119-2 8-2 16 0 60 39 60 5 0 17-4 69-27 69-201z"/><glyph glyph-name="Ucircumflex" horiz-adv-x="1743" unicode="Û" d="M1394 1347q0-48-85-48-24 0-52 10-22 30-99 61-3 2-87 88-77 79-119 79-8 0-242-122t-251-122q-25 1-51 15t-27 27q0 17 57 38 74 29 82 35t109 83q21 15 76 36 75 29 87 35 18 11 50 44t44 39q38 21 88 21 66 0 101-35 38-38 139-136 82-79 174-126 6-7 6-22zm283-334q0-53-70-298-37-129-108-232-141-205-403-348t-496-143q-93 0-217 70-113 62-180 140-15 17-59 95-14 13-35 42-7 22-13 44-53 162-53 244 0 115 47 248 56 157 143 198 33 15 53 15 13 0 13-26-4 0-129-255-33-70-33-190 0-174 136-342 144-178 313-178h44q176 0 387 102 202 97 330 229 85 86 146 207 37 73 77 166 34 106 34 222 0 102-50 119-2 8-2 16 0 60 39 60 5 0 17-4 69-27 69-201z"/><glyph glyph-name="Udieresis" horiz-adv-x="1743" unicode="Ü" d="M826 1436q-10-23-44-57-17-17-62-40h-7q-11 0-24 4-21 7-31 7h-10q-16 0-29-1-20 1-34 21-7 10-7 23v10l-1 59 35 64 75 48 107 5q43-39 43-91 0-26-11-52zm485 42q-16-50-60-86-54-44-104-44h-5q-51 2-88 41l-27 32q-15 18-15 41 0 5 1 9 3 25 27 39t50 29q32 24 91 59l106-44q4-17 14-51 2-7 8-25h2zm366-465q0-53-70-298-37-129-108-232-141-205-403-348t-496-143q-93 0-217 70-113 62-180 140-15 17-59 95-14 13-35 42-7 22-13 44-53 162-53 244 0 115 47 248 56 157 143 198 33 15 53 15 13 0 13-26-4 0-129-255-33-70-33-190 0-174 136-342 144-178 313-178h44q176 0 387 102 202 97 330 229 85 86 146 207 37 73 77 166 34 106 34 222 0 102-50 119-2 8-2 16 0 60 39 60 5 0 17-4 69-27 69-201z"/><glyph glyph-name="germandbls" horiz-adv-x="1164" unicode="ß" d="M1109 398q0-56-69-135-54-62-116-103-33-13-98-42-35-35-112-94-141-92-253-151h-52q-28 18-28 41 0 39 286 256 284 217 284 234 0 77-96 136-44 25-156 92-270 171-270 301 0 45 224 270 225 226 225 277 0 110-80 176t-210 67q-84 0-174-29-110-36-140-92-37-71-37-299 0-10 3-70 4-60 4-71 0-35-46-473l-24-224q0-18 25-140 23-123 23-142 0-7-11-47t-11-50q0-8 5-60t5-61q-6 0-50-17-43-18-52-18-22 0-45 23-22 23-22 45l17 50q18 51 18 84 0 16-6 90t-5 87v358q1 15 9 43t12 37q30 203 30 538 0 250 38 387 22 80 206 143 155 53 262 53 0-3 143-42 95-27 171-126t76-198q0-157-114-281-53-57-210-170-113-81-113-135 0-31 93-93 27-19 63-46 98-59 242-154 33-22 84-107 52-84 52-118z"/><glyph glyph-name="agrave" d="M999 3q-21-29-46-29-16 0-108 96-92 97-123 97 0-2-218-84-223-83-284-83-50 0-111 49t-61 92q0 111 243 259 228 140 348 140 50 0 90-57v-43q-20-29-46-29-5 0-34.5 13t-35.5 13q-40 0-183-82-136-77-182-115-46-40-59-91 35-33 83-33 25 0 241 83 215 84 260 84 66 0 95-33 7-8 51-90 33-62 80-112v-45zm-128 661q0-11-21-31-35-33-71-33-21 0-82 31l-86 42q-83 42-186 121-112 86-195 109-44 55-44 86 0 30 8 37 6 5 39 5 53 0 160-62 255-151 468-292z" unicode="à"/><glyph glyph-name="aacute" d="M999 3q-21-29-46-29-16 0-108 96-92 97-123 97 0-2-218-84-223-83-284-83-50 0-111 49t-61 92q0 111 243 259 228 140 348 140 50 0 90-57v-43q-20-29-46-29-5 0-34.5 13t-35.5 13q-40 0-183-82-136-77-182-115-46-40-59-91 35-33 83-33 25 0 241 83 215 84 260 84 66 0 95-33 7-8 51-90 33-62 80-112v-45zm-21 1003q0-5-115-71-40-23-178-96l-190-102q-17-13-48-37-166-125-228-125-58 0-58 40 0 46 56 74.5t169 82.5q57 44 179 121l126 60 74 50 77 42q16 2 77 26 59-36 59-65z" unicode="á"/><glyph glyph-name="acircumflex" d="M951 629q0-48-68-48-18 0-40 10-18 30-78 62-2 2-68 89-60 80-93 80-7 0-190-124-183-123-197-123-19 1-40 15t-21 27q0 17 45 39 57 28 63 34t86 85q16 16 60 37 59 29 68 35 16 11 40 45t34 40q29 20 69 20 52 0 79-34 29-39 109-138 65-81 137-129 5-6 5-22zm48-626q-21-29-46-29-16 0-108 96-92 97-123 97 0-2-218-84-223-83-284-83-50 0-111 49t-61 92q0 111 243 259 228 140 348 140 50 0 90-57v-43q-20-29-46-29-5 0-35 13t-35 13q-40 0-183-82-136-77-182-115-46-40-59-91 35-33 83-33 25 0 241 83 215 84 260 84 66 0 95-33 7-8 51-90 33-62 80-112v-45z" unicode="â"/><glyph glyph-name="atilde" d="M944 839q0-42-80-112-64-55-116-80-62-31-148-31 0 3-99 88-103 86-139 86-32 0-112-82t-81-82q-14 0-29 17-14 17-14 33 0 48 97 145 97 95 142 95 5 0 145-90 140-92 144-92 32 0 34 2 11 7 34 13 7 0 17 8 13 10 29 15 3 2 70 65 55 51 66 51 40 0 40-49zm55-836q-21-29-46-29-16 0-108 96-92 97-123 97 0-2-218-84-223-83-284-83-50 0-111 49t-61 92q0 111 243 259 228 140 348 140 50 0 90-57v-43q-20-29-46-29-5 0-35 13t-35 13q-40 0-183-82-136-77-182-115-46-40-59-91 35-33 83-33 25 0 241 83 215 84 260 84 66 0 95-33 7-8 51-90 33-62 80-112v-45z" unicode="ã"/><glyph glyph-name="adieresis" d="M999 3q-21-29-46-29-16 0-108 96-92 97-123 97 0-2-218-84-223-83-284-83-50 0-111 49t-61 92q0 111 243 259 228 140 348 140 50 0 90-57v-43q-20-29-46-29-5 0-34.5 13t-35.5 13q-40 0-183-82-136-77-182-115-46-40-59-91 35-33 83-33 25 0 241 83 215 84 260 84 66 0 95-33 7-8 51-90 33-62 80-112v-45zm-592 670q-17-17-61-40h-8q-11 0-23 4-22 6-32 7h-10q-15 0-29-1-20 0-34 20-8 11-8 25 0 4 1 9l-1 59 36 64 74 48 107 5q43-40 43-92 0-25-10.5-50t-44.5-58zm530 98q-17-49-61-85-53-44-102-44h-6q-53 3-89 41l-27 32q-14 18-14 41v9q2 24 28 40 25 14 49 28 32 24 91 59l106-44q3-18 14-51 2-8 9-26h2z" unicode="ä"/><glyph glyph-name="aring" d="M642 830q0 58-33 71-15 5-87 5-36 0-80-42t-44-80q0-21 38-49 38-27 65-27 54 0 98 37 43 38 43 85zm123-32q0-9-20-36-13-15-25-31-6-17-22-48-30-43-84-74-54-33-99-33-71 0-115 22-35 18-76 78t-41 98q-1 78 85 176t156 98q82 0 153-33 11-8 75-58zm234-795q-21-29-46-29-16 0-108 96-92 97-123 97 0-2-218-84-223-83-284-83-50 0-111 49t-61 92q0 111 243 259 228 140 348 140 50 0 90-57v-43q-20-29-46-29-5 0-35 13t-35 13q-40 0-183-82-136-77-182-115-46-40-59-91 35-33 83-33 25 0 241 83 215 84 260 84 66 0 95-33 7-8 51-90 33-62 80-112v-45z" unicode="å"/><glyph glyph-name="ae" horiz-adv-x="1592" unicode="æ" d="M663 283v58h-55q-32 0-152-49-112-45-151-70v-56q44-29 108-29 91 0 145 33 48 29 105 113zm617 371q-20 103-23 108-21 57-87 57-5 0-67-13-58-11-74-11h-1q-27-17-91-99-67-85-67-104v-69h69q52 0 182 47 139 50 159 84zm270-593q-209-65-303-65-41 0-144 24-102 25-140 44-21 11-87 68-63 55-83 55 1 0 1-1 0-8-136-101-149-103-180-103h-85q-102 0-166 58-64 59-64 155t92 160q35 23 197 88 157 63 187 88-45 70-125 115-147 83-191 83-37 0-257-90-59 24-59 76 0 63 57 86 30 11 146 39t139 29q88 0 385-193 24 25 87 122 49 77 103 104 114 57 285 57 71 0 138-118 61-107 61-184 0-94-123-164-76-43-242-89-145-41-160-57 17-45 135-121t168-77h322l42-42v-46z"/><glyph glyph-name="ccedilla" horiz-adv-x="1045" unicode="ç" d="M717-327q0-141-229-158-26-1-100-6-35-4-58-8-15-4-15-5-24 0-68-5-51-5-71-6l-18 12v58q0 5 8 28 9 22 9 26l19-15q7 0 69-9 54-8 77-8 52 0 156 26 123 30 123 63 0 50-46 79-25 15-96 36-61 18-77 33 0 17 2 51 4 26 53 113 17 29 30 49-23-3-33-3-126 0-251 51-159 64-159 169 0 119 171 212 249 135 312 135l126-13q-13 0-15-24-4-33-6-35-98-31-252-110-195-100-195-152 0-97 244-125 43-4 56-4h3l502 76 18-15v-47q-59-36-121-49-98-20-285-49-25-4-45-7v-8q0-17-21-69-25-59-28-78 21-15 86-32 21-5 47-30 34-31 42-37 36-88 36-110z"/><glyph glyph-name="egrave" horiz-adv-x="1053" unicode="è" d="M613 452q-56 57-180 57-87 0-161-34-96-44-96-119 0-27 18-38h64q34 0 184 57t171 77zm412-399q-37-44-96-44h-354q-123 0-274 37-198 48-224 121-29 82-29 157 0 151 130 232 110 70 268 70 136 0 216-58.5t80-159.5q0-56-192-123-159-57-231-57-9 0-16 1 0-14-22-34 12-20 117-46 94-24 134-24h318q0-1 120-18 38-24 55-54zm-286 685q0-11-21-31-35-33-71-33-21 0-82 31l-86 42q-83 42-186 121-112 86-195 109-44 55-44 86 0 30 8 37 6 5 39 5 53 0 160-62 255-151 468-292z"/><glyph glyph-name="eacute" horiz-adv-x="1053" unicode="é" d="M613 452q-56 57-180 57-87 0-161-34-96-44-96-119 0-27 18-38h64q34 0 184 57t171 77zm412-399q-37-44-96-44h-354q-123 0-274 37-198 48-224 121-29 82-29 157 0 151 130 232 110 70 268 70 136 0 216-58.5t80-159.5q0-56-192-123-159-57-231-57-9 0-16 1 0-14-22-34 12-20 117-46 94-24 134-24h318q0-1 120-18 38-24 55-54zm-205 1005q0-5-115-71-40-23-178-96l-190-102q-17-13-48-37-166-125-228-125-58 0-58 40 0 46 56 74.5t169 82.5q57 44 179 121l126 60 74 50 77 42q16 2 77 26 59-36 59-65z"/><glyph glyph-name="ecircumflex" horiz-adv-x="1053" unicode="ê" d="M786 670q0-48-67-48-18 0-40 10-17 30-78 62-2 2-68 89-60 80-93 80-7 0-190-124-182-123-196-123-18 0-40 14t-22 28q0 17 45 39 58 29 64 35 7 5 86 84 16 16 60 37 59 29 67 35 16 10 40 44t34 41q30 20 69 20 52 0 79-34 30-39 109-139 65-80 137-128 4-6 4-22zm-173-218q-56 57-180 57-87 0-161-34-96-44-96-119 0-27 18-38h64q34 0 184 57t171 77zm412-399q-37-44-96-44h-354q-123 0-274 37-198 48-224 121-29 82-29 157 0 151 130 232 110 70 268 70 136 0 216-58t80-160q0-56-192-123-159-57-231-57-9 0-16 1 0-14-22-34 12-20 117-46 94-24 134-24h318q0-1 120-18 38-24 55-54z"/><glyph glyph-name="edieresis" horiz-adv-x="1053" unicode="ë" d="M613 452q-56 57-180 57-87 0-161-34-96-44-96-119 0-27 18-38h64q34 0 184 57t171 77zm412-399q-37-44-96-44h-354q-123 0-274 37-198 48-224 121-29 82-29 157 0 151 130 232 110 70 268 70 136 0 216-58.5t80-159.5q0-56-192-123-159-57-231-57-9 0-16 1 0-14-22-34 12-20 117-46 94-24 134-24h318q0-1 120-18 38-24 55-54zm-729 726q-17-17-61-40h-8q-11 0-23 4-22 6-32 7h-10q-15 0-29-1-20 0-34 20-8 11-8 25 0 4 1 9l-1 59 36 64 74 48 107 5q43-40 43-92 0-25-10.5-50t-44.5-58zm530 98q-17-49-61-85-53-44-102-44h-6q-53 3-89 41l-27 32q-14 18-14 41v9q2 24 28 40 25 14 49 28 32 24 91 59l106-44q3-18 14-51 2-8 9-26h2z"/><glyph glyph-name="igrave" horiz-adv-x="742" unicode="ì" d="M390 616q9-34 14-254 2-95 2-158 0-74-3-105-1-15-33-119-42 13-124 35-6 103-6 201 0 73 3 144 12 280 64 294 8 2 13 2 59 0 70-40zm329 79q0-11-21-31-35-33-71-33-21 0-82 31l-86 42q-83 42-186 121-112 86-195 109-44 55-44 86 0 30 8 37 6 5 39 5 53 0 160-62 255-151 468-292z"/><glyph glyph-name="iacute" horiz-adv-x="874" unicode="í" d="M518 616q9-34 14-254 2-95 2-158 0-74-3-105-1-15-33-119-42 13-124 35-6 103-6 201 0 73 3 144 12 280 64 294 8 2 13 2 59 0 70-40zm329 435q0-5-115-71-40-23-178-96l-190-102q-17-13-48-37-166-125-228-125-58 0-58 40 0 46 56 74.5t169 82.5q57 44 179 121l126 60 74 50 77 42q16 2 77 26 59-36 59-65z"/><glyph glyph-name="icircumflex" horiz-adv-x="860" unicode="î" d="M806 692q0-49-68-49-18 0-40 9-17 31-78 63-2 1-68 89-60 80-93 80-7 0-190-124-183-123-196-123-20 0-41 15-20 14-20 28 0 16 44 38 58 29 64 35 7 6 86 84 16 15 59 37 59 30 68 35 16 11 40 45 25 33 34 39 30 21 68 21 53 0 80-34 30-39 109-138 65-81 137-128 5-7 5-22zm-310-76q10-34 15-254 2-88 2-148 0-82-4-115-1-15-33-119-42 13-124 35-5 103-5 201 0 73 3 144 11 280 63 294 9 2 13 2 60 0 70-40z"/><glyph glyph-name="idieresis" horiz-adv-x="770" unicode="ï" d="M402 616q9-34 14-254 2-95 2-158 0-74-3-105-1-15-33-119-42 13-124 35-6 103-6 201 0 73 3 144 12 280 64 294 8 2 13 2 59 0 70-40zm-182 204q-17-17-61-40h-8q-11 0-23 4-22 6-32 7h-10q-15 0-29-1-20 0-34 20-8 11-8 25 0 4 1 9l-1 59 36 64 74 48 107 5q43-40 43-92 0-25-10.5-50t-44.5-58zm530 98q-17-49-61-85-53-44-102-44h-6q-53 3-89 41l-27 32q-14 18-14 41v9q2 24 28 40 25 14 49 28 32 24 91 59l106-44q3-18 14-51 2-8 9-26h2z"/><glyph glyph-name="ntilde" horiz-adv-x="1041" unicode="ñ" d="M1261 940q0-42-79-111-65-56-117-82-62-30-148-30 0 2-99 87-103 87-139 87-33 0-113-82l-80-82q-14 1-28 17t-15 33q0 48 97 144 97 97 143 97 4 0 144-92t144-91q32 0 35 2 10 8 33 13h2q6 0 15 7 13 11 30 16 2 2 69 65 55 52 66 52 40 0 40-50zm-321-400q0-21-21-239-18-181-44-394-2-16-32-16-39 0-64 98-19 75-19 133 0 22 26 158t25 157q0 59-32 59-41 0-175-71-116-62-169-101-101-74-229-223-21-24-82-92-24-25-95-26v67q0 47 184 207 147 128 308 232 226 147 336 147 29 0 56-32t27-64z"/><glyph glyph-name="ograve" horiz-adv-x="1243" unicode="ò" d="M1064 373q0 74-89 141-82 63-162 63-15 0-233-43-84-17-153-65-236-168-236-232 0-54 129-98 110-38 179-38 103 0 289 42 170 38 242 115 34 35 34 115zm102-8q0-107-45-183-41-69-291-136-223-60-339-60-136 0-269 65-161 80-161 199 0 53 61 108 54 39 163 147 72 88 264 142 162 46 303 46 38 0 114-33 76-35 104-64 28-31 62-111.5t34-119.5zm-193 457q0-11-21-31-35-33-71-33-21 0-82 31l-86 42q-83 42-186 121-112 86-195 109-44 55-44 86 0 30 8 37 6 5 39 5 53 0 160-62 255-151 468-292z"/><glyph glyph-name="oacute" horiz-adv-x="1243" unicode="ó" d="M1064 373q0 74-89 141-82 63-162 63-15 0-233-43-84-17-153-65-236-168-236-232 0-54 129-98 110-38 179-38 103 0 289 42 170 38 242 115 34 35 34 115zm102-8q0-107-45-183-41-69-291-136-223-60-339-60-136 0-269 65-161 80-161 199 0 53 61 108 54 39 163 147 72 88 264 142 162 46 303 46 38 0 114-33 76-35 104-64 28-31 62-111.5t34-119.5zm-141 715q0-5-115-71-40-23-178-96l-190-102q-17-13-48-37-166-125-228-125-58 0-58 40 0 46 56 74.5t169 82.5q57 44 179 121l126 60 74 50 77 42q16 2 77 26 59-36 59-65z"/><glyph glyph-name="ocircumflex" horiz-adv-x="1243" unicode="ô" d="M1101 795q0-49-67-49-19 0-41 9-17 31-77 64-2 0-69 88-59 80-92 80-8 0-190-124-184-124-197-124-18-1-40 15t-22 29q0 16 45 38 59 29 65 35t85 83q16 16 59 38 59 29 69 35 15 10 39 44t34 40q30 21 69 21 53 0 79-34 30-39 109-138 65-81 137-129 5-6 5-21zm-37-422q0 74-89 141-82 63-162 63-15 0-233-43-84-17-153-65-236-168-236-232 0-54 129-98 110-38 179-38 103 0 289 42 170 38 242 115 34 35 34 115zm102-8q0-107-45-183-41-69-291-136-223-60-339-60-136 0-269 65-161 80-161 199 0 53 61 108 54 39 163 147 72 88 264 142 162 46 303 46 38 0 114-33 76-35 104-64 28-32 62-112t34-119z"/><glyph glyph-name="otilde" horiz-adv-x="1243" unicode="õ" d="M1088 967q0-44-85-117-66-58-120-84-66-32-156-32 0 3-105 91-108 90-147 90-33 0-117-85t-85-85q-15-1-30 17t-15 35q0 50 102 150t150 100q4 0 152-95t151-95q33 0 36 3 12 7 36 13 7 0 17 7 14 11 32 17 2 1 73 68 57 53 69 53 42 0 42-51zm-24-594q0 74-89 141-82 63-162 63-15 0-233-43-84-17-153-65-236-168-236-232 0-54 129-98 110-38 179-38 103 0 289 42 170 38 242 115 34 35 34 115zm102-8q0-107-45-183-41-69-291-136-223-60-339-60-136 0-269 65-161 80-161 199 0 53 61 108 54 39 163 147 72 88 264 142 162 46 303 46 38 0 114-33 76-35 104-64 28-32 62-112t34-119z"/><glyph glyph-name="odieresis" horiz-adv-x="1243" unicode="ö" d="M1064 373q0 74-89 141-82 63-162 63-15 0-233-43-84-17-153-65-236-168-236-232 0-54 129-98 110-38 179-38 103 0 289 42 170 38 242 115 34 35 34 115zm102-8q0-107-45-183-41-69-291-136-223-60-339-60-136 0-269 65-161 80-161 199 0 53 61 108 54 39 163 147 72 88 264 142 162 46 303 46 38 0 114-33 76-35 104-64 28-31 62-111.5t34-119.5zm-677 486q-17-17-61-40h-8q-11 0-23 4-22 6-32 7h-10q-15 0-29-1-20 0-34 20-8 11-8 25 0 4 1 9l-1 59 36 64 74 48 107 5q43-40 43-92 0-25-10.5-50t-44.5-58zm530 98q-17-49-61-85-53-44-102-44h-6q-53 3-89 41l-27 32q-14 18-14 41v9q2 24 28 40 25 14 49 28 32 24 91 59l106-44q3-18 14-51 2-8 9-26h2z"/><glyph glyph-name="divide" horiz-adv-x="1280" unicode="÷" d="M689 215q0-16-32-36-31-21-51-21-24 0-54 30t-31 53q0 70 85 70 26 0 83-28v-68zm559 266q-8-19-52-51t-63-32q-8 0-43 11t-42 11q-6 0-44-4t-44-5q-20-1-130 25t-127 26q-7 0-33-13-25-13-33-13l-92 5q-3 0-70 6-60 5-74 5-16 0-105-11-88-12-103-12-70 0-110 27v88q74 39 333 39-22 0-24-2 57-6 548-16h2q18 0 96 12 82 13 95 13 50 0 115-109zm-493 283q0-17-32-78l-64 23q-48 18-60 71l27 77q16 48 57 48 31 0 53-59 19-48 19-82z"/><glyph glyph-name="oslash" horiz-adv-x="1068" unicode="ø" d="M613 550v45h-44q-22-7-100-63-71-51-86-51-5 0-29 7-25 5-29 5-46 0-108-65-2-11-2-28 0-71 22-132 31-83 88-83 20 0 66 50 39 44 52 70 27 56 81 125 69 89 89 120zm271-59q-43 42-90 42-42 0-165-160-36-49-156-209l110-17 207 57q97 41 97 178 0 6-2 50-2 26-2 42 0 11 1 17zm142-56q0-7-11-55t-11-58q0-263-462-309-39-3-151-12-30-2-60-63-21-41-44-85-59-66-103-66-32 0-32 45 0 8 32 80 32 73 32 82 0 76-31 109-63 65-67 73-43 70-43 118-1 138 87 246t235 151q53 16 147 25 4 0 42 11t48 11q6 0 48-6 41-8 49-8 11 0 105 84t113 85q63 0 63-52 0-19-55-80l-73-80q75-54 87-68 55-64 55-178z"/><glyph glyph-name="ugrave" horiz-adv-x="1021" unicode="ù" d="M1054 564q0-42-152-210-134-148-199-196-33-24-141-104-45-32-138-63-95-31-149-31-102 0-169 131-55 107-55 223 0 96 40 197 15 0 31 14 19-11 52-42-10-79-10-138 0-242 157-242 152 0 365 189 34 30 320 299h16q32 0 32-27zm-147 117q0-11-21-31-35-33-71-33-21 0-82 31l-86 42q-83 42-186 121-112 86-195 109-44 55-44 86 0 30 8 37 6 5 39 5 53 0 160-62 255-151 468-292z"/><glyph glyph-name="uacute" horiz-adv-x="1021" unicode="ú" d="M1054 564q0-42-152-210-134-148-199-196-33-24-141-104-45-32-138-63-95-31-149-31-102 0-169 131-55 107-55 223 0 96 40 197 15 0 31 14 19-11 52-42-10-79-10-138 0-242 157-242 152 0 365 189 34 30 320 299h16q32 0 32-27zm-82 485q0-5-115-71-40-23-178-96l-190-102q-17-13-48-37-166-125-228-125-58 0-58 40 0 46 56 74.5t169 82.5q57 44 179 121l126 60 74 50 77 42q16 2 77 26 59-36 59-65z"/><glyph glyph-name="ucircumflex" horiz-adv-x="1021" unicode="û" d="M973 698q0-48-67-48-19 0-41 10-18 30-78 62-2 2-68 89-60 80-93 80-7 0-189-123-184-124-197-124-20 0-41 14t-21 28q0 17 45 39 58 29 64 35t86 84q15 16 59 37 59 29 69 35 15 11 39 45 25 33 34 40 30 20 69 20 52 0 79-34 30-39 109-139 65-80 137-128 5-6 5-22zm81-134q0-42-152-210-134-148-199-196-33-24-141-104-45-32-138-63-95-31-149-31-102 0-169 131-55 107-55 223 0 96 40 197 15 0 31 14 19-11 52-42-10-79-10-138 0-242 157-242 152 0 365 189 34 30 320 299h16q32 0 32-27z"/><glyph glyph-name="udieresis" horiz-adv-x="1020" unicode="ü" d="M1054 564q0-42-152-210-134-148-199-196-33-24-141-104-45-32-138-63-95-31-149-31-102 0-169 131-55 107-55 223 0 96 40 197 15 0 31 14 19-11 52-42-10-79-10-138 0-242 157-242 152 0 365 189 34 30 320 299h16q32 0 32-27zm-654 138q-17-17-61-40h-8q-11 0-23 4-22 6-32 7h-10q-15 0-29-1-20 0-34 20-8 11-8 25 0 4 1 9l-1 59 36 64 74 48 107 5q43-40 43-92 0-25-10.5-50t-44.5-58zm530 98q-17-49-61-85-53-44-102-44h-6q-53 3-89 41l-27 32q-14 18-14 41v9q2 24 28 40 25 14 49 28 32 24 91 59l106-44q3-18 14-51 2-8 9-26h2z"/><glyph glyph-name="dotlessi" horiz-adv-x="325" unicode="ı" d="M230 616q9-34 14-254 2-95 2-158 0-74-3-105-1-15-33-119-42 13-124 35-6 103-6 201 0 73 3 144 12 280 64 294 8 2 13 2 59 0 70-40z"/><glyph glyph-name="Ohungarumlaut" horiz-adv-x="1731" unicode="Ő" d="M1326 1586q0-5-115-71-41-23-178-96l-191-102q-16-14-48-37-165-125-227-125-58 0-58 41-1 46 55 74t169 82q58 44 180 121l125 61 75 50 76 42q17 2 78 25 59-36 59-65zm421-800q0 64-39 104-174 181-378 181-4 0-27-2t-26-2q-6-1-30 9t-28 10q-8 0-51-7t-50-7q-82 0-285-48-45-10-100-24-62-21-80-53l-16-54q-162-111-182-128-92-79-129-178-2-2-9-82-5-49-41-63-29 41-42 95-90-149-90-178 0-86 121-189t218-103q3 0 17 2t15 2q5 0 33-9t33-9q9 0 148 17 97 12 190 28 23 11 85 34 253 77 439 211 233 169 286 378 16 65 18 65zm62 10q0-28-32-123-30-83-49-122-98-195-311-337-125-84-389-165t-410-81h-110q-140 0-289 108-160 117-160 250 0 116 86 254 78 124 180 202 43 32 135 132 80 88 140 124 69 42 268 88 192 44 282 44 220 0 412-82 247-105 247-292zm177 880q0-5-115-71-41-23-178-96l-191-102q-16-14-48-37-165-125-227-125-58 0-58 41-1 46 55 74t169 82q58 44 180 121l125 61 75 50 76 42q17 2 78 25 59-36 59-65z"/><glyph glyph-name="ohungarumlaut" horiz-adv-x="1243" unicode="ő" d="M1595 1152q0-5-115-71-40-23-178-96l-190-102q-17-13-48-37-166-125-228-125-58 0-58 40 0 46 56 74.5t169 82.5q57 44 179 121l126 60 74 50 77 42q16 2 77 26 59-36 59-65zm-531-779q0 74-89 141-82 63-162 63-15 0-233-43-84-17-153-65-236-168-236-232 0-54 129-98 110-38 179-38 103 0 289 42 170 38 242 115 34 35 34 115zm102-8q0-107-45-183-41-69-291-136-223-60-339-60-136 0-269 65-161 80-161 199 0 53 61 108 54 39 163 147 72 88 264 142 162 46 303 46 38 0 114-33 76-35 104-64 28-31 62-111.5t34-119.5zm-141 715q0-5-115-71-40-23-178-96l-190-102q-17-13-48-37-166-125-228-125-58 0-58 40 0 46 56 74.5t169 82.5q57 44 179 121l126 60 74 50 77 42q16 2 77 26 59-36 59-65z"/><glyph glyph-name="OE" horiz-adv-x="2425" unicode="Œ" d="M1466 661q0 61-50 237-46 159-92 220-57 74-143 111-13 6-163 64-189 73-215 81-11 0-215-96-179-84-287-242-54-80-87-222-30-127-30-239 0-243 228-353 52-24 151-40 15-3 76-22 51-15 72-15 154 0 359 59 226 66 305 206 91 161 91 251zm1225 803q-31-31-68-66-41-37-79-37-4-1-34 13t-36 14q-13 0-86-13-72-12-87-12-51 0-234 3l-234 3q-341 0-477-45 100-119 187-391 1-12 49-252 190 29 311 29 90 0 241-24 179-28 221-65v-79q-7 0-53 6t-55 6q-7 0-39-14t-38-15q-15 0-23 11-3 6-6 14-46 32-202 32-23 0-148-21-127-21-149-21-38 0-62 28-124-283-249-414l803-9q6-1 26-15 18-14 25-14h99l99-2v-9q2-7 2-14 0-62-71-118-52 43-116 43h-820q-6 0-78-42t-81-42h-116q-6 13-7 31 2 0 5 84-6 0-292-30-144-15-159-15-164 0-369 128-190 120-220 261-16 75-16 213 0 145 46 301 52 173 134 271 167 197 421 279 19 6 75 23 20 25 50 61 32 6 82 6h48q57 0 182-10 190-14 251-18 261-15 674-15h14q133 0 330 17 238 19 329 20v-75z"/><glyph glyph-name="oe" horiz-adv-x="1837" unicode="œ" d="M886 471q-1 53-59 110-16 15-62 37t-67 22q-92 0-193-18-35-7-65-28-43-31-152-111-96-74-96-146 0-85 94-139 82-48 173-48 426 0 426 277v21zm666 29q-2 38-31 91-33 61-65 61-98 0-209-66-128-74-130-164h209q20 0 98 20 80 21 86 21 4 4 42 37zm190-503q-11 12-48 12l-171-51q-128-39-266-39-14 0-195 98v13q-16 29-53 71-44 50-67 50-11 0-106-63-95-62-122-74-69-30-195-30-168 0-303 84-154 97-154 256 0 88 65 165 15 20 130 126 20 35 78 96 20 13 85 27 73 16 83 19 2 1 34 28 28 22 45 22 51 0 133-32 40-15 142-53 75-30 102-107 29-15 42-15l-4 1q0 11 167 95 191 97 292 97 86 0 163-89 75-90 75-188 0-3 2-28v-31q0-76-108-135-21-11-97-15-90-4-110-6l-95-25q-54-14-97-14l-34-29q19-47 91-90t127-43q18 0 154 32t155 32q62 0 62-81v-43q-2-38-2-43z"/><glyph glyph-name="Utilde" horiz-adv-x="1743" unicode="Ũ" d="M1312 1602q0-5-115-70-40-24-177-97l-191-101q-16-14-48-38-165-125-226-125-59 0-59 40 0 46 55 76 56 27 169 82 58 43 180 120l125 61 75 50 76 42q17 2 78 25 58-36 58-65zm365-589q0-53-70-298-37-129-108-232-141-205-403-348t-496-143q-93 0-217 70-113 62-180 140-15 17-59 95-14 13-35 42-7 22-13 44-53 162-53 244 0 115 47 248 56 157 143 198 33 15 53 15 13 0 13-26-4 0-129-255-33-70-33-190 0-174 136-342 144-178 313-178h44q176 0 387 102 202 97 330 229 85 86 146 207 37 73 77 166 34 106 34 222 0 102-50 119-2 8-2 16 0 60 39 60 5 0 17-4 69-27 69-201zm195 589q0-5-115-70-40-24-177-97l-191-101q-16-14-48-38-165-125-226-125-59 0-59 40 0 46 55 76 56 27 169 82 58 43 180 120l125 61 75 50 76 42q17 2 78 25 58-36 58-65z"/><glyph glyph-name="utilde" horiz-adv-x="1021" unicode="ũ" d="M1482 1049q0-5-115-71-40-23-178-96l-190-102q-17-13-48-37-166-125-228-125-58 0-58 40 0 46 56 74.5t169 82.5q57 44 179 121l126 60 74 50 77 42q16 2 77 26 59-36 59-65zm-510 0q0-5-115-71-40-23-178-96l-190-102q-17-13-48-37-166-125-228-125-58 0-58 40 0 46 56 74.5t169 82.5q57 44 179 121l126 60 74 50 77 42q16 2 77 26 59-36 59-65zm82-485q0-42-152-210-134-148-199-196-33-24-141-104-45-32-138-63-95-31-149-31-102 0-169 131-55 107-55 223 0 96 40 197 15 0 31 14 19-11 52-42-10-79-10-138 0-242 157-242 152 0 365 189 34 30 320 299h16q32 0 32-27z"/><glyph glyph-name="Ydieresis" horiz-adv-x="846" unicode="Ÿ" d="M512 1510q-16-17-61-40h-8q-11 0-23 4-21 6-31 7h-10q-16 0-29-1-21 1-34 21-8 11-8 25 0 4 1 8l-1 59 35 64 75 48 107 5q43-40 43-92 0-25-11-50-10-25-45-58zm530 98q-16-49-60-85-54-44-104-44h-5q-52 2-88 41l-28 32q-14 18-14 41 0 5 1 9 3 24 28 40 24 14 49 28 31 23 91 59l106-44q3-18 14-51 2-8 8-26h2zm122-306q-3-30-106-110l-136-109q-13-10-80-79l-183-260q-145-206-295-489-32-60-43-99-9-32-33-116-19-62-65-99h-55q-25 19-25 56 0 30 117 263 65 130 200 354 163 274 205 349-51-10-182-62-114-45-183-45-113 0-168 120-41 91-41 218 0 117 47 163 12-7 32-25v-47q0-335 139-335 156 0 414 159 109 68 393 246h36q10-53 12-53z"/></font>
</defs>
</svg>
